<?xml version="1.0" standalone="no"?>
<!DOCTYPE svg PUBLIC "-//W3C//DTD SVG 1.1//EN" "http://www.w3.org/Graphics/SVG/1.1/DTD/svg11.dtd" >
<svg>
<metadata>
Created by FontForge 20120731 at Thu Aug  4 01:25:37 2016
 By www
Copyright (c) 1989, 1990 Adobe Systems Incorporated.  All Rights Reserved.Avant Garde Gothic is a registered trademark of International Typeface Corporation.
</metadata>
<defs>
<font id="AvantGarde-CondMedium" horiz-adv-x="500" >
  <font-face 
    font-family="ITC Avant Garde Gothic"
    font-weight="500"
    font-stretch="condensed"
    units-per-em="1000"
    panose-1="0 0 0 0 0 0 0 0 0 0"
    ascent="800"
    descent="-200"
    x-height="560"
    cap-height="724"
    bbox="-167 -226 1001 980"
    underline-thickness="50"
    underline-position="-75"
    stemv="96"
    unicode-range="U+0020-FB02"
  />
<missing-glyph horiz-adv-x="278" 
 />
    <glyph glyph-name=".notdef" horiz-adv-x="278" 
 />
    <glyph glyph-name="space" unicode=" " horiz-adv-x="278" 
 />
    <glyph glyph-name="exclam" unicode="!" horiz-adv-x="222" 
d="M60 182v542h102v-542h-102zM159 0h-96v124h96v-124z" />
    <glyph glyph-name="quotedbl" unicode="&#x22;" horiz-adv-x="333" 
d="M196 476v248h82v-248h-82zM55 476v248h82v-248h-82z" />
    <glyph glyph-name="numbersign" unicode="#" horiz-adv-x="556" 
d="M507 287l-5 -66h-100l-31 -221h-82l30 221h-115l-30 -221h-83l31 221h-98l5 66h103l20 150h-99l5 66h103l30 221h83l-34 -221h119l34 221h79l-30 -221h95l-5 -66h-99l-22 -150h96zM350 437h-115l-21 -150h115z" />
    <glyph glyph-name="dollar" unicode="$" horiz-adv-x="556" 
d="M56 206h102c0 -72 40 -122 113 -122c68 0 121 44 121 114c0 170 -321 104 -321 333c0 109 63 185 171 193v78h76v-78c102 -12 157 -99 157 -207h-102c-3 70 -29 123 -107 123c-60 0 -99 -47 -99 -105c0 -143 321 -93 321 -334c0 -107 -67 -199 -181 -201v-88h-76v88
c-113 2 -175 82 -175 206z" />
    <glyph glyph-name="percent" unicode="%" horiz-adv-x="889" 
d="M214 736c107 0 170 -89 170 -187s-63 -187 -170 -187s-170 89 -170 187s63 187 170 187zM214 664c-66 0 -88 -61 -88 -115s22 -115 88 -115s88 61 88 115s-22 115 -88 115zM675 362c107 0 170 -89 170 -187s-63 -187 -170 -187s-170 89 -170 187s63 187 170 187zM675 290
c-66 0 -88 -61 -88 -115s22 -115 88 -115s88 61 88 115s-22 115 -88 115zM289 -12h-76l371 748h77z" />
    <glyph glyph-name="ampersand" unicode="&#x26;" horiz-adv-x="611" 
d="M288 384l112 -143c40 72 74 135 108 207l86 -43c-41 -82 -87 -164 -130 -241c41 -54 84 -106 126 -164h-120c-21 30 -39 57 -61 81c-48 -67 -104 -93 -173 -93c-148 0 -207 95 -207 213c0 92 50 161 126 207c-29 40 -53 96 -53 154c0 98 52 174 156 174
c100 0 154 -66 154 -162c0 -88 -59 -140 -124 -190zM350 151l-141 180c-51 -34 -84 -77 -84 -134c0 -55 31 -117 107 -117c58 0 83 32 118 71zM260 644c-46 0 -62 -37 -62 -77c0 -34 15 -78 36 -105c69 51 82 80 82 118c0 34 -21 64 -56 64z" />
    <glyph glyph-name="quoteright" unicode="&#x2019;" horiz-adv-x="222" 
d="M27 516l88 220h80l-101 -220h-67z" />
    <glyph glyph-name="parenleft" unicode="(" horiz-adv-x="389" 
d="M358 742v-98c-135 -90 -200 -220 -200 -377s65 -287 200 -377v-98c-192 88 -296 278 -296 475s104 387 296 475z" />
    <glyph glyph-name="parenright" unicode=")" horiz-adv-x="389" 
d="M31 644v98c192 -88 296 -278 296 -475s-104 -387 -296 -475v98c135 90 200 220 200 377s-65 287 -200 377z" />
    <glyph glyph-name="asterisk" unicode="*" horiz-adv-x="444" 
d="M184 724h76l-20 -150l121 92l38 -66l-139 -58l139 -59l-38 -65l-121 88l20 -148h-76l20 148l-121 -92l-38 69l135 59l-135 58l38 66l121 -92z" />
    <glyph glyph-name="plus" unicode="+" horiz-adv-x="600" 
d="M258 295v211h84v-211h211v-84h-211v-211h-84v211h-211v84h211z" />
    <glyph glyph-name="comma" unicode="," horiz-adv-x="278" 
d="M6 -104l103 228h89l-106 -228h-86z" />
    <glyph glyph-name="hyphen" unicode="-" horiz-adv-x="333" 
d="M47 238v84h239v-84h-239z" />
    <glyph glyph-name="period" unicode="." horiz-adv-x="278" 
d="M187 0h-96v124h96v-124z" />
    <glyph glyph-name="slash" unicode="/" horiz-adv-x="278" 
d="M-15 -12l223 748h85l-223 -748h-85z" />
    <glyph glyph-name="zero" unicode="0" horiz-adv-x="556" 
d="M278 -12c-138 0 -239 136 -239 374s101 374 239 374s239 -136 239 -374s-101 -374 -239 -374zM415 362c0 198 -67 282 -137 282s-137 -84 -137 -282s67 -282 137 -282s137 84 137 282z" />
    <glyph glyph-name="one" unicode="1" horiz-adv-x="556" 
d="M118 724h227v-724h-102v640h-125v84z" />
    <glyph glyph-name="two" unicode="2" horiz-adv-x="556" 
d="M486 0h-442v88c276 320 340 332 340 446c0 62 -44 110 -108 110c-86 0 -124 -59 -128 -138h-102c0 144 88 230 233 230c115 0 207 -82 207 -199c0 -113 -32 -169 -312 -445h312v-92z" />
    <glyph glyph-name="three" unicode="3" horiz-adv-x="556" 
d="M215 347v86c89 0 162 6 162 112c0 56 -39 99 -109 99c-66 0 -106 -35 -113 -111h-102c1 141 100 203 228 203c103 0 198 -75 198 -184c0 -71 -32 -154 -106 -158v-2c89 -18 136 -91 136 -189c0 -140 -120 -215 -239 -215c-158 0 -236 89 -236 231h102
c0 -85 40 -139 133 -139c97 0 138 68 138 119c0 97 -60 150 -159 150c-11 0 -21 -1 -33 -2z" />
    <glyph glyph-name="four" unicode="4" horiz-adv-x="556" 
d="M308 250v300h-2l-172 -300h174zM32 158v94l271 472h107v-474h90v-92h-90v-158h-102v158h-276z" />
    <glyph glyph-name="five" unicode="5" horiz-adv-x="556" 
d="M42 217h102c-2 -73 45 -137 122 -137c92 0 137 58 137 173c0 117 -51 161 -124 161c-57 0 -94 -27 -116 -75l-103 23l43 362h367v-92h-278l-26 -181l2 -2c27 43 73 57 124 57c152 0 213 -130 213 -256c0 -162 -86 -262 -245 -262c-154 0 -216 92 -218 229z" />
    <glyph glyph-name="six" unicode="6" horiz-adv-x="556" 
d="M498 532h-92c-8 62 -39 120 -111 120c-112 0 -144 -136 -148 -265h2c20 50 82 91 156 91c120 0 206 -107 206 -234c0 -157 -88 -256 -235 -256c-144 0 -231 120 -231 354c0 266 92 394 251 394c126 0 198 -82 202 -204zM288 386c-73 0 -123 -69 -123 -141
c0 -105 44 -165 124 -165c74 0 120 44 120 145s-48 161 -121 161z" />
    <glyph glyph-name="seven" unicode="7" horiz-adv-x="556" 
d="M30 632v92h456v-80l-221 -644h-115l224 632h-344z" />
    <glyph glyph-name="eight" unicode="8" horiz-adv-x="556" 
d="M274 -12c-141 0 -240 80 -240 235c0 83 53 154 128 174v2c-58 19 -98 83 -98 151c0 126 105 186 220 186c113 0 207 -71 207 -189c0 -70 -29 -123 -88 -150v1v-2c83 -27 119 -97 119 -186c0 -139 -110 -222 -248 -222zM276 347c-79 0 -134 -56 -134 -134
c0 -74 59 -133 133 -133c80 0 139 48 139 131c0 84 -55 136 -138 136zM278 439c67 0 105 42 105 104c0 61 -53 101 -105 101s-106 -42 -106 -102c0 -63 40 -103 106 -103z" />
    <glyph glyph-name="nine" unicode="9" horiz-adv-x="556" 
d="M58 192h92c8 -62 39 -120 120 -120c103 0 141 140 145 281h-2c-19 -69 -88 -107 -162 -107c-127 0 -206 98 -206 264c0 127 91 226 221 226c148 0 245 -122 245 -354c0 -266 -81 -394 -251 -394c-126 0 -198 82 -202 204zM268 338c73 0 123 52 123 141
c0 95 -44 165 -118 165c-80 0 -126 -46 -126 -145c0 -101 48 -161 121 -161z" />
    <glyph glyph-name="colon" unicode=":" horiz-adv-x="278" 
d="M187 346h-96v124h96v-124zM187 0h-96v124h96v-124z" />
    <glyph glyph-name="semicolon" unicode=";" horiz-adv-x="278" 
d="M6 -104l103 228h89l-106 -228h-86zM187 346h-96v124h96v-124z" />
    <glyph glyph-name="less" unicode="&#x3c;" horiz-adv-x="600" 
d="M553 82v-90l-506 225v72l506 225v-90l-391 -171z" />
    <glyph glyph-name="equal" unicode="=" horiz-adv-x="600" 
d="M553 400v-84h-506v84h506zM553 190v-84h-506v84h506z" />
    <glyph glyph-name="greater" unicode="&#x3e;" horiz-adv-x="600" 
d="M47 -8v90l391 171l-391 171v90l506 -225v-72z" />
    <glyph glyph-name="question" unicode="?" horiz-adv-x="444" 
d="M259 182h-96v110c0 124 156 142 156 250c0 66 -34 106 -99 106c-51 0 -96 -30 -96 -103v-37h-102v50c0 94 69 178 201 178c125 0 198 -85 198 -188c0 -178 -162 -192 -162 -270v-96zM259 0h-96v124h96v-124z" />
    <glyph glyph-name="at" unicode="@" horiz-adv-x="800" 
d="M358 218c82 0 142 109 142 184c0 49 -37 91 -82 91c-84 0 -141 -103 -141 -181c0 -54 33 -94 81 -94zM530 496l18 60h73l-75 -273c-5 -15 -8 -33 -8 -46c0 -15 4 -26 19 -26c64 0 133 98 133 205c0 160 -124 254 -275 254c-176 0 -299 -138 -299 -311
c0 -177 134 -305 308 -305c90 0 177 39 233 103h72c-66 -106 -182 -169 -309 -169c-213 0 -380 163 -380 375c0 209 169 373 375 373c184 0 345 -125 345 -308c0 -188 -159 -288 -243 -288c-32 0 -59 20 -61 60h-2c-28 -31 -71 -60 -115 -60c-86 0 -150 74 -150 163
c0 131 90 268 225 268c49 0 90 -22 116 -75z" />
    <glyph glyph-name="A" unicode="A" 
d="M94 0h-97l200 724h98l208 -724h-96l-63 214h-192zM246 564l-71 -258h145l-72 258h-2z" />
    <glyph glyph-name="B" unicode="B" horiz-adv-x="556" 
d="M70 0v724h201c147 0 215 -78 215 -194c0 -66 -26 -133 -100 -151v-2c86 -10 131 -83 131 -169c0 -150 -97 -208 -226 -208h-221zM172 326v-234h117c88 0 126 40 126 117c0 65 -48 117 -132 117h-111zM172 632v-214h93c64 0 119 34 119 107s-55 107 -119 107h-93z" />
    <glyph glyph-name="C" unicode="C" horiz-adv-x="556" 
d="M525 446h-96c-12 102 -40 206 -144 206c-93 0 -147 -114 -147 -290s54 -290 147 -290c118 0 133 100 143 201h96c0 -165 -67 -285 -239 -285c-137 0 -249 120 -249 374s112 374 249 374c172 0 228 -128 240 -290z" />
    <glyph glyph-name="D" unicode="D" horiz-adv-x="611" 
d="M70 0v724h215c210 0 289 -164 289 -362s-79 -362 -289 -362h-215zM172 632v-540h97c159 0 203 121 203 270s-44 270 -203 270h-97z" />
    <glyph glyph-name="E" unicode="E" 
d="M434 0h-364v724h364v-92h-262v-208h262v-92h-262v-240h262v-92z" />
    <glyph glyph-name="F" unicode="F" horiz-adv-x="444" 
d="M70 724h344v-92h-242v-208h242v-92h-242v-332h-102v724z" />
    <glyph glyph-name="G" unicode="G" horiz-adv-x="611" 
d="M555 483h-104c-12 92 -51 169 -146 169c-117 0 -167 -132 -167 -290s50 -290 171 -290c123 0 152 86 152 208h-205v92h307v-90c0 -184 -84 -294 -254 -294c-174 0 -273 148 -273 374s99 374 269 374c149 0 244 -116 250 -253z" />
    <glyph glyph-name="H" unicode="H" horiz-adv-x="611" 
d="M172 0h-102v724h102v-300h267v300h102v-724h-102v332h-267v-332z" />
    <glyph glyph-name="I" unicode="I" horiz-adv-x="222" 
d="M162 0h-102v724h102v-724z" />
    <glyph glyph-name="J" unicode="J" horiz-adv-x="444" 
d="M8 209h102c0 -110 36 -137 85 -137c48 0 87 30 87 116v536h102v-537c0 -128 -64 -199 -192 -199c-136 0 -184 100 -184 221z" />
    <glyph glyph-name="K" unicode="K" horiz-adv-x="556" 
d="M172 0h-102v724h102v-339h2l240 339h112l-199 -281l229 -443h-117l-181 360l-86 -124v-236z" />
    <glyph glyph-name="L" unicode="L" horiz-adv-x="444" 
d="M430 0h-360v724h102v-632h258v-92z" />
    <glyph glyph-name="M" unicode="M" horiz-adv-x="722" 
d="M166 0h-96v724h143l152 -528h2l140 528h145v-724h-96v554h-2l-148 -554h-80l-158 554h-2v-554z" />
    <glyph glyph-name="N" unicode="N" horiz-adv-x="611" 
d="M172 0h-96v724h102l258 -516h2v516h96v-724h-94l-266 536h-2v-536z" />
    <glyph glyph-name="O" unicode="O" horiz-adv-x="611" 
d="M305 736c170 0 269 -148 269 -374s-99 -374 -269 -374s-269 148 -269 374s99 374 269 374zM305 652c-117 0 -167 -132 -167 -290s50 -290 167 -290s167 132 167 290s-50 290 -167 290z" />
    <glyph glyph-name="P" unicode="P" horiz-adv-x="556" 
d="M172 632v-264h106c84 0 133 48 133 132s-49 132 -132 132h-107zM172 0h-102v724h226c129 0 217 -88 217 -224s-88 -224 -218 -224h-123v-276z" />
    <glyph glyph-name="Q" unicode="Q" horiz-adv-x="611" 
d="M588 82v-87c-20 -5 -40 -7 -61 -7c-45 0 -77 13 -101 31c-35 -20 -75 -31 -121 -31c-170 0 -269 148 -269 374s99 374 269 374s269 -148 269 -374c0 -114 -25 -209 -72 -274c12 -6 25 -10 40 -10c18 0 33 2 46 4zM218 262c102 0 161 -61 210 -111c30 53 44 129 44 211
c0 158 -50 290 -167 290s-167 -132 -167 -290c0 -38 3 -75 9 -108c22 5 41 8 71 8zM305 72c22 0 41 5 57 12c-36 44 -72 88 -147 88c-12 0 -24 -1 -41 -6c27 -58 69 -94 131 -94z" />
    <glyph glyph-name="R" unicode="R" horiz-adv-x="556" 
d="M172 0h-102v724h202c119 0 237 -69 237 -214c0 -114 -50 -203 -165 -218l206 -292h-122l-248 370h80c80 0 147 40 147 124c0 86 -55 138 -143 138h-92v-632z" />
    <glyph glyph-name="S" unicode="S" 
d="M24 223h102c0 -83 30 -151 123 -151c83 0 124 46 124 123c0 179 -336 85 -336 342c0 119 90 199 207 199c134 0 213 -77 217 -211h-102c-1 69 -36 127 -112 127c-63 0 -108 -46 -108 -108c0 -173 336 -68 336 -343c0 -140 -101 -213 -219 -213c-162 0 -231 93 -232 235z
" />
    <glyph glyph-name="T" unicode="T" horiz-adv-x="444" 
d="M16 724h412v-92h-155v-632h-102v632h-155v92z" />
    <glyph glyph-name="U" unicode="U" horiz-adv-x="556" 
d="M398 724h102v-513c0 -131 -69 -223 -222 -223s-222 92 -222 223v513h102v-531c0 -74 50 -113 120 -113s120 39 120 113v531z" />
    <glyph glyph-name="V" unicode="V" 
d="M251 152l152 572h98l-204 -724h-94l-204 724h97l153 -572h2z" />
    <glyph glyph-name="W" unicode="W" horiz-adv-x="833" 
d="M367 724h98l128 -582h2l128 582h102l-180 -724h-98l-130 574h-2l-130 -574h-98l-180 724h102l128 -582h2z" />
    <glyph glyph-name="X" unicode="X" 
d="M251 483l110 241h109l-167 -336l195 -388h-109l-140 282l-139 -282h-109l192 388l-168 336h109z" />
    <glyph glyph-name="Y" unicode="Y" 
d="M250 404l142 320h108l-199 -432v-292h-102v292l-199 432h107z" />
    <glyph glyph-name="Z" unicode="Z" horiz-adv-x="444" 
d="M17 84l279 548h-255v92h377v-93l-281 -539h290v-92h-410v84z" />
    <glyph glyph-name="bracketleft" unicode="[" horiz-adv-x="389" 
d="M344 -210h-256v934h256v-74h-170v-786h170v-74z" />
    <glyph glyph-name="backslash" unicode="\" horiz-adv-x="278" 
d="M70 736l223 -748h-85l-223 748h85z" />
    <glyph glyph-name="bracketright" unicode="]" horiz-adv-x="389" 
d="M45 724h256v-934h-256v74h170v786h-170v74z" />
    <glyph glyph-name="asciicircum" unicode="^" horiz-adv-x="600" 
d="M259 724h82l183 -378h-92l-132 276l-132 -276h-92z" />
    <glyph glyph-name="underscore" unicode="_" 
d="M500 -125h-500v50h500v-50z" />
    <glyph glyph-name="quoteleft" unicode="&#x2018;" horiz-adv-x="222" 
d="M107 736l88 -220h-67l-101 220h80z" />
    <glyph glyph-name="a" unicode="a" 
d="M344 217v118c0 95 -42 143 -102 143s-112 -44 -112 -192c0 -166 45 -204 107 -204c63 0 107 41 107 135zM440 560v-560h-82v80h-2c-22 -58 -47 -90 -126 -90c-131 0 -196 108 -196 290c0 149 57 290 196 290c61 0 104 -26 126 -102h2v92h82z" />
    <glyph glyph-name="b" unicode="b" 
d="M156 335v-118c0 -94 44 -135 107 -135c62 0 107 38 107 204c0 148 -52 192 -112 192s-102 -48 -102 -143zM60 0v724h96v-216h3c17 32 54 62 111 62c139 0 196 -141 196 -290c0 -182 -65 -290 -196 -290c-79 0 -104 32 -126 90h-2v-80h-82z" />
    <glyph glyph-name="c" unicode="c" horiz-adv-x="444" 
d="M422 359h-96c-5 53 -29 119 -96 119c-66 0 -100 -60 -100 -199c0 -125 32 -197 104 -197c74 0 85 67 92 124h96c-3 -115 -63 -216 -191 -216c-142 0 -197 141 -197 290s55 290 197 290c131 0 183 -103 191 -211z" />
    <glyph glyph-name="d" unicode="d" 
d="M344 217v118c0 95 -42 143 -102 143s-112 -44 -112 -192c0 -166 45 -204 107 -204c63 0 107 41 107 135zM440 724v-724h-82v80h-2c-22 -58 -47 -90 -126 -90c-131 0 -196 108 -196 290c0 149 57 290 196 290c57 0 97 -31 111 -62h3v216h96z" />
    <glyph glyph-name="e" unicode="e" horiz-adv-x="444" 
d="M414 254h-284c0 -101 31 -172 99 -172c50 0 89 44 89 116h96c-8 -106 -78 -208 -184 -208c-114 0 -196 103 -196 290s82 290 196 290c126 0 184 -114 184 -258v-58zM132 330h186c0 106 -30 156 -91 156s-95 -50 -95 -156z" />
    <glyph glyph-name="f" unicode="f" horiz-adv-x="222" 
d="M158 476v-476h-96v476h-60v84h60v48c0 78 34 116 116 116h51v-84h-30c-26 0 -41 -12 -41 -38v-42h71v-84h-71z" />
    <glyph glyph-name="g" unicode="g" 
d="M344 225v118c0 94 -44 135 -107 135c-62 0 -107 -38 -107 -204c0 -148 52 -192 112 -192s102 48 102 143zM358 560h82v-584c0 -126 -94 -174 -191 -174c-115 0 -209 56 -209 177h96c4 -54 49 -85 104 -85c56 0 108 8 108 102v76h-3c-18 -51 -58 -82 -115 -82
c-139 0 -196 141 -196 290c0 182 65 290 196 290c79 0 104 -32 126 -90h2v80z" />
    <glyph glyph-name="h" unicode="h" 
d="M156 0h-96v724h98v-220h2c22 38 52 66 120 66c102 0 160 -68 160 -178v-392h-96v362c0 80 -28 116 -84 116c-52 0 -104 -37 -104 -116v-362z" />
    <glyph glyph-name="i" unicode="i" horiz-adv-x="222" 
d="M159 0h-96v560h96v-560zM63 622v102h96v-102h-96z" />
    <glyph glyph-name="j" unicode="j" horiz-adv-x="222" 
d="M-31 -204v92h49c30 0 48 14 48 50v622h96v-631c0 -103 -55 -133 -137 -133h-56zM162 622h-96v102h96v-102z" />
    <glyph glyph-name="k" unicode="k" horiz-adv-x="444" 
d="M156 0h-96v724h96v-412h2l176 248h107l-149 -206l167 -354h-105l-127 273l-71 -99v-174z" />
    <glyph glyph-name="l" unicode="l" horiz-adv-x="222" 
d="M159 0h-96v724h96v-724z" />
    <glyph glyph-name="m" unicode="m" horiz-adv-x="778" 
d="M60 0v560h92v-70h2c16 43 56 80 127 80c57 0 101 -20 134 -71c30 49 80 71 140 71c95 0 163 -46 163 -190v-380h-96v376c0 74 -28 102 -84 102c-69 0 -101 -42 -101 -126v-352h-96v376c0 74 -30 102 -85 102c-69 0 -100 -42 -100 -126v-352h-96z" />
    <glyph glyph-name="n" unicode="n" 
d="M156 0h-96v560h86v-70h2c30 58 64 80 132 80c102 0 160 -68 160 -178v-392h-96v362c0 80 -28 116 -84 116c-52 0 -104 -37 -104 -116v-362z" />
    <glyph glyph-name="o" unicode="o" 
d="M466 280c0 -178 -76 -290 -216 -290s-216 112 -216 290s76 290 216 290s216 -112 216 -290zM370 280c0 152 -44 206 -120 206s-120 -54 -120 -206s44 -206 120 -206s120 54 120 206z" />
    <glyph glyph-name="p" unicode="p" 
d="M156 343v-118c0 -95 42 -143 102 -143s112 44 112 192c0 166 -45 204 -107 204c-63 0 -107 -41 -107 -135zM60 -198v758h86v-80h2c14 56 43 90 122 90c131 0 196 -108 196 -290c0 -149 -57 -290 -196 -290c-57 0 -97 31 -111 62h-3v-250h-96z" />
    <glyph glyph-name="q" unicode="q" 
d="M344 225v118c0 94 -44 135 -107 135c-62 0 -107 -38 -107 -204c0 -148 52 -192 112 -192s102 48 102 143zM440 560v-758h-96v270h-3c-14 -51 -54 -82 -111 -82c-139 0 -196 141 -196 290c0 182 65 290 196 290c79 0 104 -32 126 -90h2v80h82z" />
    <glyph glyph-name="r" unicode="r" horiz-adv-x="278" 
d="M156 0h-96v560h85v-62h2c24 53 66 72 128 72v-98c-94 -2 -119 -62 -119 -137v-335z" />
    <glyph glyph-name="s" unicode="s" horiz-adv-x="389" 
d="M364 397h-90c-5 51 -29 81 -84 81c-46 0 -70 -24 -70 -64c0 -112 244 -46 244 -250c0 -112 -68 -174 -172 -174s-175 82 -175 181h90c2 -54 36 -89 92 -89c47 0 75 28 75 75c0 121 -244 51 -244 249c0 103 64 164 165 164s168 -73 169 -173z" />
    <glyph glyph-name="t" unicode="t" horiz-adv-x="222" 
d="M222 476h-63v-476h-96v476h-63v84h63v134h96v-134h63v-84z" />
    <glyph glyph-name="u" unicode="u" 
d="M344 560h96v-560h-86v84h-2c-20 -66 -64 -94 -132 -94c-102 0 -160 68 -160 178v392h96v-362c0 -80 28 -116 84 -116c52 0 104 37 104 116v362z" />
    <glyph glyph-name="v" unicode="v" horiz-adv-x="444" 
d="M170 0l-164 560h100l115 -432h2l115 432h100l-164 -560h-104z" />
    <glyph glyph-name="w" unicode="w" horiz-adv-x="667" 
d="M291 560h84l105 -462h2l78 462h95l-127 -560h-106l-88 452h-2l-88 -452h-106l-127 560h95l78 -462h2z" />
    <glyph glyph-name="x" unicode="x" horiz-adv-x="444" 
d="M330 0l-112 196l-107 -196h-110l162 289l-153 271h110l98 -192l97 192h110l-149 -271l167 -289h-113z" />
    <glyph glyph-name="y" unicode="y" horiz-adv-x="444" 
d="M438 560l-232 -758h-100l63 213l-163 545h99l117 -399h2l114 399h100z" />
    <glyph glyph-name="z" unicode="z" horiz-adv-x="444" 
d="M410 92v-92h-376v90l254 378h-235v92h349v-92l-258 -376h266z" />
    <glyph glyph-name="braceleft" unicode="{" horiz-adv-x="389" 
d="M43 232v62c37 4 65 26 65 88v238c0 50 28 118 102 116h154v-74h-118c-39 0 -52 -22 -52 -58v-242c0 -80 -36 -93 -59 -98v-2c23 -5 59 -18 59 -98v-242c0 -36 13 -58 52 -58h118v-74h-154c-74 -2 -102 66 -102 116v238c0 62 -28 84 -65 88z" />
    <glyph glyph-name="bar" unicode="|" horiz-adv-x="222" 
d="M69 -12v748h84v-748h-84z" />
    <glyph glyph-name="braceright" unicode="}" horiz-adv-x="389" 
d="M346 294v-62c-37 -4 -65 -26 -65 -88v-238c0 -50 -28 -118 -102 -116h-154v74h118c39 0 52 22 52 58v242c0 80 36 93 59 98v2c-23 5 -59 18 -59 98v242c0 36 -13 58 -52 58h-118v74h154c74 2 102 -66 102 -116v-238c0 -62 28 -84 65 -88z" />
    <glyph glyph-name="asciitilde" unicode="~" horiz-adv-x="600" 
d="M495 337l36 -78c-22 -42 -58 -86 -125 -86c-34 0 -73 15 -111 32c-37 16 -75 36 -102 36c-40 0 -65 -37 -88 -72l-36 78c22 42 58 86 125 86c34 0 73 -15 111 -32c37 -16 75 -36 102 -36c40 0 65 37 88 72z" />
    <glyph glyph-name="exclamdown" unicode="&#xa1;" horiz-adv-x="222" 
d="M162 378v-542h-102v542h102zM63 560h96v-124h-96v124z" />
    <glyph glyph-name="cent" unicode="&#xa2;" horiz-adv-x="556" 
d="M368 284h96c-4 -101 -51 -191 -149 -211v-99h-74v97c-120 18 -167 149 -167 287s47 269 167 288v104h74v-106c98 -21 137 -112 144 -207h-96c-5 53 -26 119 -93 119c-66 0 -100 -60 -100 -199c0 -125 32 -197 104 -197c74 0 85 67 94 124z" />
    <glyph glyph-name="sterling" unicode="&#xa3;" horiz-adv-x="556" 
d="M123 326h-114v84h59c-21 30 -30 63 -30 97c0 129 104 227 231 227c117 0 208 -88 221 -202h-96c-14 68 -60 110 -131 110c-73 0 -129 -57 -129 -130c0 -37 13 -70 33 -102h217v-84h-158c39 -37 63 -91 63 -145c0 -31 -16 -62 -32 -89h51c72 0 126 42 126 117
c0 17 -2 35 -4 53h98c2 -18 8 -36 8 -56c0 -94 -66 -206 -220 -206h-277v92h120c17 29 28 52 28 94c0 50 -29 88 -64 140z" />
    <glyph glyph-name="fraction" unicode="&#x2044;" horiz-adv-x="167" 
d="M253 736h81l-419 -748h-82z" />
    <glyph glyph-name="yen" unicode="&#xa5;" horiz-adv-x="556" 
d="M510 392h-146l-35 -76v-4h181v-84h-181v-228h-102v228h-179v84h179v4l-35 76h-144v84h106l-114 248h96l142 -320l142 320h96l-114 -248h108v-84z" />
    <glyph glyph-name="florin" unicode="&#x192;" horiz-adv-x="556" 
d="M228 354h-128l6 84h126c7 201 60 298 196 298c39 0 74 -12 106 -24l-22 -90c-23 6 -50 18 -80 18c-58 0 -92 -53 -92 -202h135l-5 -84h-137l-12 -263c-9 -204 -71 -295 -199 -295c-38 0 -74 6 -107 22l27 92c20 -10 43 -18 66 -18c72 0 95 50 102 161z" />
    <glyph glyph-name="section" unicode="&#xa7;" horiz-adv-x="444" 
d="M182 300c49 -55 80 -75 102 -75c31 0 49 14 49 44c0 34 -41 70 -78 108c-60 62 -64 74 -98 74c-21 0 -47 -17 -47 -45c0 -38 31 -60 72 -106zM374 656l-61 -44c-23 34 -46 58 -90 58c-31 0 -55 -24 -55 -52c0 -78 247 -224 247 -338c0 -72 -44 -113 -112 -113
c32 -37 57 -74 57 -126c0 -72 -72 -121 -142 -121c-65 0 -118 33 -159 86l60 47c20 -29 54 -67 92 -67c36 0 63 27 63 69c0 81 -246 231 -246 343c0 67 53 103 108 111c-24 32 -54 64 -54 107c0 81 76 120 149 120c59 0 108 -36 143 -80z" />
    <glyph glyph-name="currency" unicode="&#xa4;" horiz-adv-x="556" 
d="M24 566l50 49l56 -56c38 32 95 50 148 50s110 -18 148 -50l56 56l50 -49l-58 -58c37 -37 52 -93 52 -146s-15 -109 -52 -146l58 -58l-50 -49l-56 56c-38 -32 -95 -50 -148 -50s-110 18 -148 50l-56 -56l-50 49l58 58c-37 37 -52 93 -52 146s15 109 52 146zM118 362
c0 -91 71 -167 160 -167s160 76 160 167s-71 167 -160 167s-160 -76 -160 -167z" />
    <glyph glyph-name="quotesingle" unicode="'" horiz-adv-x="222" 
d="M70 476v248h82v-248h-82z" />
    <glyph glyph-name="quotedblleft" unicode="&#x201c;" horiz-adv-x="333" 
d="M227 736l88 -220h-67l-101 220h80zM97 736l88 -220h-67l-101 220h80z" />
    <glyph glyph-name="guillemotleft" unicode="&#xab;" horiz-adv-x="444" 
d="M246 461l-136 -181l136 -181h-88l-136 181l136 181h88zM422 461l-136 -181l136 -181h-88l-136 181l136 181h88z" />
    <glyph glyph-name="guilsinglleft" unicode="&#x2039;" horiz-adv-x="278" 
d="M256 461l-136 -181l136 -181h-88l-136 181l136 181h88z" />
    <glyph glyph-name="guilsinglright" unicode="&#x203a;" horiz-adv-x="278" 
d="M22 99l136 181l-136 181h88l136 -181l-136 -181h-88z" />
    <glyph glyph-name="fi" unicode="&#xfb01;" horiz-adv-x="444" 
d="M158 476v-476h-96v476h-60v84h60v48c0 78 34 116 116 116h51v-84h-30c-26 0 -41 -12 -41 -38v-42h71v-84h-71zM381 0h-96v560h96v-560zM285 622v102h96v-102h-96z" />
    <glyph glyph-name="fl" unicode="&#xfb02;" horiz-adv-x="444" 
d="M158 476v-476h-96v476h-60v84h60v48c0 78 34 116 116 116h51v-84h-30c-26 0 -41 -12 -41 -38v-42h71v-84h-71zM381 0h-96v724h96v-724z" />
    <glyph glyph-name="endash" unicode="&#x2013;" 
d="M0 249v62h500v-62h-500z" />
    <glyph glyph-name="dagger" unicode="&#x2020;" horiz-adv-x="444" 
d="M40 472v92l164 -28l-25 200h86l-25 -200l164 28v-92l-164 26l27 -168l-30 -410h-30l-30 410l27 168z" />
    <glyph glyph-name="daggerdbl" unicode="&#x2021;" horiz-adv-x="444" 
d="M239 502l28 -174l-25 -176l162 29v-95l-165 28l28 -194h-88l23 194l-162 -28v95l162 -29l-28 176l28 174l-162 -26v94l162 -28l-23 194h88l-25 -194l162 26v-98z" />
    <glyph glyph-name="periodcentered" unicode="&#xb7;" horiz-adv-x="278" 
d="M139 308c30 0 55 -26 55 -55s-25 -55 -55 -55s-55 26 -55 55s25 55 55 55z" />
    <glyph glyph-name="paragraph" unicode="&#xb6;" horiz-adv-x="600" 
d="M260 -80v434c-134 0 -211 77 -211 182c0 134 86 188 221 188h218v-804h-82v742h-64v-742h-82z" />
    <glyph glyph-name="bullet" unicode="&#x2022;" 
d="M69 362c-1 100 79 181 181 181s182 -81 181 -181c1 -100 -79 -181 -181 -181s-182 81 -181 181z" />
    <glyph glyph-name="quotesinglbase" unicode="&#x201a;" horiz-adv-x="222" 
d="M27 -96l88 220h80l-101 -220h-67z" />
    <glyph glyph-name="quotedblbase" unicode="&#x201e;" horiz-adv-x="333" 
d="M18 -96l88 220h80l-101 -220h-67zM148 -96l88 220h80l-101 -220h-67z" />
    <glyph glyph-name="quotedblright" unicode="&#x201d;" horiz-adv-x="333" 
d="M18 516l88 220h80l-101 -220h-67zM148 516l88 220h80l-101 -220h-67z" />
    <glyph glyph-name="guillemotright" unicode="&#xbb;" horiz-adv-x="444" 
d="M198 99l136 181l-136 181h88l136 -181l-136 -181h-88zM22 99l136 181l-136 181h88l136 -181l-136 -181h-88z" />
    <glyph glyph-name="ellipsis" unicode="&#x2026;" horiz-adv-x="1000" 
d="M215 0h-96v124h96v-124zM548 0h-96v124h96v-124zM881 0h-96v124h96v-124z" />
    <glyph glyph-name="perthousand" unicode="&#x2030;" horiz-adv-x="1000" 
d="M158 736c106 0 158 -77 158 -179s-52 -179 -158 -179s-158 77 -158 179s52 179 158 179zM158 664c-42 0 -76 -33 -76 -107s34 -107 76 -107s76 33 76 107s-34 107 -76 107zM493 346c106 0 158 -77 158 -179s-52 -179 -158 -179s-158 77 -158 179s52 179 158 179zM493 274
c-42 0 -76 -33 -76 -107s34 -107 76 -107s76 33 76 107s-34 107 -76 107zM843 346c106 0 158 -77 158 -179s-52 -179 -158 -179s-158 77 -158 179s52 179 158 179zM843 274c-42 0 -76 -33 -76 -107s34 -107 76 -107s76 33 76 107s-34 107 -76 107zM180 -12h-78l368 748h79z
" />
    <glyph glyph-name="questiondown" unicode="&#xbf;" horiz-adv-x="444" 
d="M185 378h96v-110c0 -124 -156 -146 -156 -246c0 -74 34 -106 99 -106c51 0 96 26 96 99v37h102v-50c0 -94 -69 -178 -201 -178c-125 0 -198 85 -198 188c0 178 162 192 162 270v96zM185 560h96v-124h-96v124z" />
    <glyph glyph-name="grave" unicode="`" horiz-adv-x="222" 
d="M89 764l89 -142h-67l-131 142h109z" />
    <glyph glyph-name="acute" unicode="&#xb4;" horiz-adv-x="222" 
d="M44 622l89 142h109l-131 -142h-67z" />
    <glyph glyph-name="circumflex" unicode="&#x2c6;" horiz-adv-x="222" 
d="M-34 622l99 142h91l100 -142h-79l-66 94l-66 -94h-79z" />
    <glyph glyph-name="tilde" unicode="&#x2dc;" horiz-adv-x="222" 
d="M231 749h50c-4 -51 -42 -109 -98 -109c-26 0 -52 10 -78 19s-51 19 -72 19c-23 0 -39 -25 -42 -45h-50c3 58 43 107 104 107c27 0 51 -9 74 -18c22 -9 43 -18 65 -18c29 0 44 17 47 45z" />
    <glyph glyph-name="macron" unicode="&#xaf;" horiz-adv-x="222" 
d="M266 657h-310v58h310v-58z" />
    <glyph glyph-name="breve" unicode="&#x2d8;" horiz-adv-x="222" 
d="M-43 764h50c8 -55 53 -78 104 -78s96 23 104 78h50c-3 -88 -65 -136 -154 -136s-151 48 -154 136z" />
    <glyph glyph-name="dotaccent" unicode="&#x2d9;" horiz-adv-x="222" 
d="M156 638h-90v98h90v-98z" />
    <glyph glyph-name="dieresis" unicode="&#xa8;" horiz-adv-x="222" 
d="M74 638h-90v98h90v-98zM238 638h-90v98h90v-98z" />
    <glyph glyph-name="ring" unicode="&#x2da;" horiz-adv-x="222" 
d="M110 622c-60 0 -108 48 -108 108s48 110 108 110c59 0 110 -50 110 -110s-51 -108 -110 -108zM110 792c-34 0 -60 -28 -60 -62s26 -60 60 -60s62 26 62 60s-28 62 -62 62z" />
    <glyph glyph-name="cedilla" unicode="&#xb8;" horiz-adv-x="222" 
d="M58 -107l-17 20l63 87h48l-43 -57c12 2 23 4 35 4c48 0 77 -35 77 -80c0 -66 -60 -93 -117 -93c-34 0 -67 9 -98 22l17 43c21 -7 43 -13 63 -13c38 0 59 8 59 35c0 28 -24 40 -49 40c-13 0 -26 -3 -38 -8z" />
    <glyph glyph-name="hungarumlaut" unicode="&#x2dd;" horiz-adv-x="222" 
d="M-22 622l79 142h109l-125 -142h-63zM124 622l89 142h109l-131 -142h-67z" />
    <glyph glyph-name="ogonek" unicode="&#x2db;" horiz-adv-x="222" 
d="M243 -119l16 -36c-40 -28 -97 -57 -147 -57c-55 0 -100 26 -100 87c0 90 104 122 223 145v-10c-83 -27 -147 -69 -147 -122c0 -35 21 -48 57 -48c29 0 73 25 98 41z" />
    <glyph glyph-name="caron" unicode="&#x2c7;" horiz-adv-x="222" 
d="M256 764l-99 -142h-91l-100 142h79l66 -94l66 94h79z" />
    <glyph glyph-name="emdash" unicode="&#x2014;" horiz-adv-x="1000" 
d="M0 249v62h1000v-62h-1000z" />
    <glyph glyph-name="AE" unicode="&#xc6;" horiz-adv-x="833" 
d="M87 0h-105l359 724h426v-92h-271v-208h271v-92h-271v-240h271v-92h-373v214h-206zM234 306h160v326h-2z" />
    <glyph glyph-name="ordfeminine" unicode="&#xaa;" horiz-adv-x="300" 
d="M202 532v55c0 53 -18 85 -57 85c-35 0 -61 -30 -61 -106c0 -88 28 -114 58 -114c41 0 60 28 60 80zM277 730v-336h-58v48h-2c-14 -35 -30 -54 -81 -54c-86 0 -128 65 -128 174c0 89 37 174 128 174c39 0 67 -16 81 -61h2v55h58z" />
    <glyph glyph-name="Lslash" unicode="&#x141;" horiz-adv-x="444" 
d="M172 325v-233h258v-92h-360v283l-69 -28v88l69 28v353h102v-311l176 71v-88z" />
    <glyph glyph-name="Oslash" unicode="&#xd8;" horiz-adv-x="611" 
d="M160 201l250 400c-27 32 -61 51 -105 51c-117 0 -167 -132 -167 -290c0 -58 7 -113 22 -161zM450 524l-251 -400c26 -33 61 -52 106 -52c117 0 167 132 167 290c0 59 -7 115 -22 162zM95 -42h-87l91 145c-41 65 -63 153 -63 259c0 226 99 374 269 374
c62 0 114 -19 155 -55l53 85h89l-91 -145c41 -63 63 -153 63 -259c0 -226 -99 -374 -269 -374c-62 0 -114 20 -156 56z" />
    <glyph glyph-name="OE" unicode="&#x152;" horiz-adv-x="889" 
d="M472 646v78h351v-92h-253v-208h253v-92h-253v-240h253v-92h-351v73h-2c-45 -63 -98 -85 -170 -85c-178 0 -270 136 -270 374c0 210 92 374 270 374c79 0 135 -33 170 -90h2zM468 362c0 178 -49 290 -168 290s-168 -132 -168 -290c0 -178 49 -290 168 -290
s168 112 168 290z" />
    <glyph glyph-name="ordmasculine" unicode="&#xba;" horiz-adv-x="300" 
d="M151 736c93 0 140 -61 140 -174s-47 -174 -140 -174c-94 0 -142 61 -142 174s48 174 142 174zM151 680c-41 0 -60 -39 -60 -118s19 -118 60 -118c39 0 58 39 58 118s-19 118 -58 118z" />
    <glyph glyph-name="ae" unicode="&#xe6;" horiz-adv-x="778" 
d="M344 217v118c0 95 -42 143 -102 143s-112 -44 -112 -192c0 -166 45 -204 107 -204c63 0 107 41 107 135zM744 254h-304c0 -101 39 -172 113 -172c56 0 95 44 95 116h96c-8 -106 -78 -208 -184 -208c-55 0 -98 24 -118 91h-2v-81h-82v80h-2c-22 -56 -47 -90 -126 -90
c-131 0 -196 108 -196 290c0 149 57 290 196 290c61 0 107 -31 125 -88h3v78h82v-81h2c21 67 63 91 118 91c122 0 184 -114 184 -258v-58zM440 330h208c0 106 -34 156 -99 156s-109 -50 -109 -156z" />
    <glyph glyph-name="dotlessi" unicode="&#x131;" horiz-adv-x="222" 
d="M159 0h-96v560h96v-560z" />
    <glyph glyph-name="lslash" unicode="&#x142;" horiz-adv-x="222" 
d="M159 383v-383h-96v333l-60 -31v80l60 31v311h96v-261l60 31v-80z" />
    <glyph glyph-name="oslash" unicode="&#xf8;" 
d="M354 407l-169 -313c17 -14 39 -20 65 -20c76 0 120 54 120 206c0 55 -6 97 -16 127zM146 156l167 312c-17 13 -38 18 -63 18c-76 0 -120 -54 -120 -206c0 -53 5 -94 16 -124zM478 636l-74 -136c41 -50 62 -126 62 -220c0 -178 -76 -290 -216 -290c-41 0 -76 10 -106 29
l-51 -95h-71l73 137c-40 51 -61 126 -61 219c0 178 76 290 216 290c40 0 75 -9 104 -26l49 92h75z" />
    <glyph glyph-name="oe" unicode="&#x153;" horiz-adv-x="778" 
d="M130 280c0 -152 44 -206 108 -206c66 0 112 54 112 206s-46 206 -112 206c-64 0 -108 -54 -108 -206zM744 254h-298c0 -101 39 -172 107 -172c56 0 95 44 95 116h96c-8 -106 -78 -208 -190 -208c-67 0 -124 39 -157 114c-33 -73 -89 -114 -159 -114
c-128 0 -204 112 -204 290s76 290 204 290c70 0 126 -41 159 -114c34 75 92 114 163 114c122 0 184 -114 184 -258v-58zM448 330h200c0 106 -40 156 -100 156c-58 0 -100 -50 -100 -156z" />
    <glyph glyph-name="germandbls" unicode="&#xdf;" horiz-adv-x="556" 
d="M154 0h-94v518c0 116 81 206 214 206c117 0 203 -77 203 -196c0 -72 -30 -134 -106 -151v-2c94 -8 151 -83 151 -176c0 -112 -81 -209 -207 -209c-77 0 -127 25 -159 94h-2v-84zM156 512v-303h33c0 -69 46 -127 114 -127c84 0 123 48 123 124c0 92 -72 120 -165 120h-24
v76h26c74 0 118 42 118 122c0 69 -44 118 -112 118c-66 0 -113 -38 -113 -130z" />
    <glyph glyph-name="onesuperior" unicode="&#xb9;" horiz-adv-x="333" 
d="M66 728h155v-434h-78v372h-77v62z" />
    <glyph glyph-name="logicalnot" unicode="&#xac;" horiz-adv-x="600" 
d="M469 106v210h-422v84h506v-294h-84z" />
    <glyph glyph-name="mu" unicode="&#xb5;" 
d="M344 560h96v-560h-86v84h-2c-20 -66 -64 -94 -132 -94c-24 0 -45 4 -64 11v-199h-96v758h96v-362c0 -80 28 -116 84 -116c52 0 104 37 104 116v362z" />
    <glyph glyph-name="trademark" unicode="&#x2122;" horiz-adv-x="990" 
d="M414 724v-62h-125v-350h-82v350h-125v62h332zM567 724l113 -292l112 292h116v-412h-76v324h-2l-123 -324h-56l-123 324h-2v-324h-76v412h117z" />
    <glyph glyph-name="Eth" unicode="&#xd0;" horiz-adv-x="611" 
d="M-14 426h84v298h215c210 0 289 -164 289 -362s-79 -362 -289 -362h-215v334h-84v92zM172 426h178v-92h-178v-242h97c159 0 203 121 203 270s-44 270 -203 270h-97v-206z" />
    <glyph glyph-name="onehalf" unicode="&#xbd;" horiz-adv-x="834" 
d="M545 736h81l-379 -748h-82zM94 728h155v-434h-78v372h-77v62zM770 0h-287v61c167 184 209 191 209 259c0 30 -21 54 -67 54c-47 0 -72 -31 -71 -70h-74c0 86 57 138 155 138c75 0 135 -50 135 -120c0 -76 -21 -97 -183 -254h183v-68z" />
    <glyph glyph-name="plusminus" unicode="&#xb1;" horiz-adv-x="600" 
d="M258 354v152h84v-152h211v-84h-211v-152h-84v152h-211v84h211zM47 0v84h506v-84h-506z" />
    <glyph glyph-name="Thorn" unicode="&#xde;" horiz-adv-x="556" 
d="M172 500v-264h107c83 0 132 48 132 132s-49 132 -132 132h-107zM172 724v-132h124c129 0 217 -88 217 -224s-88 -224 -217 -224h-124v-144h-102v724h102z" />
    <glyph glyph-name="onequarter" unicode="&#xbc;" horiz-adv-x="834" 
d="M656 158v152h-2l-95 -152h97zM477 90v77l172 263h85v-272h51v-68h-51v-90h-78v90h-179zM581 736h81l-379 -748h-82zM94 728h155v-434h-78v372h-77v62z" />
    <glyph glyph-name="divide" unicode="&#xf7;" horiz-adv-x="600" 
d="M553 211h-506v84h506v-84zM300 532c38 0 72 -32 72 -72s-34 -72 -72 -72s-72 32 -72 72s34 72 72 72zM300 118c38 0 72 -32 72 -72s-34 -72 -72 -72s-72 32 -72 72s34 72 72 72z" />
    <glyph glyph-name="brokenbar" unicode="&#xa6;" horiz-adv-x="222" 
d="M69 -12v284h84v-284h-84zM69 452v284h84v-284h-84z" />
    <glyph glyph-name="degree" unicode="&#xb0;" horiz-adv-x="400" 
d="M200 500c49 0 89 44 89 94c0 49 -40 92 -89 92s-89 -43 -89 -92c0 -50 40 -94 89 -94zM200 450c-80 0 -143 63 -143 143s63 143 143 143s143 -63 143 -143s-63 -143 -143 -143z" />
    <glyph glyph-name="thorn" unicode="&#xfe;" 
d="M156 343v-118c0 -95 42 -143 102 -143s112 44 112 192c0 166 -45 204 -107 204c-63 0 -107 -41 -107 -135zM60 -198v922h96v-234h2c16 42 33 80 112 80c131 0 196 -108 196 -290c0 -149 -57 -290 -196 -290c-57 0 -97 31 -111 62h-3v-250h-96z" />
    <glyph glyph-name="threequarters" unicode="&#xbe;" horiz-adv-x="834" 
d="M656 158v152h-2l-95 -152h97zM477 90v77l172 263h85v-272h51v-68h-51v-90h-78v90h-179zM597 736h81l-379 -748h-82zM172 493v65c52 0 98 11 98 59c0 26 -24 51 -64 51c-43 0 -65 -19 -72 -54h-72c1 84 65 122 153 122c67 0 131 -45 131 -111c0 -46 -12 -77 -58 -95v-2
c48 -12 78 -56 78 -112c0 -84 -78 -130 -158 -130c-107 0 -154 50 -154 143h76c0 -43 24 -75 77 -75c51 0 83 28 83 67c0 47 -42 73 -97 73c-7 0 -13 0 -21 -1z" />
    <glyph glyph-name="twosuperior" unicode="&#xb2;" horiz-adv-x="333" 
d="M311 294h-287v61c167 184 209 191 209 259c0 30 -21 54 -67 54c-47 0 -72 -31 -71 -70h-74c0 86 57 138 155 138c75 0 135 -50 135 -120c0 -76 -21 -97 -183 -254h183v-68z" />
    <glyph glyph-name="registered" unicode="&#xae;" horiz-adv-x="800" 
d="M352 333v-185h-84v427h162c103 0 156 -36 156 -122c0 -78 -48 -110 -101 -117l108 -188h-88l-103 185h-50zM352 513v-118h64c63 0 88 11 88 63c0 32 -19 55 -81 55h-71zM401 -12c-204 0 -381 154 -381 375c0 219 177 373 381 373c203 0 379 -154 379 -373
c0 -221 -176 -375 -379 -375zM401 670c-167 0 -297 -133 -297 -307c0 -178 130 -309 297 -309c166 0 295 131 295 309c0 174 -129 307 -295 307z" />
    <glyph glyph-name="minus" unicode="&#x2212;" horiz-adv-x="600" 
d="M553 211h-506v84h506v-84z" />
    <glyph glyph-name="eth" unicode="&#xf0;" 
d="M250 370c-76 0 -120 -60 -120 -148c0 -95 44 -148 120 -148s120 53 120 148c0 88 -44 148 -120 148zM274 659l112 79l37 -50l-103 -73c89 -95 146 -228 146 -369c0 -164 -76 -256 -216 -256s-216 96 -216 228c0 133 76 236 216 236c27 0 47 -4 82 -14
c-16 44 -40 88 -76 130l-111 -78l-37 50l103 73c-27 24 -60 46 -98 65l35 56c45 -19 88 -45 126 -77z" />
    <glyph glyph-name="multiply" unicode="&#xd7;" horiz-adv-x="600" 
d="M360 253l193 -193l-59 -60l-194 194l-194 -194l-59 60l193 193l-193 193l59 60l194 -194l194 194l59 -60z" />
    <glyph glyph-name="threesuperior" unicode="&#xb3;" horiz-adv-x="333" 
d="M132 493v65c52 0 98 11 98 59c0 26 -24 51 -64 51c-43 0 -65 -19 -72 -54h-72c1 84 65 122 153 122c67 0 131 -45 131 -111c0 -46 -12 -77 -58 -95v-2c48 -12 78 -56 78 -112c0 -84 -78 -130 -158 -130c-107 0 -154 50 -154 143h76c0 -43 24 -75 77 -75c51 0 83 28 83 67
c0 47 -42 73 -97 73c-7 0 -13 0 -21 -1z" />
    <glyph glyph-name="copyright" unicode="&#xa9;" horiz-adv-x="800" 
d="M401 -12c-204 0 -381 154 -381 375c0 219 177 373 381 373c203 0 379 -154 379 -373c0 -221 -176 -375 -379 -375zM401 670c-167 0 -297 -133 -297 -307c0 -178 130 -309 297 -309c166 0 295 131 295 309c0 174 -129 307 -295 307zM525 294h73
c-19 -98 -93 -158 -184 -158c-133 0 -218 100 -218 228c0 130 81 226 216 226c94 0 170 -54 185 -155h-72c-10 53 -54 85 -113 85c-87 0 -134 -65 -134 -155c0 -86 52 -159 136 -159c61 0 104 35 111 88z" />
    <glyph glyph-name="Aacute" unicode="&#xc1;" 
d="M94 0h-97l200 724h98l208 -724h-96l-63 214h-192zM246 564l-71 -258h145l-72 258h-2zM183 762l89 142h109l-131 -142h-67z" />
    <glyph glyph-name="Acircumflex" unicode="&#xc2;" 
d="M94 0h-97l200 724h98l208 -724h-96l-63 214h-192zM246 564l-71 -258h145l-72 258h-2zM105 762l99 142h91l100 -142h-79l-66 94l-66 -94h-79z" />
    <glyph glyph-name="Adieresis" unicode="&#xc4;" 
d="M94 0h-97l200 724h98l208 -724h-96l-63 214h-192zM246 564l-71 -258h145l-72 258h-2zM213 778h-90v98h90v-98zM377 778h-90v98h90v-98z" />
    <glyph glyph-name="Agrave" unicode="&#xc0;" 
d="M94 0h-97l200 724h98l208 -724h-96l-63 214h-192zM246 564l-71 -258h145l-72 258h-2zM228 904l89 -142h-67l-131 142h109z" />
    <glyph glyph-name="Aring" unicode="&#xc5;" 
d="M94 0h-97l200 724h98l208 -724h-96l-63 214h-192zM246 564l-71 -258h145l-72 258h-2zM249 762c-60 0 -108 48 -108 108s48 110 108 110c59 0 110 -50 110 -110s-51 -108 -110 -108zM249 932c-34 0 -60 -28 -60 -62s26 -60 60 -60s62 26 62 60s-28 62 -62 62z" />
    <glyph glyph-name="Atilde" unicode="&#xc3;" 
d="M94 0h-97l200 724h98l208 -724h-96l-63 214h-192zM246 564l-71 -258h145l-72 258h-2zM370 889h50c-4 -51 -42 -109 -98 -109c-26 0 -52 10 -78 19s-51 19 -72 19c-23 0 -39 -25 -42 -45h-50c3 58 43 107 104 107c27 0 51 -9 74 -18c22 -9 43 -18 65 -18c29 0 44 17 47 45
z" />
    <glyph glyph-name="Ccedilla" unicode="&#xc7;" horiz-adv-x="556" 
d="M525 446h-96c-12 102 -40 206 -144 206c-93 0 -147 -114 -147 -290s54 -290 147 -290c118 0 133 100 143 201h96c0 -165 -67 -285 -239 -285c-137 0 -249 120 -249 374s112 374 249 374c172 0 228 -128 240 -290zM225 -107l-17 20l63 87h48l-43 -57c12 2 23 4 35 4
c48 0 77 -35 77 -80c0 -66 -60 -93 -117 -93c-34 0 -67 9 -98 22l17 43c21 -7 43 -13 63 -13c38 0 59 8 59 35c0 28 -24 40 -49 40c-13 0 -26 -3 -38 -8z" />
    <glyph glyph-name="Eacute" unicode="&#xc9;" 
d="M434 0h-364v724h364v-92h-262v-208h262v-92h-262v-240h262v-92zM189 762l89 142h109l-131 -142h-67z" />
    <glyph glyph-name="Ecircumflex" unicode="&#xca;" 
d="M434 0h-364v724h364v-92h-262v-208h262v-92h-262v-240h262v-92zM111 762l99 142h91l100 -142h-79l-66 94l-66 -94h-79z" />
    <glyph glyph-name="Edieresis" unicode="&#xcb;" 
d="M434 0h-364v724h364v-92h-262v-208h262v-92h-262v-240h262v-92zM219 778h-90v98h90v-98zM383 778h-90v98h90v-98z" />
    <glyph glyph-name="Egrave" unicode="&#xc8;" 
d="M434 0h-364v724h364v-92h-262v-208h262v-92h-262v-240h262v-92zM234 904l89 -142h-67l-131 142h109z" />
    <glyph glyph-name="Iacute" unicode="&#xcd;" horiz-adv-x="222" 
d="M162 0h-102v724h102v-724zM44 762l89 142h109l-131 -142h-67z" />
    <glyph glyph-name="Icircumflex" unicode="&#xce;" horiz-adv-x="222" 
d="M162 0h-102v724h102v-724zM-34 762l99 142h91l100 -142h-79l-66 94l-66 -94h-79z" />
    <glyph glyph-name="Idieresis" unicode="&#xcf;" horiz-adv-x="222" 
d="M162 0h-102v724h102v-724zM74 778h-90v98h90v-98zM238 778h-90v98h90v-98z" />
    <glyph glyph-name="Igrave" unicode="&#xcc;" horiz-adv-x="222" 
d="M162 0h-102v724h102v-724zM89 904l89 -142h-67l-131 142h109z" />
    <glyph glyph-name="Ntilde" unicode="&#xd1;" horiz-adv-x="611" 
d="M172 0h-96v724h102l258 -516h2v516h96v-724h-94l-266 536h-2v-536zM426 889h50c-4 -51 -42 -109 -98 -109c-26 0 -52 10 -78 19s-51 19 -72 19c-23 0 -39 -25 -42 -45h-50c3 58 43 107 104 107c27 0 51 -9 74 -18c22 -9 43 -18 65 -18c29 0 44 17 47 45z" />
    <glyph glyph-name="Oacute" unicode="&#xd3;" horiz-adv-x="611" 
d="M305 736c170 0 269 -148 269 -374s-99 -374 -269 -374s-269 148 -269 374s99 374 269 374zM305 652c-117 0 -167 -132 -167 -290s50 -290 167 -290s167 132 167 290s-50 290 -167 290zM239 762l89 142h109l-131 -142h-67z" />
    <glyph glyph-name="Ocircumflex" unicode="&#xd4;" horiz-adv-x="611" 
d="M305 736c170 0 269 -148 269 -374s-99 -374 -269 -374s-269 148 -269 374s99 374 269 374zM305 652c-117 0 -167 -132 -167 -290s50 -290 167 -290s167 132 167 290s-50 290 -167 290zM161 762l99 142h91l100 -142h-79l-66 94l-66 -94h-79z" />
    <glyph glyph-name="Odieresis" unicode="&#xd6;" horiz-adv-x="611" 
d="M305 736c170 0 269 -148 269 -374s-99 -374 -269 -374s-269 148 -269 374s99 374 269 374zM305 652c-117 0 -167 -132 -167 -290s50 -290 167 -290s167 132 167 290s-50 290 -167 290zM269 778h-90v98h90v-98zM433 778h-90v98h90v-98z" />
    <glyph glyph-name="Ograve" unicode="&#xd2;" horiz-adv-x="611" 
d="M305 736c170 0 269 -148 269 -374s-99 -374 -269 -374s-269 148 -269 374s99 374 269 374zM305 652c-117 0 -167 -132 -167 -290s50 -290 167 -290s167 132 167 290s-50 290 -167 290zM284 904l89 -142h-67l-131 142h109z" />
    <glyph glyph-name="Otilde" unicode="&#xd5;" horiz-adv-x="611" 
d="M305 736c170 0 269 -148 269 -374s-99 -374 -269 -374s-269 148 -269 374s99 374 269 374zM305 652c-117 0 -167 -132 -167 -290s50 -290 167 -290s167 132 167 290s-50 290 -167 290zM426 889h50c-4 -51 -42 -109 -98 -109c-26 0 -52 10 -78 19s-51 19 -72 19
c-23 0 -39 -25 -42 -45h-50c3 58 43 107 104 107c27 0 51 -9 74 -18c22 -9 43 -18 65 -18c29 0 44 17 47 45z" />
    <glyph glyph-name="Scaron" unicode="&#x160;" 
d="M24 223h102c0 -83 30 -151 123 -151c83 0 124 46 124 123c0 179 -336 85 -336 342c0 119 90 199 207 199c134 0 213 -77 217 -211h-102c-1 69 -36 127 -112 127c-63 0 -108 -46 -108 -108c0 -173 336 -68 336 -343c0 -140 -101 -213 -219 -213c-162 0 -231 93 -232 235z
M395 904l-99 -142h-91l-100 142h79l66 -94l66 94h79z" />
    <glyph glyph-name="Uacute" unicode="&#xda;" horiz-adv-x="556" 
d="M398 724h102v-513c0 -131 -69 -223 -222 -223s-222 92 -222 223v513h102v-531c0 -74 50 -113 120 -113s120 39 120 113v531zM211 762l89 142h109l-131 -142h-67z" />
    <glyph glyph-name="Ucircumflex" unicode="&#xdb;" horiz-adv-x="556" 
d="M398 724h102v-513c0 -131 -69 -223 -222 -223s-222 92 -222 223v513h102v-531c0 -74 50 -113 120 -113s120 39 120 113v531zM133 762l99 142h91l100 -142h-79l-66 94l-66 -94h-79z" />
    <glyph glyph-name="Udieresis" unicode="&#xdc;" horiz-adv-x="556" 
d="M398 724h102v-513c0 -131 -69 -223 -222 -223s-222 92 -222 223v513h102v-531c0 -74 50 -113 120 -113s120 39 120 113v531zM241 778h-90v98h90v-98zM405 778h-90v98h90v-98z" />
    <glyph glyph-name="Ugrave" unicode="&#xd9;" horiz-adv-x="556" 
d="M398 724h102v-513c0 -131 -69 -223 -222 -223s-222 92 -222 223v513h102v-531c0 -74 50 -113 120 -113s120 39 120 113v531zM256 904l89 -142h-67l-131 142h109z" />
    <glyph glyph-name="Yacute" unicode="&#xdd;" 
d="M250 404l142 320h108l-199 -432v-292h-102v292l-199 432h107zM183 762l89 142h109l-131 -142h-67z" />
    <glyph glyph-name="Ydieresis" unicode="&#x178;" 
d="M250 404l142 320h108l-199 -432v-292h-102v292l-199 432h107zM213 778h-90v98h90v-98zM377 778h-90v98h90v-98z" />
    <glyph glyph-name="Zcaron" unicode="&#x17d;" horiz-adv-x="444" 
d="M17 84l279 548h-255v92h377v-93l-281 -539h290v-92h-410v84zM367 904l-99 -142h-91l-100 142h79l66 -94l66 94h79z" />
    <glyph glyph-name="aacute" unicode="&#xe1;" 
d="M344 217v118c0 95 -42 143 -102 143s-112 -44 -112 -192c0 -166 45 -204 107 -204c63 0 107 41 107 135zM440 560v-560h-82v80h-2c-22 -58 -47 -90 -126 -90c-131 0 -196 108 -196 290c0 149 57 290 196 290c61 0 104 -26 126 -102h2v92h82zM183 622l89 142h109
l-131 -142h-67z" />
    <glyph glyph-name="acircumflex" unicode="&#xe2;" 
d="M344 217v118c0 95 -42 143 -102 143s-112 -44 -112 -192c0 -166 45 -204 107 -204c63 0 107 41 107 135zM440 560v-560h-82v80h-2c-22 -58 -47 -90 -126 -90c-131 0 -196 108 -196 290c0 149 57 290 196 290c61 0 104 -26 126 -102h2v92h82zM105 622l99 142h91l100 -142
h-79l-66 94l-66 -94h-79z" />
    <glyph glyph-name="adieresis" unicode="&#xe4;" 
d="M344 217v118c0 95 -42 143 -102 143s-112 -44 -112 -192c0 -166 45 -204 107 -204c63 0 107 41 107 135zM440 560v-560h-82v80h-2c-22 -58 -47 -90 -126 -90c-131 0 -196 108 -196 290c0 149 57 290 196 290c61 0 104 -26 126 -102h2v92h82zM213 638h-90v98h90v-98z
M377 638h-90v98h90v-98z" />
    <glyph glyph-name="agrave" unicode="&#xe0;" 
d="M344 217v118c0 95 -42 143 -102 143s-112 -44 -112 -192c0 -166 45 -204 107 -204c63 0 107 41 107 135zM440 560v-560h-82v80h-2c-22 -58 -47 -90 -126 -90c-131 0 -196 108 -196 290c0 149 57 290 196 290c61 0 104 -26 126 -102h2v92h82zM228 764l89 -142h-67
l-131 142h109z" />
    <glyph glyph-name="aring" unicode="&#xe5;" 
d="M344 217v118c0 95 -42 143 -102 143s-112 -44 -112 -192c0 -166 45 -204 107 -204c63 0 107 41 107 135zM440 560v-560h-82v80h-2c-22 -58 -47 -90 -126 -90c-131 0 -196 108 -196 290c0 149 57 290 196 290c61 0 104 -26 126 -102h2v92h82zM249 622
c-60 0 -108 48 -108 108s48 110 108 110c59 0 110 -50 110 -110s-51 -108 -110 -108zM249 792c-34 0 -60 -28 -60 -62s26 -60 60 -60s62 26 62 60s-28 62 -62 62z" />
    <glyph glyph-name="atilde" unicode="&#xe3;" 
d="M344 217v118c0 95 -42 143 -102 143s-112 -44 -112 -192c0 -166 45 -204 107 -204c63 0 107 41 107 135zM440 560v-560h-82v80h-2c-22 -58 -47 -90 -126 -90c-131 0 -196 108 -196 290c0 149 57 290 196 290c61 0 104 -26 126 -102h2v92h82zM370 749h50
c-4 -51 -42 -109 -98 -109c-26 0 -52 10 -78 19s-51 19 -72 19c-23 0 -39 -25 -42 -45h-50c3 58 43 107 104 107c27 0 51 -9 74 -18c22 -9 43 -18 65 -18c29 0 44 17 47 45z" />
    <glyph glyph-name="ccedilla" unicode="&#xe7;" horiz-adv-x="444" 
d="M422 359h-96c-5 53 -29 119 -96 119c-66 0 -100 -60 -100 -199c0 -125 32 -197 104 -197c74 0 85 67 92 124h96c-3 -115 -63 -216 -191 -216c-142 0 -197 141 -197 290s55 290 197 290c131 0 183 -103 191 -211zM169 -107l-17 20l63 87h48l-43 -57c12 2 23 4 35 4
c48 0 77 -35 77 -80c0 -66 -60 -93 -117 -93c-34 0 -67 9 -98 22l17 43c21 -7 43 -13 63 -13c38 0 59 8 59 35c0 28 -24 40 -49 40c-13 0 -26 -3 -38 -8z" />
    <glyph glyph-name="eacute" unicode="&#xe9;" horiz-adv-x="444" 
d="M414 254h-284c0 -101 31 -172 99 -172c50 0 89 44 89 116h96c-8 -106 -78 -208 -184 -208c-114 0 -196 103 -196 290s82 290 196 290c126 0 184 -114 184 -258v-58zM132 330h186c0 106 -30 156 -91 156s-95 -50 -95 -156zM155 622l89 142h109l-131 -142h-67z" />
    <glyph glyph-name="ecircumflex" unicode="&#xea;" horiz-adv-x="444" 
d="M414 254h-284c0 -101 31 -172 99 -172c50 0 89 44 89 116h96c-8 -106 -78 -208 -184 -208c-114 0 -196 103 -196 290s82 290 196 290c126 0 184 -114 184 -258v-58zM132 330h186c0 106 -30 156 -91 156s-95 -50 -95 -156zM77 622l99 142h91l100 -142h-79l-66 94l-66 -94
h-79z" />
    <glyph glyph-name="edieresis" unicode="&#xeb;" horiz-adv-x="444" 
d="M414 254h-284c0 -101 31 -172 99 -172c50 0 89 44 89 116h96c-8 -106 -78 -208 -184 -208c-114 0 -196 103 -196 290s82 290 196 290c126 0 184 -114 184 -258v-58zM132 330h186c0 106 -30 156 -91 156s-95 -50 -95 -156zM185 638h-90v98h90v-98zM349 638h-90v98h90v-98z
" />
    <glyph glyph-name="egrave" unicode="&#xe8;" horiz-adv-x="444" 
d="M414 254h-284c0 -101 31 -172 99 -172c50 0 89 44 89 116h96c-8 -106 -78 -208 -184 -208c-114 0 -196 103 -196 290s82 290 196 290c126 0 184 -114 184 -258v-58zM132 330h186c0 106 -30 156 -91 156s-95 -50 -95 -156zM200 764l89 -142h-67l-131 142h109z" />
    <glyph glyph-name="iacute" unicode="&#xed;" horiz-adv-x="222" 
d="M159 0h-96v560h96v-560zM44 622l89 142h109l-131 -142h-67z" />
    <glyph glyph-name="icircumflex" unicode="&#xee;" horiz-adv-x="222" 
d="M159 0h-96v560h96v-560zM-34 622l99 142h91l100 -142h-79l-66 94l-66 -94h-79z" />
    <glyph glyph-name="idieresis" unicode="&#xef;" horiz-adv-x="222" 
d="M159 0h-96v560h96v-560zM74 638h-90v98h90v-98zM238 638h-90v98h90v-98z" />
    <glyph glyph-name="igrave" unicode="&#xec;" horiz-adv-x="222" 
d="M159 0h-96v560h96v-560zM89 764l89 -142h-67l-131 142h109z" />
    <glyph glyph-name="ntilde" unicode="&#xf1;" 
d="M156 0h-96v560h86v-70h2c30 58 64 80 132 80c102 0 160 -68 160 -178v-392h-96v362c0 80 -28 116 -84 116c-52 0 -104 -37 -104 -116v-362zM370 749h50c-4 -51 -42 -109 -98 -109c-26 0 -52 10 -78 19s-51 19 -72 19c-23 0 -39 -25 -42 -45h-50c3 58 43 107 104 107
c27 0 51 -9 74 -18c22 -9 43 -18 65 -18c29 0 44 17 47 45z" />
    <glyph glyph-name="oacute" unicode="&#xf3;" 
d="M466 280c0 -178 -76 -290 -216 -290s-216 112 -216 290s76 290 216 290s216 -112 216 -290zM370 280c0 152 -44 206 -120 206s-120 -54 -120 -206s44 -206 120 -206s120 54 120 206zM183 622l89 142h109l-131 -142h-67z" />
    <glyph glyph-name="ocircumflex" unicode="&#xf4;" 
d="M466 280c0 -178 -76 -290 -216 -290s-216 112 -216 290s76 290 216 290s216 -112 216 -290zM370 280c0 152 -44 206 -120 206s-120 -54 -120 -206s44 -206 120 -206s120 54 120 206zM105 622l99 142h91l100 -142h-79l-66 94l-66 -94h-79z" />
    <glyph glyph-name="odieresis" unicode="&#xf6;" 
d="M466 280c0 -178 -76 -290 -216 -290s-216 112 -216 290s76 290 216 290s216 -112 216 -290zM370 280c0 152 -44 206 -120 206s-120 -54 -120 -206s44 -206 120 -206s120 54 120 206zM213 638h-90v98h90v-98zM377 638h-90v98h90v-98z" />
    <glyph glyph-name="ograve" unicode="&#xf2;" 
d="M466 280c0 -178 -76 -290 -216 -290s-216 112 -216 290s76 290 216 290s216 -112 216 -290zM370 280c0 152 -44 206 -120 206s-120 -54 -120 -206s44 -206 120 -206s120 54 120 206zM228 764l89 -142h-67l-131 142h109z" />
    <glyph glyph-name="otilde" unicode="&#xf5;" 
d="M466 280c0 -178 -76 -290 -216 -290s-216 112 -216 290s76 290 216 290s216 -112 216 -290zM370 280c0 152 -44 206 -120 206s-120 -54 -120 -206s44 -206 120 -206s120 54 120 206zM370 749h50c-4 -51 -42 -109 -98 -109c-26 0 -52 10 -78 19s-51 19 -72 19
c-23 0 -39 -25 -42 -45h-50c3 58 43 107 104 107c27 0 51 -9 74 -18c22 -9 43 -18 65 -18c29 0 44 17 47 45z" />
    <glyph glyph-name="scaron" unicode="&#x161;" horiz-adv-x="389" 
d="M364 397h-90c-5 51 -29 81 -84 81c-46 0 -70 -24 -70 -64c0 -112 244 -46 244 -250c0 -112 -68 -174 -172 -174s-175 82 -175 181h90c2 -54 36 -89 92 -89c47 0 75 28 75 75c0 121 -244 51 -244 249c0 103 64 164 165 164s168 -73 169 -173zM340 764l-99 -142h-91
l-100 142h79l66 -94l66 94h79z" />
    <glyph glyph-name="uacute" unicode="&#xfa;" 
d="M344 560h96v-560h-86v84h-2c-20 -66 -64 -94 -132 -94c-102 0 -160 68 -160 178v392h96v-362c0 -80 28 -116 84 -116c52 0 104 37 104 116v362zM183 622l89 142h109l-131 -142h-67z" />
    <glyph glyph-name="ucircumflex" unicode="&#xfb;" 
d="M344 560h96v-560h-86v84h-2c-20 -66 -64 -94 -132 -94c-102 0 -160 68 -160 178v392h96v-362c0 -80 28 -116 84 -116c52 0 104 37 104 116v362zM105 622l99 142h91l100 -142h-79l-66 94l-66 -94h-79z" />
    <glyph glyph-name="udieresis" unicode="&#xfc;" 
d="M344 560h96v-560h-86v84h-2c-20 -66 -64 -94 -132 -94c-102 0 -160 68 -160 178v392h96v-362c0 -80 28 -116 84 -116c52 0 104 37 104 116v362zM213 638h-90v98h90v-98zM377 638h-90v98h90v-98z" />
    <glyph glyph-name="ugrave" unicode="&#xf9;" 
d="M344 560h96v-560h-86v84h-2c-20 -66 -64 -94 -132 -94c-102 0 -160 68 -160 178v392h96v-362c0 -80 28 -116 84 -116c52 0 104 37 104 116v362zM228 764l89 -142h-67l-131 142h109z" />
    <glyph glyph-name="yacute" unicode="&#xfd;" horiz-adv-x="444" 
d="M438 560l-232 -758h-100l63 213l-163 545h99l117 -399h2l114 399h100zM155 622l89 142h109l-131 -142h-67z" />
    <glyph glyph-name="ydieresis" unicode="&#xff;" horiz-adv-x="444" 
d="M438 560l-232 -758h-100l63 213l-163 545h99l117 -399h2l114 399h100zM185 638h-90v98h90v-98zM349 638h-90v98h90v-98z" />
    <glyph glyph-name="zcaron" unicode="&#x17e;" horiz-adv-x="444" 
d="M410 92v-92h-376v90l254 378h-235v92h349v-92l-258 -376h266zM367 764l-99 -142h-91l-100 142h79l66 -94l66 94h79z" />
    </font>
</defs>
</svg>
