<?xml version="1.0" standalone="no"?>
<!DOCTYPE svg PUBLIC "-//W3C//DTD SVG 1.1//EN" "http://www.w3.org/Graphics/SVG/1.1/DTD/svg11.dtd" >
<svg>
<metadata>
Created by FontForge 20120731 at Tue Aug  9 02:21:08 2016
 By www
Copyright O^1992 Image Club Graphics, Inc.
</metadata>
<defs>
<font id="NewBaskervilleItalic" horiz-adv-x="1338" >
  <font-face 
    font-family="New"
    font-weight="5"
    font-style="italic"
    font-stretch="normal"
    units-per-em="1831"
    panose-1="0 0 0 0 0 0 0 0 0 0"
    ascent="1464"
    descent="-367"
    x-height="843"
    cap-height="1297"
    bbox="-344 -543 2264 1804"
    underline-thickness="20"
    underline-position="-184"
    slope="-12"
    unicode-range="U+0020-25CA"
  />
<missing-glyph horiz-adv-x="1297" 
d="M81 0v1297h1135v-1297h-1135zM1135 81v1135h-973v-1135h973z" />
    <glyph glyph-name=".notdef" horiz-adv-x="1297" 
d="M81 0v1297h1135v-1297h-1135zM1135 81v1135h-973v-1135h973z" />
    <glyph glyph-name=".null" unicode="&#xd7;" horiz-adv-x="0" 
 />
    <glyph glyph-name=".null" unicode="&#x141;" horiz-adv-x="0" 
 />
    <glyph glyph-name=".null" unicode="&#xfd;" horiz-adv-x="0" 
 />
    <glyph glyph-name="nonmarkingreturn" horiz-adv-x="277" 
 />
    <glyph glyph-name="space" unicode=" " horiz-adv-x="277" 
 />
    <glyph glyph-name="exclam" unicode="!" horiz-adv-x="328" 
d="M560 1112l-257 -717l-44 15l128 773q8 50 35 87q31 42 71 42q5 0 17 -2q74 -15 74 -88q0 -44 -24 -110zM298 87q0 -44 -31.5 -76.5t-74.5 -32.5t-73 31t-30 75q0 45 27 76t74 31q43 0 75.5 -30.5t32.5 -73.5z" />
    <glyph glyph-name="quotedbl" unicode="&#x22;" horiz-adv-x="562" 
d="M836 1225l-192 -481q-3 -10 -13 -23q-14 -18 -24 -14q-9 3 -9 23q0 18 3 24l115 509q6 25 26.5 47.5t46.5 22.5q5 0 15 -2q22 -6 31.5 -22t9.5 -40q0 -13 -2 -22t-7 -22zM532 1225l-195 -481q-3 -12 -12 -24q-13 -18 -24 -13q-9 5 -9 22t4 25l117 508q6 27 27.5 48.5
t48.5 21.5q7 0 19.5 -2.5t22 -20t9.5 -41.5t-8 -43z" />
    <glyph glyph-name="numbersign" unicode="#" horiz-adv-x="1083" 
d="M1185 797h-204l-40 -270h196v-103h-216l-59 -424h-110l62 422h-258l-70 -422h-107l69 423h-197v105h219l38 266h-209l-1 111h229l56 399h107l-59 -399h255l61 399h111l-62 -399h189v-108zM873 797h-256l-43 -268h259z" />
    <glyph glyph-name="dollar" unicode="$" horiz-adv-x="1027" 
d="M1106 1146q5 -20 5 -35q0 -25 -14 -42.5t-45 -23.5q-4 -1 -12 -1q-30 0 -53.5 23.5t-23.5 56.5q1 20 1 28q0 12 -2 22t-9 23q-18 35 -56 47l-112 -495l10 -7q162 -115 211 -214q33 -67 33 -191q0 -120 -82 -204q-63 -65 -170 -104q-73 -27 -139 -33l-43 -4l-59 -263
l-58 -1l60 268q-19 0 -34.5 1t-50 7t-66.5 17l-69 -293h-58l71 306l-25 8q-76 26 -138.5 80.5t-62.5 99.5q-3 34 13.5 62t47.5 31q65 0 83 -68l14 -94q9 -27 34 -46q21 -16 43 -20l149 639l-19 12q-90 56 -131 128.5t-41 173.5q0 111 96 189q86 70 206 84l22 3l36 155h64
l-33 -153h30.5t31.5 1q22 0 46 -3.5t43 -6.5l35 161h62l-38 -173l48 -20q57 -27 96 -60q44 -37 53 -71zM840 1261q-18 5 -38.5 9t-43.5 4h-46.5t-26.5 -1l-95 -415l136 -78zM620 1265q-66 -9 -121 -55t-66 -95q-6 -26 -6 -50q0 -56 30 -101t83 -69zM894 266q6 29 6 56
q0 78 -45 150t-112 110l-126 -536q96 0 172 57q80 61 105 163zM695 615l-141 78l-146 -626q24 -8 36 -11t33 -6.5t37 -4.5t43 -1z" />
    <glyph glyph-name="percent" unicode="%" horiz-adv-x="1704" 
d="M1707 243q-40 -145 -128 -231q-97 -95 -232 -95q-132 0 -205 112q-63 97 -63 240q0 136 118 267q124 138 269 138q19 0 28 -1q130 -14 188 -102q46 -70 46 -180q0 -40 -6 -77.5t-15 -70.5zM1520 1439l-948 -1575l-72 12l838 1399q-31 -28 -108 -57.5t-120 -29.5
q-36 0 -75 9q-52 12 -94 36q24 -72 24 -138q0 -33 -4.5 -66t-15.5 -76q-35 -144 -130 -234q-100 -94 -230 -94q-126 0 -201 97q-69 89 -69 220v19q2 12 2 18q0 142 123 270q131 136 295 136q53 0 201 -93q70 -44 138 -44h13h11q8 2 12 2q117 15 193 56q81 44 148 134z
M1640 228q12 37 19 77.5t7 82.5q0 92 -32 151q-38 69 -112 77q-6 1 -19 1q-88 0 -155 -88q-51 -67 -88 -181q-17 -50 -26.5 -98t-9.5 -93q0 -72 28 -117q32 -51 100 -64q17 -3 32 -3q83 0 156 79q63 69 100 176zM878 938q12 38 19 81.5t7 85.5q0 97 -32 155q-38 68 -112 68
t-133 -52q-71 -63 -129 -218q-16 -43 -26 -91t-10 -91q0 -74 29 -122q33 -54 99 -68q9 -2 17 -3t19 -1q86 0 159 85q60 70 93 171z" />
    <glyph glyph-name="ampersand" unicode="&#x26;" horiz-adv-x="1764" 
d="M1984 1025q-34 -126 -173 -209q-124 -74 -247 -74h-98l21 -28q23 -45 30 -87.5t7 -104.5q0 -242 -233 -399q-216 -145 -506 -145q-227 0 -394 119q-185 131 -185 343q0 142 90 277q81 121 199 186l31 18l-5 31q-2 12 -3 27t-1 30q0 141 102 250q98 104 227 118q16 2 32 2
q86 0 133 -28q38 -23 38 -61q0 -34 -11 -51q-16 -25 -55 -31q-3 -1 -6 -1h-5q-28 0 -68.5 43t-62 45.5t-35.5 2.5q-86 0 -153 -60q-62 -55 -73 -128q-3 -23 -3 -42q0 -40 11 -70l14 -28l13 -19q13 8 38 13.5t47 5.5q50 -5 77.5 -25t27.5 -62q0 -43 -38.5 -71.5t-86.5 -28.5
q-28 0 -63 21.5t-67 54.5l-13 14l-30 -14q-81 -38 -127.5 -130t-46.5 -194q0 -13 0.5 -20.5t3.5 -32.5q21 -142 189 -243q160 -96 344 -96q223 0 389 99q182 109 206 292q3 23 3 42q0 70 -33 120q-21 32 -50 50t-75 29t-123 11q-91 0 -144 -44q-45 -37 -45 -86q0 -32 22 -46
q11 -7 23 -7q14 0 29 6q41 16 55 16q30 0 48 -10q30 -16 30 -57q0 -49 -36 -82t-90 -33q-59 0 -100 45t-41 111q0 12 1 18q11 122 107.5 204.5t223.5 82.5q40 0 114 -8q167 -18 222 -18q101 0 167 24q81 29 129 100q27 41 27 96q0 47 -22 82t-61 39q-28 0 -44 -19
q-51 -61 -85 -77q-15 -7 -36 -7q-28 0 -49.5 13t-23.5 26.5t-2 16.5v5q0 54 64 96q58 38 118 38q110 0 163 -73q41 -57 41 -145q0 -38 -8 -68z" />
    <glyph glyph-name="quotesingle" unicode="'" horiz-adv-x="252" 
d="M523 1229l-196 -481q-3 -11 -13 -25q-14 -20 -24 -14q-8 4 -8 22q0 19 4 27l117 509q5 26 30 47t53 21q24 0 34.5 -18t10.5 -44q0 -25 -8 -44z" />
    <glyph glyph-name="parenleft" unicode="(" horiz-adv-x="535" 
d="M776 1308l-33 -31q-156 -149 -263 -364q-120 -241 -143 -505q-11 -134 -11 -221q0 -149 32 -269q27 -102 103 -269l-31 -24l-25 40q-38 61 -82 175q-50 131 -82 272q-38 169 -38 308q0 178 91 371q74 158 199 307q98 117 198 196l56 44z" />
    <glyph glyph-name="parenright" unicode=")" horiz-adv-x="600" 
d="M671 538q0 -178 -91 -371q-74 -158 -199 -307q-98 -117 -198 -196l-56 -44l-29 30l33 31q156 149 263 364q120 241 143 506q11 134 11 220q0 149 -32 269q-27 102 -103 269l36 24l20 -40q36 -72 77 -178q55 -142 85 -270q40 -168 40 -307z" />
    <glyph glyph-name="asterisk" unicode="*" horiz-adv-x="888" 
d="M1096 1049q4 -12 4 -27q0 -35 -27.5 -57.5t-58.5 -19.5l-105 10q-6 1 -14.5 1h-13.5q-13 0 -28.5 -1t-32 -4.5t-36.5 -8t-35 -14.5q-7 -5 2.5 -18t42.5 -42q19 -18 36.5 -31t33.5 -21l91 -42q18 -8 34.5 -32t16.5 -50q0 -13 -3.5 -23.5t-12.5 -21.5q-21 -27 -59 -27
q-23 0 -43.5 12t-28.5 33l-42 103q-5 11 -19 32.5t-27 37.5q-21 27 -40 45q-14 13 -21 13q-11 0 -21 -34q-9 -37 -10 -41q-4 -17 -5 -40.5t-1 -48.5l6 -100q0 -31 -16 -58q-21 -36 -58 -36q-9 0 -14 1q-29 5 -44.5 27t-15.5 51q0 26 14 46l61 87q14 21 21 34
q15 26 20.5 43.5t11 36t5.5 27.5q0 4 -2 11t-15 7q-11 0 -28.5 -4.5t-32.5 -8.5q-28 -8 -45 -15t-36 -22l-80 -61q-10 -7 -24.5 -12t-31.5 -5q-24 0 -42.5 11t-27.5 35q-5 15 -5 28q0 35 25.5 58.5t59.5 19.5l112 -11q7 -1 11 -1q32 0 70 9q25 4 38 6q24 5 37 19q6 6 -23 33
q-20 18 -26 24q-14 13 -36.5 30t-36.5 23l-90 41q-19 9 -34 31.5t-15 49.5q0 14 3.5 25t13.5 23q21 25 54 25q24 0 44 -12t29 -34l45 -103q6 -15 18.5 -35.5t27.5 -35.5q13 -16 27 -31t29 -22q10 -5 19 26.5t11.5 42t7 30.5t4.5 41q0 10 -1 16l-12 101q-3 29 18 58
q25 35 63 35q9 0 14 -1q28 -5 44.5 -27.5t16.5 -49.5q0 -24 -14 -44l-67 -90q-20 -28 -34 -74q-7 -22 -12 -49.5t-3 -29.5q6 -4 40.5 4t38.5 9q20 7 41 16q31 14 41 22l75 59q21 17 55 17q25 0 45 -12t28 -38z" />
    <glyph glyph-name="plus" unicode="+" horiz-adv-x="1010" 
d="M1070 484l-29 -102h-390l-110 -382h-102l110 384h-384l29 102l385 1l110 383h105l-114 -386h390z" />
    <glyph glyph-name="comma" unicode="," horiz-adv-x="361" 
d="M326 21q0 -107 -84 -195q-71 -74 -199 -131l-47 -20l-17 45l31 13q28 11 73.5 43t75.5 63q27 27 46.5 61.5t22.5 56.5l6 36q-17 -11 -31.5 -15t-31.5 -4q-37 0 -63.5 25.5t-26.5 59.5q0 64 30.5 99.5t82.5 35.5q68 0 104 -63q28 -49 28 -110z" />
    <glyph glyph-name="hyphen" unicode="-" horiz-adv-x="495" 
d="M527 476l-9 -83h-357l12 83h354z" />
    <glyph glyph-name="period" unicode="." horiz-adv-x="321" 
d="M286 75q0 -40 -28 -71t-66 -31q-36 0 -66 30t-30 69q0 38 29 66t66 28q41 0 68 -26t27 -65z" />
    <glyph glyph-name="slash" unicode="/" horiz-adv-x="677" 
d="M961 1303l-870 -1629h-110l870 1629h110z" />
    <glyph glyph-name="zero" unicode="0" horiz-adv-x="990" 
d="M1085 574q-73 -244 -225 -416q-161 -182 -323 -182q-18 0 -38 3q-108 16 -191 116q-102 123 -102 317q0 70 13.5 149t43.5 168q93 277 235 432q147 160 321 160q168 0 248 -125q69 -107 69 -292q0 -81 -13.5 -164.5t-37.5 -165.5zM918 604q36 128 52 200q31 140 31 236
q0 112 -37 171q-44 70 -142 70q-99 0 -190 -112q-74 -91 -137 -246q-48 -117 -76 -241q-23 -92 -45 -184q-30 -133 -30 -218q0 -101 32 -161q39 -73 125 -96q13 -3 19 -4t18 -1q81 0 162 101q68 85 130 231q49 116 88 254z" />
    <glyph glyph-name="one" unicode="1" horiz-adv-x="759" 
d="M826 1324l-306 -1149q-2 -9 -5 -28t-3 -29q0 -12 4.5 -27.5t29.5 -29.5t45 -14l120 -7l-3 -40h-602l11 43l99 5q23 0 45 7t42.5 23.5t31.5 37.5q8 15 13 37l247 919q1 4 2.5 18.5t1.5 23.5q0 16 -2.5 26.5t-11 18.5t-27.5 12.5t-53 4.5l-120 -1l8 47q56 0 95 5.5
t111 22.5q119 26 227 74z" />
    <glyph glyph-name="two" unicode="2" horiz-adv-x="984" 
d="M1063 993q0 -102 -53 -200q-45 -83 -116 -143l-594 -506h485q39 0 61.5 9.5t37.5 23.5q32 29 47 55l46 79h36l-121 -311h-775v23l658 658q62 62 96 153q29 78 29 147q-9 102 -65 158q-60 60 -171 60q-97 0 -168 -53q-67 -50 -81 -126q-4 -20 -4 -47q0 -32 4 -59
q6 -27 6 -30q0 -1 7 -27t7 -36t-5 -10q-6 0 -15 6q-14 10 -16 16q-6 4 -24 63q-22 71 -22 123q0 117 95 208q99 95 239 95q174 0 275 -91t101 -238z" />
    <glyph glyph-name="three" unicode="3" horiz-adv-x="903" 
d="M1087 1090q0 -80 -57 -147q-42 -50 -114 -92q-42 -22 -84 -43l-55 -28l48 -11q73 -16 114 -81q37 -59 37 -139q0 -22 -3 -45q-37 -240 -278 -389q-224 -138 -517 -138l-110 -8l17 53l110 9q220 18 397 139q210 143 210 352q0 82 -49 129q-57 55 -143 55q-1 1 -15 1
q-31 0 -55 -4t-48.5 -8.5t-31.5 -5.5t-20 -3.5t-29 -2.5q-15 0 -25 4.5t-10 15.5q0 26 49 37q53 7 61 8l166 33q94 19 180 83q110 82 110 184q0 68 -57 100q-48 27 -135 27q-50 0 -93 -6t-99 -20l-89 -23l27 158l68 16q90 22 184 22q146 0 234 -51q105 -61 105 -181z" />
    <glyph glyph-name="four" unicode="4" horiz-adv-x="990" 
d="M1093 1337l-211 -795l8 -1q34 0 82.5 3t55.5 5l32 11q4 3 6 3q7 3 9 2q4 -1 2 -11l-3 -15l-18 -73h-194l-115 -466h-160l126 466h-521l10 55l861 816h30zM881 1088l-582 -547h434z" />
    <glyph glyph-name="five" unicode="5" horiz-adv-x="856" 
d="M1088 1347l-13 -32q-24 -58 -98 -102q-69 -41 -163 -58q-32 -6 -58.5 -8.5t-59.5 -2.5q-21 0 -74.5 2t-66.5 2l-59 5l-42 -177h168q148 0 244 -88t96 -230q0 -51 -13 -103q-57 -234 -268 -391q-186 -138 -417 -168l-202 -26l14 51l159 24q213 33 386 172q194 156 194 348
q0 146 -87 207q-69 49 -204 49q-21 0 -50.5 -2t-53.5 -4l-65 -6l150 546l47 -15q86 -28 123 -36q58 -13 122 -13q82 0 147.5 12t143.5 44z" />
    <glyph glyph-name="six" unicode="6" horiz-adv-x="973" 
d="M1159 1319q0 -18 -10 -23l-21 -6l-58 -17q-69 -28 -138 -55q-143 -68 -254 -177q-157 -154 -249 -384q-39 -99 -62 -217.5t-23 -204.5q0 -35 5 -60q20 -97 64 -131q39 -30 105 -30q132 0 226 134q86 122 103 292q3 29 3.5 37t0.5 27q0 84 -24 134q-30 62 -95 70
q-6 1 -19 1q-59 0 -115 -53q-32 -34 -63 -68q-8 -12 -13 -17q-17 -17 -30 -14q-11 2 -11 19q0 21 6 24q-4 29 71 101q88 85 179 85q138 0 218 -80q77 -77 77 -205q0 -48 -12 -101q-43 -190 -175 -308q-137 -122 -321 -122q-148 0 -243.5 115.5t-95.5 289.5q0 16 1.5 35.5
t2.5 30.5q31 277 235 503q161 179 397 295q194 96 302 96q36 0 36 -16z" />
    <glyph glyph-name="seven" unicode="7" horiz-adv-x="890" 
d="M1170 1316l-644 -1316h-224l541 811l214 359h-496q-26 0 -50.5 -3t-45 -17t-36.5 -42q-8 -14 -17 -38l-40 -107l-41 2l125 457h40l2 -22q2 -29 3.5 -38.5t10.5 -19.5t29.5 -18t41.5 -8h587z" />
    <glyph glyph-name="eight" unicode="8" horiz-adv-x="900" 
d="M1066 1039q0 -105 -83 -183q-63 -60 -192 -116l-44 -20l36 -43q75 -88 104 -150q37 -78 37 -175q0 -158 -119 -265t-287 -107q-153 0 -259 74q-116 81 -116 218v19t2 22q12 94 68 171q46 63 124 115q56 38 131 70l49 22l-49 49q-52 51 -78 114.5t-26 125.5q0 137 106 240
q112 108 274 108q155 0 241 -82q81 -77 81 -207zM938 1042q1 8 1 16v12q0 96 -60 155t-148 59q-103 0 -160 -62t-57 -169q0 -61 25.5 -112.5t124.5 -147.5l43 -42l50 29q84 49 125 104q47 63 56 158zM770 337q0 68 -48 139q-40 59 -135 151l-32 31l-45 -22
q-103 -48 -168 -131q-72 -92 -72 -197q0 -145 63 -215t184 -70q116 0 187 98q66 91 66 216z" />
    <glyph glyph-name="nine" unicode="9" horiz-adv-x="972" 
d="M1142 843q-56 -291 -258 -504q-152 -160 -377 -264q-155 -72 -266 -89l-60 -10l-8 33l48 15q149 47 170 56q144 62 259 175q155 152 247 387q42 110 66 219.5t24 194.5q0 35 -4 58q-11 73 -38 110q-42 58 -131 58q-130 0 -223 -134q-80 -116 -108 -290q-6 -38 -6 -75
q0 -83 30 -133q34 -57 99 -57q76 0 139 62q25 32 51 65q5 8 8 12q10 12 21 12q5 0 11 -3q11 -7 11 -23q0 -52 -83 -124q-91 -79 -180 -79q-135 0 -209.5 76.5t-74.5 201.5q0 50 12 104q43 192 177 310q138 122 324 122q135 0 236 -118t101 -281q0 -16 -0.5 -35.5t-7.5 -51.5
z" />
    <glyph glyph-name="colon" unicode=":" horiz-adv-x="346" 
d="M482 736q-4 -41 -36.5 -68.5t-71.5 -27.5q-37 0 -71 28q-38 31 -38 71q0 46 31.5 81.5t73.5 35.5q44 0 78.5 -32.5t34.5 -76.5q-1 -7 -1 -11zM311 72q-4 -42 -37.5 -70.5t-73.5 -28.5q-36 0 -71 31t-35 72q0 46 33.5 81.5t75.5 35.5q43 0 75.5 -33.5t32.5 -78.5v-9z" />
    <glyph glyph-name="semicolon" unicode=";" horiz-adv-x="389" 
d="M497 738q-4 -41 -36 -68.5t-72 -27.5q-36 0 -69 28q-36 31 -40 72q0 46 31.5 81.5t74.5 35.5q44 0 78 -33t34 -77q-1 -7 -1 -11zM326 21q0 -107 -84 -195q-71 -74 -199 -131l-47 -20l-17 45l31 13q28 11 73.5 43t75.5 63q27 27 46.5 61.5t22.5 56.5l6 36
q-17 -11 -31.5 -15t-31.5 -4q-37 0 -63.5 25.5t-26.5 59.5q0 64 30.5 99.5t82.5 35.5q68 0 104 -63q28 -49 28 -110z" />
    <glyph glyph-name="less" unicode="&#x3c;" horiz-adv-x="906" 
d="M1098 734l-29 -101l-666 -272l507 -267l-28 -98l-611 323l27 95z" />
    <glyph glyph-name="equal" unicode="=" horiz-adv-x="940" 
d="M1148 525l-27 -95h-778l27 95h778zM1078 296l-27 -94h-773l27 94h773z" />
    <glyph glyph-name="greater" unicode="&#x3e;" horiz-adv-x="940" 
d="M1112 406l-28 -95l-798 -320l29 101l665 272l-507 267l28 98z" />
    <glyph glyph-name="question" unicode="?" horiz-adv-x="719" 
d="M920 1065q1 -8 1 -15.5v-15.5q0 -74 -31 -142t-77 -110l-206 -184q-58 -52 -63 -57q-29 -32 -29 -67q0 -30 17.5 -44.5t45.5 -14.5q36 0 61 16l59 38l31 -29l-33 -28q-66 -56 -148 -56q-56 0 -98.5 45.5t-42.5 101.5q0 55 35 115q24 41 52 68l226 212q35 33 56 78.5
t21 99.5q0 83 -51 132q-55 52 -154 52q-66 0 -115 -43q-53 -47 -53 -121q0 -54 37 -88q33 -30 71 -30q20 0 29 9.5t9 15.5q0 4 -18.5 27.5t-18.5 53.5q0 23 16.5 39.5t30.5 19t17 2.5h5q28 0 49.5 -22.5t24.5 -54.5q5 -56 -41 -97t-107 -41q-67 0 -114 48t-47 115
q0 97 66.5 160.5t171.5 63.5q125 0 211 -64q93 -69 104 -188zM577 90q0 -44 -30.5 -75.5t-74.5 -31.5q-43 0 -72.5 32.5t-29.5 76.5q0 43 31 74t75 31q43 0 72 -32t29 -75z" />
    <glyph glyph-name="at" unicode="@" horiz-adv-x="1511" 
d="M1655 926q0 -160 -95 -318q-88 -146 -226.5 -241.5t-267.5 -95.5q-71 0 -92 47q-12 27 -12 103l-74 -66q-47 -42 -97 -61t-110 -19q-78 0 -124 60.5t-46 144.5q0 127 92 247q84 109 211 180t234 71q57 0 84 -26q33 -32 33 -110l69 117h154l-285 -538q-9 -18 -15 -35
t-6 -32t7.5 -23.5t24.5 -8.5q78 0 181.5 89.5t174.5 220.5q79 145 79 273q0 167 -137 257q-116 76 -291 76q-292 0 -520 -231q-220 -222 -220 -483q0 -194 115 -316q123 -131 336 -131q172 0 315 68q103 49 182 127q29 34 59 69h121l-78 -92q-106 -107 -235 -172
q-182 -92 -390 -92q-242 0 -387 142q-140 137 -140 353q0 345 255 599t607 254q206 0 352 -102q162 -114 162 -305zM1123 839q0 49 -24 72q-20 19 -51 19q-66 0 -162 -92q-89 -85 -158 -205q-72 -125 -72 -206q0 -50 28 -75q24 -21 61 -21q66 0 159 93q87 87 151 205
q68 126 68 210z" />
    <glyph glyph-name="A" unicode="A" horiz-adv-x="1381" 
d="M1323 47l-1 -47q-54 0 -150 2t-108 2q-44 0 -128.5 -2t-129.5 -2l1 47l91 4q36 0 67 36q9 10 13 24.5t4 32.5q0 10 -1 16l-51 384h-381l-165 -320q-18 -35 -28.5 -63t-10.5 -47q0 -12 3 -22t34 -27.5t54 -17.5h63l-5 -47q-61 6 -115 8t-110 2q-35 0 -98 -5t-103 -5l10 47
l52 10q34 6 74 37q39 27 58 60l686 1169h53l165 -1184q4 -32 20 -56q20 -31 54 -31zM925 601l-63 484l-280 -484h343z" />
    <glyph glyph-name="B" unicode="B" horiz-adv-x="1210" 
d="M1292 995q0 -120 -99 -201t-290 -105q135 -13 223 -90q99 -87 99 -225q0 -26 -3 -53q-21 -157 -158 -244q-121 -77 -290 -77q-6 -1 -18 -1h-25q-34 0 -170 1t-202 1l-286 -1l10 47h49q27 0 52 5t48.5 19.5t45.5 52t33 78.5l262 956q3 12 3 24q0 38 -29 55
q-13 8 -32.5 10.5t-57.5 2.5h-19h-38l12 47l243 -9q55 0 105.5 1.5t117.5 3.5q31 0 34 -3q176 0 278 -80t102 -215zM1100 985q4 33 4.5 43.5t0.5 16.5q0 111 -73 164q-55 40 -132 40h-40q-26 0 -41 -4.5t-26 -14.5t-19.5 -28t-12.5 -32l-120 -453h108q174 0 265 88
q70 67 86 180zM1025 324q12 54 12 101q0 118 -77 181q-81 66 -243 66h-88l-132 -456q-6 -30 -8.5 -46t-2.5 -29q0 -20 3.5 -33t13.5 -23q23 -23 61.5 -35t85.5 -12q121 0 224 69q119 79 151 217z" />
    <glyph glyph-name="C" unicode="C" horiz-adv-x="1199" 
d="M1374 1297l-76 -373h-37l-7 83q0 145 -76 212q-67 59 -198 59q-165 0 -301 -149q-118 -129 -191 -340q-67 -194 -67 -369q0 -186 85 -291q89 -109 251 -109q124 0 228 80t194 242l41 74h40l-103 -416h-20l-25 102l-38 -24q-79 -49 -124 -67q-86 -34 -193 -34
q-251 0 -393 136t-142 379q0 204 112 401q107 189 278 307q176 122 355 122q92 0 152 -16.5t128 -60.5l39 -25l68 77h20z" />
    <glyph glyph-name="D" unicode="D" horiz-adv-x="1356" 
d="M1451 564q-34 -127 -115 -245q-96 -140 -230 -222q-159 -97 -349 -97h-674l10 47h44q35 0 51 2q42 5 65.5 23t41.5 62q6 14 16 53l250 941q6 24 6 41q0 22 -7 32.5t-21 20t-45 19t-42 9.5h-49l9 47q29 0 127 -12q49 -6 84 -6q50 0 98 1.5t54 1.5l86 3q217 0 363 -87
q126 -75 191 -211q57 -119 57 -260q0 -82 -21 -163zM1240 577q16 63 24.5 122.5t8.5 122.5q0 185 -81 291q-99 129 -311 129q-56 0 -70 -4q-37 -10 -47 -50l-244 -938q-16 -61 -16 -99q0 -31 10.5 -51t45.5 -40q12 -7 49 -15t80 -8q101 0 189 37q118 49 203 157
q105 133 159 346z" />
    <glyph glyph-name="E" unicode="E" horiz-adv-x="1203" 
d="M1345 989h-36l-23 69q-19 60 -51 103.5t-69.5 60t-82 23.5t-67.5 7h-244l-148 -522h174q50 0 101 31q23 14 47 46q17 22 26 42l41 85h39l-105 -502l-36 1v76q0 58 -9.5 91t-31.5 52q-13 13 -46.5 22t-64.5 9h-144l-112 -405q-11 -40 -15 -66t-4 -49q0 -36 12 -53
q3 -4 19 -16q29 -24 82 -36q38 -9 71 -9h141q77 0 144 25q55 21 93 54q24 20 44.5 43.5t31.5 42.5l74 127h41l-92 -341q-189 0 -283.5 1.5t-224.5 3.5t-230 2q-36 0 -185 -5q-59 -2 -140 -2l15 47h57q36 0 56.5 9t38.5 27q22 23 37 64q6 16 20 69l252 930q4 15 4 30
q0 19 -7 32t-18.5 24t-31.5 14.5t-46 3.5h-42l9 47q72 0 134 -2q186 -6 188 -6q98 0 173.5 1t181.5 3t128 2q24 0 54 -0.5t36 -3.5z" />
    <glyph glyph-name="F" unicode="F" horiz-adv-x="1127" 
d="M1340 985h-43l-11 48q-9 42 -37 88q-39 65 -96 95q-20 11 -73 18.5t-100 7.5l-200 2l-155 -516h154q34 0 67 7.5t56.5 23.5t48 48t41.5 70l25 56h42l-108 -502l-35 -1l-1 68q0 51 -8.5 88t-29.5 63q-15 19 -40.5 25t-58.5 6h-27l-139 4l-109 -405q-15 -56 -24 -97
q-13 -57 -13 -76q0 -10 4 -20q11 -25 39 -34q16 -5 47 -5h78l-6 -47q-79 0 -182 1.5t-116 1.5l-258 -3l17 47h37q35 0 66 12t48 29q13 13 30 53.5t30 87.5l255 901q10 36 10 56q0 15 -3 22t-14 21q-7 10 -35.5 15.5t-52.5 5.5h-66l8 47q38 0 181 -5q57 -2 133 -2
q144 0 221.5 1.5t187 3.5t189.5 2z" />
    <glyph glyph-name="G" unicode="G" horiz-adv-x="1402" 
d="M1481 517l-12 -42h-38q-25 0 -48 -5.5t-36.5 -24t-26.5 -52.5q-8 -21 -13 -40l-47 -182q-5 -24 -9 -47t-4 -47q-37 5 -86 5q-47 0 -110 -25q-103 -41 -124 -47q-88 -26 -186 -26q-251 0 -388 145q-128 135 -128 354q0 204 100 398.5t266 313.5q176 127 376 127
q106 0 164 -16.5t158 -82.5l41 -27l62 78h20l-79 -368h-35l-7 77q-13 147 -94.5 221t-225.5 74q-157 0 -291 -160q-116 -138 -188 -353q-66 -196 -66 -357q0 -167 74 -268q83 -113 241 -113q140 0 237 65.5t120 170.5l15 70q3 11 4 22.5t1 23.5q0 32 -9 51t-23 27.5t-43 14
t-47 5.5l-49 2l8 38h526z" />
    <glyph glyph-name="H" unicode="H" horiz-adv-x="1521" 
d="M1811 1297l-13 -47h-48q-43 0 -76 -14q-26 -11 -36 -25q-23 -29 -38 -64q-10 -24 -17 -49l-259 -930q-6 -19 -9.5 -35.5t-3.5 -31.5q0 -18 7 -29q11 -17 33.5 -21t53.5 -4h74l-13 -47q-55 0 -160.5 2t-121.5 2q-51 0 -149 -2t-112 -2l8 47h52q56 0 98 24q21 12 36 32
q19 26 29 64l120 475h-656l-137 -461q-7 -27 -10 -41t-3 -30q0 -22 10.5 -35t34.5 -20.5t47 -7.5h74l-14 -47q-62 0 -105 2q-149 7 -168 7q-61 0 -103 -2q-146 -7 -165 -7l9 47h52q29 0 53 7.5t45 23.5q26 19 42 51q13 26 26 73l274 937q7 25 7 44q0 20 -7.5 32t-23 21.5
t-37.5 12t-47 2.5h-9l-47 -1l11 47q66 0 155.5 -2.5t111.5 -2.5q72 0 110 1q153 4 176 4l-9 -44l-47 1q-42 0 -71 -11q-21 -8 -36 -21t-30.5 -42t-26.5 -66l-125 -415h658l121 430q6 20 6 39t-5.5 33t-19 26.5t-41.5 17.5t-54 5h-49l12 47q52 0 151.5 -2t114.5 -2
q57 0 165.5 2t124.5 2z" />
    <glyph glyph-name="I" unicode="I" horiz-adv-x="673" 
d="M972 1297l-13 -47h-45q-32 0 -60 -9t-45.5 -26.5t-28.5 -37t-22 -57.5l-289 -952q-10 -33 -10 -56q0 -14 1 -19q2 -8 8 -17q10 -16 40.5 -22.5t65.5 -6.5h55l-12 -47q-50 0 -143 3t-151 3q-64 0 -153 -3t-99 -3l8 47h45q35 0 59.5 5.5t44.5 22.5q27 22 45 59q11 22 21 56
l273 931q2 9 5 25.5t3 30.5q0 17 -3.5 28.5t-12.5 19.5q-18 16 -46 20.5t-78 4.5h-33l11 47q44 0 120 -4t124 -4q49 0 150 4t165 4z" />
    <glyph glyph-name="J" unicode="J" horiz-adv-x="657" 
d="M964 1297l-13 -47h-71q-40 0 -60 -12q-19 -18 -29 -26q-15 -13 -33 -56q-14 -33 -22 -65l-289 -1090q-42 -158 -80 -243q-16 -36 -45 -79q-56 -85 -132 -136q-90 -61 -193 -61q-94 0 -166 28q-79 31 -92 83q-4 18 -4 28q0 30 17 51q21 25 58 25q24 0 47 -13
q30 -17 30 -46q0 -19 0.5 -36.5t6 -36.5t31 -29t52.5 -10q8 1 12 1q87 9 137 85q35 54 68 175l363 1333q11 40 11 66q0 32 -27 49q-13 8 -35.5 11.5t-44.5 3.5h-26h-31l4 47q50 0 147 -2t113 -2q58 0 172 2t124 2z" />
    <glyph glyph-name="K" unicode="K" horiz-adv-x="1484" 
d="M1563 1297l-13 -47h-20q-19 0 -45.5 -11t-60.5 -32q-23 -13 -67 -52q-56 -49 -65 -56l-474 -362l388 -581q10 -16 31 -37q27 -28 52 -43t44.5 -22t45.5 -7h49l2 -47q-62 0 -150.5 3.5t-127.5 3.5q-65 0 -159.5 -3.5t-132.5 -3.5l7 47l52 1q34 0 51 6q25 9 36 31q4 8 4 21
q0 29 -17 55l-325 489l-51 -24l-115 -441q-6 -20 -8.5 -36t-2.5 -35q0 -22 9.5 -37.5t36 -22.5t64.5 -7h56l-7 -47q-58 0 -169.5 2t-127.5 2q-51 0 -147.5 -2t-110.5 -2l10 47h48q32 0 59 6.5t46 20.5q23 17 36 41.5t25 73.5l241 934q8 29 8 54q0 21 -6.5 34t-18.5 21
t-33.5 13t-56.5 5h-53l10 47q58 0 97 -2q137 -7 162 -7q75 0 162 4.5t136 4.5l-14 -47h-35q-36 0 -62.5 -6.5t-42 -20.5t-31.5 -42.5t-23 -51.5l-121 -427l334 215l174 132q46 35 76 70q41 47 41 81q0 26 -31 40q-23 10 -50 10h-61l12 47q39 0 99 -3t99 -3q62 0 89 1
q136 5 143 5z" />
    <glyph glyph-name="L" unicode="L" horiz-adv-x="1221" 
d="M1252 329l-89 -329q-158 0 -276.5 2t-264.5 5t-245 3q-60 0 -157 -5t-151 -5l6 47h54q71 0 105 31q42 36 62 116l252 952q5 20 5 33q0 43 -32 56q-21 10 -42 12.5t-46 2.5h-55l14 47q55 0 99 -2q133 -6 160 -6q89 0 160 1.5t131 6.5l-13 -47h-43q-42 0 -65 -9
q-12 -5 -34 -21.5t-41 -59.5q-13 -30 -22 -66l-234 -869q-6 -23 -7.5 -34.5t-1.5 -29.5q0 -22 4.5 -39t14.5 -32q19 -27 78 -38q38 -7 83 -7l137 -1q77 0 145.5 18t108.5 47q55 41 85 82q21 29 54 99l19 39h42z" />
    <glyph glyph-name="M" unicode="M" horiz-adv-x="1819" 
d="M1950 1297l-7 -47h-44q-51 0 -84 -23q-18 -13 -34 -38q-10 -16 -17 -32.5t-12 -46.5l-159 -925q-4 -24 -4 -47q0 -13 1.5 -24t5.5 -21q10 -23 33.5 -34.5t66.5 -11.5h57l-9 -47q-54 0 -156.5 2t-116.5 2q-52 0 -151.5 -2t-112.5 -2l11 47h33q31 0 59 6t47 19.5t28.5 31.5
t19.5 71l187 1010l-702 -1187h-29l-207 1190l-243 -909q-18 -66 -18 -128q0 -21 4.5 -43t29 -41.5t62.5 -19.5h64l-5 -47q-59 0 -91 1q-129 4 -149 4q-53 0 -125.5 -2.5t-90.5 -2.5l14 47h20q48 0 83 16q26 12 45 31q23 23 40 59q11 23 18 47l289 972q3 9 3 17q0 15 -9 26
t-24 18.5t-42 12t-43 4.5h-44l11 47q39 0 95 -3.5t79 -3.5q41 0 99.5 3.5t82.5 3.5l179 -1019l614 1019q36 0 62 -2q89 -7 101 -7q42 0 71 2q101 7 114 7z" />
    <glyph glyph-name="N" unicode="N" horiz-adv-x="1483" 
d="M1759 1297l-9 -47h-36q-29 0 -56.5 -14.5t-51 -46t-38.5 -65t-27 -77.5l-296 -1084h-42l-539 1102l-206 -752q-9 -37 -16.5 -83t-7.5 -68q0 -25 3.5 -40.5t12.5 -26.5q21 -25 53 -36.5t68 -11.5h35l-7 -47l-236 3l-220 -3l8 47l39 3q37 3 66 16t56 42t54 98q18 46 35 107
l226 809l-15 29q-15 28 -24 42q-15 21 -37 39q-11 7 -24 12q-23 8 -55 8l-44 -2v47q40 0 56 -1q81 -5 105 -5q30 0 80 3t81 3l512 -1051l207 768q7 25 11.5 54t4.5 56q0 30 -7.5 54.5t-24 38.5t-46 23.5t-59.5 9.5h-26l14 47q43 0 80 -3q111 -9 130 -9q43 0 81 3
q113 9 132 9z" />
    <glyph glyph-name="O" unicode="O" 
d="M1481 831q0 -208 -103 -407t-276 -319q-189 -131 -410 -131q-209 0 -343 138t-134 359q0 344 232 602q237 263 563 263q203 0 337 -142t134 -363zM1284 906q0 164 -66 268q-75 119 -219 119q-131 0 -268.5 -138.5t-223.5 -343.5q-91 -216 -91 -427q0 -168 64 -261
q73 -106 224 -106q167 0 310 163q123 140 200 361q70 200 70 365z" />
    <glyph glyph-name="P" unicode="P" horiz-adv-x="1184" 
d="M1377 957q0 -178 -202 -273q-167 -79 -398 -79l-166 10l-128 -458q-4 -15 -5 -23.5t-1 -16.5q0 -14 4 -26t14 -23t39.5 -16t62.5 -5h46l-15 -50q-55 0 -144 3t-144 3q-69 0 -159 -1.5t-100 -1.5l5 47h39h13q31 0 53.5 4t43.5 20q26 21 43 51q14 26 26 68l264 945
q0 1 4 17.5t4 28.5q0 13 -3.5 23t-12.5 20q-17 18 -46 22t-79 4h-32l8 48q49 0 90 -3q124 -9 144 -9q39 0 129.5 3.5t121.5 3.5q30 0 35 -3q110 0 196 -24q112 -31 174 -98q76 -82 76 -211zM1177 984q0 6 1 15.5t1 19.5q0 101 -69 165q-72 67 -197 67q-34 0 -70.5 -6
t-49.5 -20q-17 -18 -27 -54l-141 -508l75 -5q212 0 328 73q128 81 149 253z" />
    <glyph glyph-name="Q" unicode="Q" horiz-adv-x="1311" 
d="M1579 -242l-12 -57q-20 -97 -100 -153q-76 -53 -181 -53q-128 0 -259 97l-216 180q-129 98 -248 98q-54 0 -115.5 -13t-82.5 -27l-43 -28q-13 -8 -28 -12t-25 -4q-14 0 -22 5q-15 9 -15 27q0 35 36 52l100 24l216 115l-44 14q-164 52 -245 197q-68 122 -68 287
q0 349 226.5 590.5t547.5 241.5q194 0 325 -138t131 -355q0 -310 -215 -557q-211 -242 -494 -276l-67 -8l-175 -87q38 0 73.5 -2.5t88 -9t135.5 -35.5q61 -22 112 -46l236 -110q58 -26 118.5 -39.5t122.5 -13.5q48 0 82 16q43 20 105 80zM1256 945q0 151 -60 245
q-70 109 -204 109q-212 0 -391.5 -274.5t-179.5 -598.5q0 -167 73.5 -270t202.5 -103q150 0 287 157q119 137 198 356q74 206 74 379z" />
    <glyph glyph-name="R" unicode="R" horiz-adv-x="1404" 
d="M1462 118l-25 -28q-40 -45 -93 -74q-65 -36 -130 -36h-12q-6 0 -20 2q-85 13 -127 57q-56 58 -56 180v225q0 72 -17.5 110.5t-48.5 58.5q-24 14 -56.5 19t-70.5 5l-170 1l-130 -482q-3 -11 -3 -29q0 -17 1.5 -24.5t9 -25.5t31 -24t54.5 -6h67l-6 -47q-54 0 -141 3t-141 3
q-52 0 -133 -3t-132 -3l8 47h69q40 0 79 27q28 19 48 72q5 14 17 57l243 915q10 39 10 67q0 22 -6.5 36t-16.5 19.5t-25 7.5t-29 2h-21h-72l10 47q53 0 129 -3.5t107 -3.5q58 0 158.5 3.5t104.5 3.5q25 0 27 -2q124 0 201 -13q118 -20 182 -72q80 -65 80 -180
q0 -15 -1 -31.5t-4 -33.5q-16 -98 -105 -168q-69 -54 -179 -89q-64 -20 -156 -37l-47 -8l35 -12q82 -26 110.5 -45t67.5 -72q34 -47 45 -165q15 -166 21 -190q23 -96 88 -114q6 -2 18 -2q25 0 50 16t48 42l21 23zM1218 998q1 12 2.5 23t1.5 24q0 106 -83 158.5t-264 52.5
q-46 0 -72 -36q-18 -24 -32 -80l-121 -454l97 1q191 0 307 64q140 77 164 247z" />
    <glyph glyph-name="S" unicode="S" horiz-adv-x="955" 
d="M1108 1290l-73 -337l-33 3l-10 74q-16 122 -87.5 188.5t-188.5 66.5q-86 0 -141.5 -63.5t-55.5 -150.5q0 -34 21 -82q26 -60 74 -106l198 -190q88 -84 129 -153q55 -92 55 -193q0 -186 -126 -286q-115 -91 -304 -91q-79 0 -173.5 38.5t-147.5 92.5l-21 22l-57 -84h-31
l63 370h37l15 -89q25 -153 103.5 -227t207.5 -74q117 0 185 79q63 73 63 183q0 58 -24 110q-20 43 -62 91q-19 22 -85 87l-194 193q-38 37 -64 99q-29 69 -29 141q0 145 94 234q99 93 270 93q67 0 134.5 -19.5t124.5 -62.5l45 -33l61 76h27z" />
    <glyph glyph-name="T" unicode="T" horiz-adv-x="1351" 
d="M1542 1297l-2 -331h-38l-16 72q-16 70 -35 105t-65 67q-36 25 -101 35q-39 6 -89 6h-11l-91 -1l-280 -1046q-6 -23 -12.5 -52.5t-6.5 -48.5q0 -20 7.5 -33.5t27 -18t50.5 -4.5h34h53l-16 -47q-77 0 -176 1.5t-111 1.5q-74 0 -138 -1t-126 -2l7 47h34q44 0 68.5 4t49 21
t44.5 63q15 35 27 82l275 1033l-150 3q-56 0 -123 -17q-90 -23 -143 -68q-32 -28 -61 -74q-25 -40 -39 -80l-17 -47h-44l86 330q122 0 220 -2q292 -6 353 -6q86 0 181.5 2l191 4t182.5 2z" />
    <glyph glyph-name="U" unicode="U" horiz-adv-x="1418" 
d="M1701 1297l-3 -47h-28q-25 0 -50.5 -12t-57.5 -48q-23 -26 -35 -57q-3 -8 -19 -65l-187 -653q-69 -240 -211 -348q-128 -97 -330 -97q-178 0 -296 87q-126 93 -126 247q0 50 15 106l198 722q7 24 7 46q0 38 -28 59q-11 8 -36 10.5t-61 2.5h-13h-33l8 47q58 0 143 -3.5
t120 -3.5q65 0 158.5 3.5t132.5 3.5l-12 -47h-31q-42 0 -58.5 -2t-39 -14t-46.5 -51.5t-36 -86.5l-189 -694q-16 -60 -16 -111q0 -139 111 -210q82 -53 183 -53q149 0 250 83q81 67 136 192q29 66 70 212q6 7 47 152t54 206t28 129q20 95 18 103q2 8 2 30q0 26 -5 43
q-8 25 -25.5 40.5t-47.5 23.5t-49 8h-35l12 47q109 -11 207 -11q97 0 204 11z" />
    <glyph glyph-name="V" unicode="V" horiz-adv-x="1370" 
d="M1655 1297l-5 -47h-23q-33 0 -65 -15t-53 -38q-30 -32 -47.5 -55.5t-37.5 -59.5q-11 -15 -47 -81q-10 -19 -75 -138q-50 -93 -85 -153l-425 -734h-56l-158 1164q-4 34 -14.5 56t-33.5 36q-16 9 -44 13.5t-49 4.5h-39l2 47q72 -4 136.5 -6.5t109.5 -2.5q66 0 112 2
q160 7 180 7l-8 -47h-32q-44 0 -72 -8.5t-48 -35.5q-8 -10 -11 -27.5t-3 -39.5q0 -20 2 -35t2 -20l108 -868q61 99 119 199q40 69 101 181q93 171 115 210q45 81 100 192.5t54 118.5q4 8 8 26t4 27q0 16 -3.5 28t-12.5 26t-38.5 20t-52.5 6h-36l12 47q59 -6 100.5 -8
t105.5 -2q41 0 96 2.5t107 7.5z" />
    <glyph glyph-name="W" unicode="W" horiz-adv-x="1975" 
d="M2264 1297l-9 -47h-30q-38 0 -64 -11t-54.5 -35.5t-48 -50t-37.5 -62.5q-10 -12 -39 -74q-33 -71 -67 -144t-76 -158l-360 -742h-60l-129 1037q-9 -19 -67 -137q-39 -80 -79 -164l-344 -734h-63l-134 1159q-5 50 -25 74q-12 14 -39 26q-15 7 -43.5 11.5t-45.5 4.5h-39
l3 47q72 -4 142 -7.5t104 -3.5q53 0 156.5 5.5t144.5 5.5l-12 -47h-52q-34 0 -57.5 -8t-40.5 -33q-10 -14 -13.5 -34t-3.5 -45q0 -19 1 -27l89 -850q33 70 87 185q38 82 77 165q27 58 99 206q47 95 90 187t43 98q11 22 16.5 42t5.5 41q0 24 -10 40.5t-38 24.5t-50 8h-47
l6 47q66 -4 124.5 -6.5t100.5 -2.5h35q78 0 113 1t107 8l-16 -47h-42q-27 0 -49.5 -10t-38.5 -32q-11 -15 -15.5 -39t-4.5 -49q0 -19 2 -29l85 -856q53 107 99 204l86 186q55 118 82 172t80 175.5t53 129.5q5 11 9 32.5t4 33.5q0 17 -2.5 27.5t-10.5 23.5q-11 17 -35.5 24
t-43.5 7h-44l4 46q47 0 84 -2q112 -6 135 -6q11 0 93 4.5t119 4.5z" />
    <glyph glyph-name="X" unicode="X" horiz-adv-x="1427" 
d="M1539 1297l-12 -47h-11q-35 0 -76 -17t-66 -38.5t-35 -30.5q-23 -21 -44 -45l-371 -410l258 -551q27 -59 69 -88q19 -13 39.5 -18t40.5 -5h15h23l-7 -49q-39 4 -125.5 7.5t-125.5 3.5q-81 0 -136 -2t-138 -9l9 49h43q13 -1 21 -1q23 0 36 4q21 7 32 22.5t11 35.5
q0 16 -3.5 31t-9.5 28l-184 406q-19 -18 -111 -120q-88 -97 -114 -129q-118 -143 -118 -165q-4 -6 -8.5 -19.5t-4.5 -28.5q0 -25 15 -38.5t47.5 -19.5t54.5 -6h31l-6 -50q-42 0 -109 5t-110 5q-76 -3 -128.5 -5t-100.5 -2l7 44l32 3q21 0 63 18.5t65 38.5q31 27 42.5 38.5
t32.5 36.5l394 459l-231 512q-8 16 -17 30q-14 20 -31 39q-11 11 -27 18t-28 9l-31 4l3 47q69 -3 125 -5t106 -2q56 0 95 2q136 7 153 7l-9 -49h-30q-18 1 -30 1q-21 0 -38 -5t-30.5 -19.5t-13.5 -44.5q0 -18 2.5 -30t8.5 -26l153 -366l281 326q53 64 53 112q0 19 -10 32.5
t-33.5 16.5t-70.5 3h-28l17 47q45 0 110 -3.5t96 -3.5q75 3 127 5t101 2z" />
    <glyph glyph-name="Y" unicode="Y" horiz-adv-x="1192" 
d="M1485 1297l-9 -47l-26 -3q-10 0 -42 -18.5t-51 -36.5q-26 -24 -42 -41q-25 -28 -40 -44l-418 -458l-130 -482q-5 -22 -5 -36q0 -9 1 -18t3 -18q6 -22 31.5 -35t49.5 -13h76l-9 -47q-84 0 -144 1.5t-138 4.5q-68 0 -157 -3t-115 -3l11 47h77q24 0 41.5 5.5t38.5 19.5
q28 19 42 37t23 50l127 461l-162 550q-4 14 -11 29t-17 25q-13 14 -25.5 20.5t-32.5 6.5l-18 -1l11 47q27 0 96.5 -4t115.5 -4q57 0 102 2q136 6 164 6l-9 -47l-55 -1q-30 0 -54.5 -9.5t-44 -27t-19.5 -61.5q0 -31 10 -66l109 -382l268 302q30 33 58 73q52 74 52 113
q0 27 -21 43t-48 16h-50l20 47q36 -5 67.5 -6t72.5 -1h51h47h16q52 0 112 7z" />
    <glyph glyph-name="Z" unicode="Z" horiz-adv-x="1154" 
d="M1298 1297l-912 -1252l310 -4q66 0 126 11q91 17 152 55q43 27 78 65q26 28 51 67l55 84h37l-129 -323q-170 0 -335.5 1t-296.5 2q-104 0 -171.5 -1t-132.5 -2l905 1246l-238 1q-76 0 -128 -12q-69 -16 -125 -56q-38 -28 -76 -68q-24 -25 -54 -64l-39 -51h-36l120 301
q46 0 149.5 -1.5t215.5 -2.5t205 -1q52 0 144.5 2.5t124.5 2.5z" />
    <glyph glyph-name="bracketleft" unicode="[" horiz-adv-x="537" 
d="M807 1359l-16 -62h-235l-371 -1559h234l-20 -58h-365l396 1679h377z" />
    <glyph glyph-name="backslash" unicode="\" horiz-adv-x="920" 
d="M881 0h-110l-356 1297h112z" />
    <glyph glyph-name="bracketright" unicode="]" horiz-adv-x="540" 
d="M792 1355l-396 -1679h-377l16 62h235l371 1559h-234l20 58h365z" />
    <glyph glyph-name="asciicircum" unicode="^" horiz-adv-x="697" 
d="M923 1021h-49l-188 181l-278 -181h-75l314 314h103z" />
    <glyph glyph-name="underscore" unicode="_" horiz-adv-x="1269" 
d="M1278 -236h-1278v121h1278v-121z" />
    <glyph glyph-name="grave" unicode="`" horiz-adv-x="628" 
d="M854 1181h-66l-312 157q-28 13 -47 37t-19 50q0 21 13 41q8 13 22 19.5t31 6.5q46 0 85 -36z" />
    <glyph glyph-name="a" unicode="a" horiz-adv-x="926" 
d="M1017 288l-17 -38q-33 -76 -53 -113q-38 -70 -78 -105q-52 -46 -115 -46q-114 0 -114 123q0 25 2 38l9 73l-35 -61q-42 -72 -104 -119q-72 -55 -151 -55q-33 0 -66 10q-79 24 -115.5 83.5t-36.5 144.5q0 127 76 275.5t190 244.5q124 105 244 105q19 0 37 -2t46 -14.5
t44 -36.5l33 -47l27 76h134l-177 -535q-10 -29 -19 -88t-9 -101q0 -50 14 -53q45 -8 108 89q27 42 66 122l22 45zM696 804q-12 3 -25 3q-61 0 -131 -74q-60 -64 -117 -164q-39 -70 -83 -171q-26 -62 -42 -124.5t-16 -117.5q0 -52 17 -85t56 -41q15 -3 30 -3q58 0 113 49
q44 39 92 118q35 58 75 144q44 94 71 174q35 105 35 173q0 49 -16 77q-19 32 -59 42z" />
    <glyph glyph-name="b" unicode="b" horiz-adv-x="888" 
d="M931 387q-75 -188 -187 -293q-134 -125 -311 -125q-76 0 -131 49q-66 59 -66 161q0 31 4 56.5t16 63.5l272 889q2 8 2 11q0 14 -14 27q-8 7 -25 17q-4 2 -19.5 4.5t-37.5 2.5h-31l9 47l306 17l-216 -672l54 71q49 64 96 94q54 35 119 35q103 0 156 -72q47 -64 47 -170
q0 -53 -11 -107t-32 -106zM775 383q27 66 44 141t17 135q0 66 -20 104t-64 38q-83 0 -174 -117q-80 -102 -133 -247q-33 -90 -51 -153q-27 -94 -27 -152q0 -38 11.5 -66t36 -41.5t51.5 -13.5q79 0 167 114q76 98 142 258z" />
    <glyph glyph-name="c" unicode="c" horiz-adv-x="680" 
d="M790 739q0 -32 -24 -57t-57 -25q-26 0 -43.5 14t-17.5 43q0 5 2 17.5t13 29t7 26.5q-3 12 -14.5 16.5t-27.5 4.5q-10 -1 -15 -1q-65 -9 -124 -80q-47 -57 -92 -160q-34 -77 -64 -173q-20 -64 -32 -116q-15 -66 -15 -115q0 -54 18.5 -89t61.5 -46q10 -3 25 -4t16 -1
q63 0 126.5 54t115.5 146l28 48l36 -23l-13 -25q-57 -112 -144.5 -178.5t-180.5 -66.5q-16 0 -35 3t-37 8q-81 25 -119.5 89.5t-38.5 154.5q0 202 151 404q159 212 338 212q18 0 36 -2t45 -13q75 -31 75 -95z" />
    <glyph glyph-name="d" unicode="d" horiz-adv-x="955" 
d="M1075 1311l-275 -1009q-11 -42 -20 -99.5t-9 -87.5q0 -27 5.5 -45t15 -21.5t16.5 -3.5q38 0 85 69q53 77 78 153l20 46l42 -17l-15 -39q-24 -59 -52 -109q-41 -73 -84 -113q-56 -52 -115 -52q-11 0 -16 1q-58 6 -83 45q-20 32 -20 89q0 23 2.5 45.5t7.5 55.5l4 30
l-41 -78q-36 -72 -104 -124q-79 -61 -162 -61q-29 0 -56 7q-81 22 -119.5 84t-38.5 151q0 128 72.5 275.5t182.5 244.5q120 106 236 106q21 0 48.5 -4.5t52.5 -22.5q17 -13 27 -29l17 -26l110 367q9 30 9 49q0 24 -12 37q-7 8 -25 15q-10 3 -29 6.5t-34 3.5h-39l8 47z
M670 810q-7 2 -22 2q-85 0 -182 -142q-79 -115 -128 -260q-23 -69 -36 -125q-18 -74 -18 -125q0 -52 17 -84.5t58 -42.5q15 -4 33 -4q56 0 111 51q46 43 91 122q35 62 70.5 147.5t56.5 160.5q26 95 26 163q0 55 -18 91t-59 46z" />
    <glyph glyph-name="e" unicode="e" horiz-adv-x="684" 
d="M801 696q-14 -84 -80 -156q-51 -56 -139 -108q-57 -33 -137 -68l-126 -54l-25 -79q-4 -12 -7.5 -36.5t-3.5 -46.5q0 -52 18 -84q23 -42 75 -48q5 -1 15 -1q60 0 132 59q64 52 120 133l34 48l40 -22l-26 -36q-75 -106 -141 -158q-86 -67 -181 -67h-18q-12 2 -18 2
q-99 13 -148 80q-44 61 -44 162q0 131 72 279t184 247q120 106 241 106q84 0 128 -49q36 -40 36 -90q0 -9 -1 -13zM655 802q-14 5 -16 5h-11q-68 0 -150 -120q-67 -97 -114 -225l-32 -101l82 42q126 65 207 168q74 94 74 166q0 50 -40 65z" />
    <glyph glyph-name="f" unicode="f" horiz-adv-x="561" 
d="M929 1221q7 -15 7 -31q0 -26 -19.5 -43t-37.5 -14q-37 6 -52 38q-12 32 -23 65q-9 19 -22 26t-32 7q-58 0 -113 -95q-49 -83 -73 -192l-36 -157h164l-10 -46h-166l-220 -888q-18 -74 -52 -150q-52 -115 -120 -183q-90 -90 -198 -90q-47 0 -84 15q-56 23 -78 75
q-7 17 -7 33q0 22 14.5 36.5t33.5 14.5q7 0 10 -1q33 -9 46 -41t24 -64q5 -9 23 -17.5t35 -8.5q51 0 96 73q40 65 69 177l265 1019h-164l16 46h158l29 93q34 112 72 186q49 96 111 147q73 60 168 60q47 0 85 -15q58 -23 81 -75z" />
    <glyph glyph-name="g" unicode="g" horiz-adv-x="879" 
d="M1029 745q2 -12 2 -17q0 -32 -21.5 -53.5t-52.5 -21.5q-23 0 -40 13t-22.5 34.5t-9.5 41.5q-8 19 -28 19q-16 0 -30 -9q-8 -5 -27 -24l-16 -16q19 -64 19 -120q0 -67 -31 -144q-45 -112 -126 -178q-86 -70 -193 -70l-130 -11q-38 -3 -65 -22q-34 -23 -34 -59
q0 -39 63 -65q48 -19 121 -29q37 -4 74 -7q49 -7 98 -15q90 -21 142 -67q72 -64 72 -173q0 -136 -124 -211q-110 -66 -278 -66q-157 0 -267 55q-131 66 -131 190q0 60 43.5 104.5t101.5 44.5q23 0 47 -9l28 -10q-30 -16 -45 -30q-45 -44 -45 -110q0 -91 73.5 -143t194.5 -52
q118 0 198 40q97 49 97 141q0 111 -135 142q-86 13 -126 19t-88 13q-95 19 -151 55q-79 50 -79 129q0 62 42.5 106.5t110.5 61.5l53 14l-46 39q-39 32 -58.5 77.5t-19.5 95.5q0 142 115.5 270t257.5 128q87 0 134 -37q1 0 57 -54l39 30q33 26 62 38t64 12q39 0 71 -25
t39 -65zM649 530q15 62 15 115q0 70 -26 112.5t-75 42.5q-82 0 -144 -94q-52 -79 -82 -208q-11 -47 -11 -95q0 -65 20 -105q24 -48 75 -57q18 -2 26 -2q81 0 135 97q34 62 67 194z" />
    <glyph glyph-name="h" unicode="h" horiz-adv-x="1031" 
d="M1091 259l-21 -45q-55 -116 -125 -180t-146 -64q-15 0 -22 1q-45 6 -64 40t-19 88q0 63 24 150q5 18 30 93q17 54 53.5 151.5t44.5 122.5q19 61 19 98q0 30 -12.5 48t-39.5 18q-10 1 -13 1q-65 0 -147 -91q-67 -75 -134 -197q-56 -102 -86 -187l-109 -306h-128l334 1142
q6 23 6 39q0 24 -16 48q-5 9 -25.5 15t-37.5 6h-60l11 47l320 18l-230 -757l49 71q78 115 161 168q66 42 136 42q16 0 24 -1q61 -6 90 -48q26 -38 26 -104q0 -85 -45 -226q-18 -55 -83 -234q-46 -126 -46 -163q0 -23 11 -28t23 -5q42 0 98 70q42 53 86 135l23 44z" />
    <glyph glyph-name="i" unicode="i" horiz-adv-x="585" 
d="M682 1209q0 -37 -27.5 -62.5t-65.5 -25.5q-34 0 -58 25t-24 59q0 38 24.5 66t61.5 28t63 -26t26 -64zM660 255l-26 -47q-58 -104 -106 -154q-68 -71 -145 -71q-15 0 -30 3q-47 8 -72 44t-25 93q0 60 28 129l166 410q9 23 15 46.5t6 40.5q0 48 -39 48q-28 0 -83 -65
q-46 -55 -74 -106l-23 -41l-35 23l20 37q56 103 117.5 157t122.5 54q58 0 91 -45q30 -41 30 -100q0 -20 -2.5 -34.5t-10.5 -35.5l-156 -413q-15 -42 -31 -87.5t-16 -69.5q0 -17 10 -22.5t22 -5.5q54 0 133 110q31 43 55 88l21 39z" />
    <glyph glyph-name="j" unicode="j" horiz-adv-x="485" 
d="M700 1186q0 -40 -24 -69t-61 -29q-36 0 -62.5 25.5t-26.5 61.5t25 63t61 27q35 0 61.5 -22.5t26.5 -56.5zM501 277q-32 -123 -92 -321t-65 -203q-44 -148 -132 -223q-73 -62 -157 -62h-24q-58 0 -92 10q-57 17 -73 61q-4 9 -5 16.5t-1 15.5q0 25 17 39t37 12
q26 -3 43 -27q14 -30 27 -61q11 -14 22.5 -19.5t27.5 -5.5q11 0 17 1q63 8 114 101q44 81 83 232l204 804q4 15 8.5 37t4.5 36q0 17 -5.5 25.5t-19.5 6.5q-28 -5 -88 -79q-48 -60 -80 -113l-25 -41l-36 23l21 38q57 106 125 170t136 76q7 2 14.5 2h11.5q42 0 60 -31t18 -88
q0 -80 -37 -222q-30 -105 -59 -210z" />
    <glyph glyph-name="k" unicode="k" horiz-adv-x="988" 
d="M1042 225l-16 -43q-40 -105 -99 -161q-53 -50 -111 -50q-15 0 -23 2q-65 13 -91 57q-20 34 -20 98l10 160v14.5t1 15.5q0 13 -1.5 22t-8.5 28.5t-40 36.5q-5 3 -16 6l-158 -71l-99 -340l-146 -1l311 1160q7 26 7 38q0 16 -12 33q-7 9 -31.5 14.5t-42.5 5.5h-61l9 47
l319 11l-176 -668l45 54q59 73 118 108q74 44 155 44q61 0 101 -36t40 -86q0 -7 -2 -21q-11 -55 -51 -100q-31 -34 -95 -73q-38 -23 -117 -63l-62 -32l22 -8q37 -12 42 -14q16 -8 31 -22q32 -31 43 -57q15 -35 15 -98l-1 -125q-1 -20 -1 -31q0 -22 6 -34.5t25 -12.5
q36 0 79 75q18 32 45 89l20 43zM858 760q-22 31 -59 31q-71 0 -154 -94q-90 -102 -147 -265l-14 -40l105 45q118 52 199 136t81 149q0 23 -11 38z" />
    <glyph glyph-name="l" unicode="l" horiz-adv-x="598" 
d="M733 1309l-313 -1018q-16 -53 -27 -103.5t-11 -85.5q0 -31 10 -45q15 -19 33 -19q48 0 123 116q32 49 50 88l21 44l43 -27l-26 -50q-53 -103 -106 -157q-69 -71 -147 -71q-15 0 -32 3q-51 10 -78.5 50t-27.5 104q0 55 21 126l267 888q5 17 5 32q0 26 -16 42
q-8 8 -36.5 16t-50.5 8h-37l11 47z" />
    <glyph glyph-name="m" unicode="m" horiz-adv-x="1461" 
d="M1540 261l-22 -49q-50 -108 -115 -171q-69 -67 -141 -67q-7 0 -17 1.5t-15 2.5q-48 11 -68 45t-20 84q0 34 8.5 71t21.5 74l112 310q20 57 30.5 99.5t10.5 63.5q0 28 -11 42t-38 11q-89 -11 -196 -172q-99 -149 -158 -335l-86 -271h-140l108 344l64 198q37 123 37 180
q0 60 -38 60q-56 0 -130 -92q-62 -76 -122 -197q-53 -106 -78 -184l-98 -309h-149l102 346l54 204q24 107 24 163q0 34 -7.5 52t-25.5 18q-43 0 -101 -86q-45 -66 -67 -125l-16 -44l-43 22l21 41q62 120 87 153q66 87 150 97q6 1 19 1q52 0 81 -37t29 -109q0 -31 -6 -67
l-13 -109l22 41q77 139 149.5 209t147.5 70q68 0 102 -31t34 -101q0 -40 -14 -101l-8 -40l43 66q63 97 115 143q72 63 152 63q64 0 94 -39q26 -34 26 -102q0 -84 -46 -227q-10 -31 -86 -237q-46 -125 -46 -163v-8q2 -5 2 -7q8 -24 28 -24q37 0 100 75q58 68 87 133l19 41z
" />
    <glyph glyph-name="n" unicode="n" horiz-adv-x="1085" 
d="M1172 256l-22 -49q-50 -109 -110 -168q-67 -66 -140 -66q-21 0 -44 6q-48 14 -68 50t-20 87q0 60 25 138q29 75 33 87q20 58 51 139q39 101 46 124q19 61 19 98q0 31 -12.5 49.5t-41.5 24.5q-12 2 -17 2q-62 0 -140 -87q-62 -69 -128 -189q-56 -102 -81 -176l-111 -326
h-139l107 344q34 112 53 201q23 105 23 162q0 32 -6.5 49.5t-21.5 19.5q-56 10 -131 -122q-40 -78 -50 -97l-23 -41l-35 23l20 37q43 80 86 161q65 95 147 95q13 1 19 1q58 0 89.5 -35t31.5 -106q0 -26 -2 -39.5t-3 -21.5l-15 -111l37 65q33 57 69 104q51 66 100 101
q64 45 129 45q26 0 45 -5q64 -15 93 -60q26 -40 26 -106q0 -79 -43 -209q-11 -33 -79 -215q-44 -118 -44 -160q0 -29 16 -41q11 -8 26 -8q43 0 97 70q44 56 79 134l19 41z" />
    <glyph glyph-name="o" unicode="o" horiz-adv-x="796" 
d="M863 515q0 -203 -134 -368q-140 -172 -326 -172q-116 0 -185.5 80.5t-69.5 218.5q0 206 138 385q142 184 312 184q135 0 205 -103q60 -88 60 -225zM725 633q0 75 -24 115q-29 49 -96 49q-98 0 -187 -150q-69 -116 -100 -252q-9 -41 -18 -81q-18 -87 -18 -143
q0 -68 36 -110t94 -42q100 0 181 138q64 110 107 288q11 44 18 94t7 94z" />
    <glyph glyph-name="p" unicode="p" horiz-adv-x="979" 
d="M903 838q82 -27 122 -95q37 -63 37 -154q0 -200 -148 -401q-154 -209 -324 -209q-29 0 -59.5 8t-61.5 31.5t-36 35.5l-14 27l-113 -415q-15 -57 -15 -85q0 -38 32 -52q19 -8 34 -11t41 -3l21 -1l-7 -46q-48 0 -118 3.5t-98 3.5q-43 0 -72 -2q-102 -7 -115 -7l10 48l34 2
q22 0 43 9.5t32.5 28t25.5 61.5t15 48l283 1040q-38 -16 -86 -52q-45 -37 -53 -43q-22 -16 -45 -49.5t-36 -67.5l-15 -37l-41 16l8 23q18 55 43 91.5t71 77.5q14 12 116 85q36 26 49 43q23 31 34 60q7 19 18 64l59 230l135 -20l-131 -472l57 80q26 38 67 68q66 49 136 49
q33 0 65 -11zM865 419q25 73 37 125q17 72 17 127q0 53 -17 86t-58 44q-14 3 -27 3q-76 0 -160 -110q-66 -87 -119 -215q-33 -83 -53 -158q-24 -92 -24 -161q0 -59 18.5 -94.5t60.5 -44.5q12 -2 19 -2q85 0 180 140q79 115 126 260z" />
    <glyph glyph-name="q" unicode="q" horiz-adv-x="862" 
d="M932 825l-339 -1211q-10 -36 -10 -57q0 -19 8.5 -32t32.5 -18t59 -5l39 1l-9 -45q-47 4 -110 6.5t-111 2.5q-27 0 -83.5 -2t-119.5 -8l10 45h27q29 0 42 2q29 5 45 21q12 12 23 38q6 15 13 39l168 582l-41 -70q-38 -65 -102.5 -105t-140.5 -40q-19 0 -39 3
q-78 12 -115.5 75t-37.5 161q0 209 135 408q147 217 336 217q39 0 73 -13q45 -17 65 -52l27 -47l23 104h132zM659 368q30 75 47.5 151t17.5 138q0 58 -17.5 93.5t-55.5 40.5q-4 1 -13 1q-78 0 -166 -121q-80 -111 -143 -285q-24 -67 -38 -131t-14 -114q0 -56 16.5 -89.5
t53.5 -41.5q7 -2 22 -2q73 0 151 99q74 95 139 261z" />
    <glyph glyph-name="r" unicode="r" horiz-adv-x="819" 
d="M966 789q4 -12 4 -26q0 -54 -53 -68q-12 -3 -25 -3q-22 0 -38 9.5t-23 30.5q-2 26 -3.5 43.5t-16.5 19.5q-38 6 -115 -132t-139 -325l-113 -338h-142l100 336q17 59 35.5 170t18.5 186q0 47 -6.5 73t-23.5 31q-20 6 -82 -86q-54 -80 -69 -116l-20 -47l-46 19l20 40
q56 108 105 167q67 80 128 80q64 0 98 -51q31 -47 31 -130q0 -35 -6 -73l-10 -65l30 66q52 111 106 174q70 81 141 81q91 0 114 -66z" />
    <glyph glyph-name="s" unicode="s" horiz-adv-x="646" 
d="M733 747q1 -6 1 -8q0 -25 -14 -39.5t-36 -14.5q-21 0 -34 7t-18 22t-5 31v16q0 14 -6 25q-13 20 -34.5 25.5t-54.5 5.5h-12q-37 0 -72.5 -35.5t-35.5 -74.5q0 -29 12 -62.5t25 -51.5l102 -137q42 -56 62 -97q30 -62 30 -121q0 -17 -3 -35q-19 -120 -122 -176
q-80 -43 -195 -43q-69 0 -132 32q-89 45 -89 129q0 32 18.5 53.5t44.5 17.5q21 -3 33 -17.5t14 -27.5t2 -16v-5q0 -9 -4 -28t-2 -28q5 -37 50 -56q31 -13 67 -13q60 0 105 23q57 29 68 86q3 15 3 31q0 35 -15.5 73.5t-43.5 76.5l-123 169q-24 34 -35 61q-14 35 -14 75
q0 12 1 19q8 100 81 159q64 52 162 61q6 1 19 1q68 0 125 -24q75 -32 75 -89z" />
    <glyph glyph-name="t" unicode="t" horiz-adv-x="609" 
d="M752 841l-12 -46h-154l-13 -38l-97 -348q-19 -76 -37 -151q-33 -143 -33 -186q0 -13 2 -16q11 -20 30 -20q38 0 100 80q53 69 76 123l26 60l42 -18l-25 -55q-47 -102 -103 -166q-73 -83 -151 -83q-14 0 -21 1q-63 9 -92.5 48.5t-29.5 103.5q0 52 21 125l157 540h-161
l15 45h161l94 283h139l-89 -282h155z" />
    <glyph glyph-name="u" unicode="u" horiz-adv-x="1115" 
d="M1189 271l-29 -65q-48 -107 -105 -165t-123 -58q-75 0 -107 49q-26 39 -26 110q0 18 2 40t4 42l6 46l-55 -87q-49 -85 -120 -139q-77 -59 -156 -59q-44 0 -86 20t-59 57t-17 93q0 77 37 204q34 107 70.5 220.5t36.5 162.5q0 48 -28 59q-26 10 -94 -74q-57 -70 -101 -147
l-25 -44l-40 18l17 33q62 118 126 188q79 86 153 86q18 0 33 -4q52 -14 75 -59q19 -36 19 -95q0 -52 -17 -118q-6 -22 -19 -63.5t-50 -156.5q-32 -99 -44 -146q-19 -73 -19 -111q0 -43 23 -55q18 -9 39 -9q79 0 167 107q100 122 173 339l113 335h146l-102 -341
q-26 -83 -49.5 -197.5t-23.5 -173.5q0 -65 27 -71q38 -7 95 75q40 58 60 106l27 65z" />
    <glyph glyph-name="v" unicode="v" horiz-adv-x="996" 
d="M1110 667q-23 -162 -92 -311q-77 -164 -188 -262q-126 -110 -273 -110q-110 0 -160 77q-40 62 -40 170q6 69 57 176q36 75 93 167l52 82l10 24l-20 -10q-27 -12 -45 -17t-33 -5q-8 0 -19.5 1.5t-18.5 1.5q-9 0 -48 16t-58 16q-11 0 -21.5 -5.5t-11.5 -42.5t-16 -35
q-17 0 -21.5 19t-4.5 50q0 64 30.5 97.5t78.5 33.5q68 0 110.5 -34.5t62.5 -34.5q7 0 11 1q58 7 91 90q15 38 40 38q8 0 13 -1q23 -5 23 -25q0 -16 -11.5 -42t-42.5 -76q-51 -82 -87 -193q-43 -131 -43 -242q0 -102 13 -150q21 -78 79 -86q16 -2 24 -2q81 0 158 87
q60 68 108 175q37 82 46 130t11.5 81.5t2.5 78.5v53l-3 153q0 19 14 38q18 24 46 24q48 0 70 -44q17 -34 17 -92q0 -17 -1.5 -34.5t-2.5 -25.5z" />
    <glyph glyph-name="w" unicode="w" horiz-adv-x="1335" 
d="M1436 648q-12 -125 -46 -225q-33 -80 -37 -90q-56 -156 -156 -251q-110 -105 -242 -105q-55 0 -96.5 37.5t-47.5 84.5l-9 60l-54 -67q-45 -55 -115 -88q-65 -30 -128 -30q-21 0 -41 5q-83 22 -118 71q-29 41 -29 110q0 12 0.5 23t4.5 45q9 69 65 176q39 75 102 168
q28 40 57 81l33 52l-46 -35q-29 -21 -69 -21q-17 0 -29 3.5t-48 19.5t-52 16q-9 0 -20.5 -6t-14.5 -42.5t-20 -36.5q-15 0 -19 21.5t-4 50.5q0 65 30 98.5t78 33.5q57 0 110 -53q25 -25 53 -25q64 0 86.5 63.5t49.5 63.5q8 0 21 -2t13 -25q0 -17 -14 -47t-43 -71
q-50 -70 -92.5 -191t-58.5 -240q-5 -38 -5 -73q0 -66 18 -108q22 -50 67 -58q16 -2 22 -2q59 0 108 55q41 45 75 127q25 60 47 140l92 341q8 31 27.5 51.5t47.5 20.5q63 0 63 -72q0 -18 -2.5 -33t-10.5 -42l-88 -305q-4 -14 -9 -38q-12 -60 -12 -109q0 -51 13.5 -86.5
t45.5 -47.5q20 -7 41 -7q90 0 171 146q62 112 86 233q7 32 10 73.5t3 78.5q0 41 -3 68l-18 138q-3 30 16 57.5t50 27.5q54 0 77 -46q18 -36 18 -97q0 -18 -1.5 -37t-2.5 -28z" />
    <glyph glyph-name="x" unicode="x" horiz-adv-x="932" 
d="M987 820q7 -8 11.5 -21.5t4.5 -31.5q0 -22 -8.5 -47.5t-28.5 -52.5l-70 -96l-39 18l27 42q15 24 27.5 52t12.5 46q0 24 -21 31q-3 1 -11 1q-24 0 -61 -32q-30 -26 -49 -52l-149 -199l100 -292q15 -46 23 -59q21 -35 55 -35q6 1 9 1q19 2 40 38t32 82l13 43l46 -23
l-19 -52q-32 -92 -82.5 -149.5t-106.5 -57.5q-32 0 -60 21q-36 27 -55 80l-97 263l-202 -298q-17 -24 -54 -45q-32 -18 -58 -18q-20 0 -38 8.5t-35 28.5q-13 15 -13 49q0 26 8.5 53t29.5 58l59 90l46 -19l-33 -53q-14 -22 -23 -44.5t-9 -42.5q0 -30 25 -38q8 -2 11 -2
q24 0 54 31q23 24 53 69l155 233l-102 292q-8 20 -18 31q-13 14 -33 14q-8 0 -17.5 -2t-25.5 -36q-22 -46 -28 -85l-8 -39l-43 8l5 26q14 78 45 140q50 98 123 106q6 1 18 1q32 0 54 -15q29 -19 46 -67l86 -246l95 136q62 91 118.5 138.5t102.5 47.5q35 0 62 -28z" />
    <glyph glyph-name="y" unicode="y" horiz-adv-x="780" 
d="M857 749q6 -51 6 -102q0 -67 -6.5 -121t-16.5 -109q-25 -137 -92 -289q-57 -130 -138 -258q-68 -107 -131 -178q-54 -61 -67 -74q-61 -62 -120 -100q-80 -51 -147 -51q-17 0 -36 3.5t-35 18.5q-19 18 -15 39q9 40 37.5 53.5t69.5 13.5q9 0 26.5 -1t24.5 -1q78 0 123 25
q14 8 49 41q68 65 106 145q32 67 32 116l6 42q2 21 -3.5 101.5t-20.5 184.5t-39 189.5t-39 129.5q-26 77 -47 116q-28 51 -52 51q-32 0 -46 -94q-8 -55 -8 -106v-49l-41 4v32v28q0 143 35.5 217t102.5 82q4 1 12 1q63 0 120 -96.5t98 -273.5q26 -106 44 -262
q15 -132 13 -160l50 106q9 20 31 76q28 73 34 99q11 50 22 103.5t11 96.5q0 36 -6 67t-23 68q-4 8 -43 58q-16 21 -23 43q-3 11 -3 20q0 25 15.5 41t46.5 16q37 0 56.5 -26t26.5 -76z" />
    <glyph glyph-name="z" unicode="z" horiz-adv-x="855" 
d="M845 188q-9 -85 -51 -135q-52 -61 -148 -61q-79 0 -174 66t-143 66q-13 0 -23.5 -1t-27.5 -15.5t-22 -28.5l-22 -53q-7 -16 -16.5 -25.5t-24.5 -9.5q-6 0 -9 1q-22 6 -22 29q0 14 9 34t23 38l426 555l38 55l-52 -12q-26 -6 -46.5 -8t-34.5 -2h-33q-20 0 -80 13
q-28 6 -43 6q-23 0 -42.5 -12t-24.5 -58.5t-9 -47.5q-19 -4 -29 31t-10 75q0 66 55 113.5t117 47.5q68 0 127.5 -56.5t114.5 -56.5q13 0 31 16t24 32l24 53q5 11 14.5 18.5t21.5 7.5q5 0 8 -1q22 -8 22 -27q0 -17 -21 -46l-413 -552l-47 -60l56 8q18 3 34 4t31 1
q14 0 29 -0.5t31 -0.5q34 0 88 -15t79 -15q14 0 21.5 1t22.5 6q42 14 60 54q9 39 19 79q18 0 30.5 -32t12.5 -67q-1 -8 -1 -12z" />
    <glyph glyph-name="braceleft" unicode="{" horiz-adv-x="497" 
d="M817 1301q-52 -13 -95 -45q-39 -29 -58 -64q-34 -63 -37 -70q-9 -20 -16 -46l-114 -421q-26 -93 -105 -146q-53 -33 -108 -41q24 -2 48 -13q33 -15 52 -40q12 -16 17.5 -38t5.5 -46q0 -17 -2.5 -35t-5.5 -29l-110 -447q-3 -14 -6 -33t-3 -41q0 -14 1 -20q0 -33 25 -58
q9 -9 40 -28l31 -19l-61 1q-36 0 -67 10q-39 13 -63 37q-17 18 -25.5 43t-8.5 54q0 33 10 71l108 424q7 23 10.5 47t3.5 38q0 21 -4.5 37.5t-15.5 30.5q-17 20 -41.5 34.5t-51.5 18.5q39 0 86 28q24 15 55 40q18 15 32 43t25 70l98 367q5 22 20 65q22 63 45 98q40 59 85 88
q51 32 118 32z" />
    <glyph glyph-name="bar" unicode="|" horiz-adv-x="661" 
d="M523 -541h-106l1 1838h103z" />
    <glyph glyph-name="braceright" unicode="}" horiz-adv-x="531" 
d="M626 1082l-111 -423q-4 -16 -7 -35t-3 -41q0 -26 4.5 -44t17.5 -35q33 -42 87 -52q-30 0 -67 -17.5t-74 -50.5q-24 -20 -40 -59q-8 -20 -17 -53l-98 -368q-8 -38 -9 -40q-21 -80 -50 -123q-40 -59 -90.5 -89.5t-118.5 -30.5l-83 -3q52 13 87 40q29 23 65 71q21 27 38 66
q9 22 17 48l114 421q26 95 105 146q56 35 108 41q-23 2 -48 14q-33 16 -50 41q-12 17 -17.5 41t-5.5 51q0 15 2 30.5t4 23.5l117 445q9 33 9 62q0 8 -2.5 30t-14.5 44t-37 36l-50 28h61q37 0 74.5 -11.5t58.5 -35.5q33 -40 33 -102q0 -20 -1.5 -30t-7.5 -36z" />
    <glyph glyph-name="asciitilde" unicode="~" horiz-adv-x="912" 
d="M1175 1252l-37 -51q-39 -54 -81 -79.5t-102 -25.5q-55 0 -120.5 26.5t-132 53.5t-118.5 27q-25 0 -58 -25t-53 -59l-24 -41l-67 50l24 38q32 52 83.5 88.5t88.5 36.5q78 0 155 -28q204 -74 213.5 -75.5t19.5 -1.5q33 0 60 15.5t44 39.5l37 56z" />
    <glyph glyph-name="Adieresis" unicode="&#xc4;" horiz-adv-x="1358" 
d="M1312 39l-1 -47q-54 0 -150 2t-108 2q-44 0 -128.5 -2t-129.5 -2l1 47l91 4q36 0 67 36q9 10 13 24.5t4 32.5q0 10 -1 16l-51 384h-381l-165 -320q-18 -35 -28.5 -63t-10.5 -47q0 -12 3 -22t34 -27.5t54 -17.5h63l-5 -47q-61 6 -115 8t-110 2q-35 0 -98 -5t-103 -5l10 47
l52 10q34 6 74 37q39 27 58 60l686 1169h53l165 -1184q4 -32 20 -56q20 -31 54 -31zM914 593l-63 484l-280 -484h343zM1254 1542q0 -45 -33.5 -77.5t-80.5 -32.5q-43 0 -73 33t-30 78q0 41 31 71t73 30q45 0 79 -29t34 -73zM902 1542q0 -45 -33.5 -77.5t-80.5 -32.5
q-43 0 -73 33t-30 78q0 41 31 71t73 30q45 0 79 -29t34 -73z" />
    <glyph glyph-name="Aring" unicode="&#xc5;" horiz-adv-x="1377" 
d="M1189 1626q0 -81 -58.5 -139.5t-139.5 -58.5q-75 0 -127.5 57.5t-52.5 135.5q0 74 55.5 128.5t130.5 54.5q78 0 135 -51t57 -127zM1136 1624q0 61 -42.5 95.5t-102.5 34.5q-54 0 -91 -42t-37 -98t39.5 -96.5t94.5 -40.5q56 0 97.5 40.5t41.5 95.5v11zM1312 31l-1 -47
q-54 0 -150 2t-108 2q-44 0 -128.5 -2t-129.5 -2l1 47l91 4q36 0 67 36q9 10 13 24.5t4 32.5q0 10 -1 16l-51 384h-381l-165 -320q-18 -35 -28.5 -63t-10.5 -47q0 -12 3 -22t34 -27.5t54 -17.5h63l-5 -47q-61 6 -115 8t-110 2q-35 0 -98 -5t-103 -5l10 47l52 10q34 6 74 37
q39 27 58 60l686 1169h53l165 -1184q4 -32 20 -56q20 -31 54 -31zM914 585l-63 484l-280 -484h343z" />
    <glyph glyph-name="Ccedilla" unicode="&#xc7;" horiz-adv-x="1227" 
d="M1393 1283l-79 -362l-35 3l-12 115q-10 102 -78 168q-73 71 -186 71q-21 0 -33 -1t-36 -6q-172 -32 -308 -226q-115 -164 -165 -376q-18 -75 -26.5 -140.5t-8.5 -127.5q0 -150 54 -242q61 -103 189 -134q51 -13 104 -13q126 0 232 82q113 88 209 276l18 36l41 3
l-103 -418h-18l-28 105l-32 -22q-73 -50 -160 -77.5t-186 -27.5q-51 0 -97 7l-47 6l-22 -74l25 -5q45 -6 73.5 -36.5t28.5 -75.5q-5 -65 -60 -96q-45 -26 -116 -26q-44 0 -88 20q-56 26 -56 66q0 19 9.5 32t26.5 13q28 0 39 -19q10 -26 16 -39.5t20 -20t35 -6.5
q36 0 59.5 17t29.5 52q2 12 2 17q0 58 -84 58h-23l41 135l-38 16q-144 66 -215 175q-74 114 -74 281q0 100 27 225q55 250 275 440t448 190q76 0 139 -16t128 -56l54 -33l68 65z" />
    <glyph glyph-name="Eacute" unicode="&#xc9;" horiz-adv-x="1204" 
d="M1334 981h-36l-23 69q-19 60 -51 103.5t-69.5 60t-82 23.5t-67.5 7h-244l-148 -522h174q50 0 101 31q23 14 47 46q17 22 26 42l41 85h39l-105 -502l-36 1v76q0 58 -9.5 91t-31.5 52q-13 13 -46.5 22t-64.5 9h-144l-112 -405q-11 -40 -15 -66t-4 -49q0 -36 12 -53
q3 -4 19 -16q29 -24 82 -36q38 -9 71 -9h141q77 0 144 25q55 21 93 54q24 20 44.5 43.5t31.5 42.5l74 127h41l-92 -341q-189 0 -283.5 1.5t-224.5 3.5t-230 2q-36 0 -185 -5q-59 -2 -140 -2l15 47h57q36 0 56.5 9t38.5 27q22 23 37 64q6 16 20 69l252 930q4 15 4 30
q0 19 -7 32t-18.5 24t-31.5 14.5t-46 3.5h-42l9 47q72 0 134 -2q186 -6 188 -6q98 0 173.5 1t181.5 3t128 2q24 0 54 -0.5t36 -3.5zM1198 1726q13 -20 13 -41q0 -27 -18 -50t-47 -37l-313 -157h-65l292 275q18 16 40.5 26t45.5 10q18 0 30.5 -5.5t21.5 -20.5z" />
    <glyph glyph-name="Ntilde" unicode="&#xd1;" horiz-adv-x="1483" 
d="M1744 1289l-9 -47h-36q-29 0 -56.5 -14.5t-51 -46t-38.5 -65t-27 -77.5l-296 -1084h-42l-539 1102l-206 -752q-9 -37 -16.5 -83t-7.5 -68q0 -25 3.5 -40.5t12.5 -26.5q21 -25 53 -36.5t68 -11.5h35l-7 -47l-236 3l-220 -3l8 47l39 3q37 3 66 16t56 42t54 98q18 46 35 107
l226 809l-15 29q-15 28 -24 42q-15 21 -37 39q-11 7 -24 12q-23 8 -55 8l-44 -2v47q40 0 56 -1q81 -5 105 -5q30 0 80 3t81 3l512 -1051l207 768q7 25 11.5 54t4.5 56q0 30 -7.5 54.5t-24 38.5t-46 23.5t-59.5 9.5h-26l14 47q43 0 80 -3q111 -9 130 -9q43 0 81 3
q113 9 132 9zM1519 1621l-37 -51q-39 -54 -81 -79.5t-102 -25.5q-55 0 -120.5 26.5t-132 53.5t-118.5 27q-25 0 -58 -25t-53 -59l-24 -41l-67 50l24 38q32 52 83.5 88.5t88.5 36.5q78 0 155 -28q204 -74 213.5 -75.5t19.5 -1.5q33 0 60 15.5t44 39.5l37 56z" />
    <glyph glyph-name="Odieresis" unicode="&#xd6;" 
d="M1478 823q0 -208 -103 -407t-276 -319q-189 -131 -410 -131q-209 0 -343 138t-134 359q0 344 232 602q237 263 563 263q203 0 337 -142t134 -363zM1281 898q0 164 -66 268q-75 119 -219 119q-131 0 -268.5 -138.5t-223.5 -343.5q-91 -216 -91 -427q0 -168 64 -261
q73 -106 224 -106q167 0 310 163q123 140 200 361q70 200 70 365zM1328 1543q0 -45 -33.5 -77.5t-80.5 -32.5q-43 0 -73 33t-30 78q0 41 31 71t73 30q45 0 79 -29t34 -73zM976 1543q0 -45 -33.5 -77.5t-80.5 -32.5q-43 0 -73 33t-30 78q0 41 31 71t73 30q45 0 79 -29t34 -73
z" />
    <glyph glyph-name="Udieresis" unicode="&#xdc;" horiz-adv-x="1417" 
d="M1711 1289l-3 -47h-28q-25 0 -50.5 -12t-57.5 -48q-23 -26 -35 -57q-3 -8 -19 -65l-187 -653q-69 -240 -211 -348q-128 -97 -330 -97q-178 0 -296 87q-126 93 -126 247q0 50 15 106l198 722q7 24 7 46q0 38 -28 59q-11 8 -36 10.5t-61 2.5h-13h-33l8 47q58 0 143 -3.5
t120 -3.5q65 0 158.5 3.5t132.5 3.5l-12 -47h-31q-42 0 -58.5 -2t-39 -14t-46.5 -51.5t-36 -86.5l-189 -694q-16 -60 -16 -111q0 -139 111 -210q82 -53 183 -53q149 0 250 83q81 67 136 192q29 66 70 212q6 7 47 152t54 206t28 129q20 95 18 103q2 8 2 30q0 26 -5 43
q-8 25 -25.5 40.5t-47.5 23.5t-49 8h-35l12 47q109 -11 207 -11q97 0 204 11zM1461 1548q0 -45 -33.5 -77.5t-80.5 -32.5q-43 0 -73 33t-30 78q0 41 31 71t73 30q45 0 79 -29t34 -73zM1109 1548q0 -45 -33.5 -77.5t-80.5 -32.5q-43 0 -73 33t-30 78q0 41 31 71t73 30
q45 0 79 -29t34 -73z" />
    <glyph glyph-name="aacute" unicode="&#xe1;" horiz-adv-x="936" 
d="M1017 288l-17 -38q-33 -76 -53 -113q-38 -70 -78 -105q-52 -46 -115 -46q-114 0 -114 123q0 25 2 38l9 73l-35 -61q-42 -72 -104 -119q-72 -55 -151 -55q-33 0 -66 10q-79 24 -115.5 83.5t-36.5 144.5q0 127 76 275.5t190 244.5q124 105 244 105q19 0 37 -2t46 -14.5
t44 -36.5l33 -47l27 76h134l-177 -535q-10 -29 -19 -88t-9 -101q0 -50 14 -53q45 -8 108 89q27 42 66 122l22 45zM696 804q-12 3 -25 3q-61 0 -131 -74q-60 -64 -117 -164q-39 -70 -83 -171q-26 -62 -42 -124.5t-16 -117.5q0 -52 17 -85t56 -41q15 -3 30 -3q58 0 113 49
q44 39 92 118q35 58 75 144q44 94 71 174q35 105 35 173q0 49 -16 77q-19 32 -59 42zM1014 1259q13 -20 13 -41q0 -27 -18 -50t-47 -37l-313 -157h-65l292 275q18 16 40.5 26t45.5 10q18 0 30.5 -5.5t21.5 -20.5z" />
    <glyph glyph-name="agrave" unicode="&#xe0;" horiz-adv-x="953" 
d="M1017 288l-17 -38q-33 -76 -53 -113q-38 -70 -78 -105q-52 -46 -115 -46q-114 0 -114 123q0 25 2 38l9 73l-35 -61q-42 -72 -104 -119q-72 -55 -151 -55q-33 0 -66 10q-79 24 -115.5 83.5t-36.5 144.5q0 127 76 275.5t190 244.5q124 105 244 105q19 0 37 -2t46 -14.5
t44 -36.5l33 -47l27 76h134l-177 -535q-10 -29 -19 -88t-9 -101q0 -50 14 -53q45 -8 108 89q27 42 66 122l22 45zM696 804q-12 3 -25 3q-61 0 -131 -74q-60 -64 -117 -164q-39 -70 -83 -171q-26 -62 -42 -124.5t-16 -117.5q0 -52 17 -85t56 -41q15 -3 30 -3q58 0 113 49
q44 39 92 118q35 58 75 144q44 94 71 174q35 105 35 173q0 49 -16 77q-19 32 -59 42zM1058 979h-66l-312 157q-28 13 -47 37t-19 50q0 21 13 41q8 13 22 19.5t31 6.5q46 0 85 -36z" />
    <glyph glyph-name="acircumflex" unicode="&#xe2;" horiz-adv-x="954" 
d="M1017 288l-17 -38q-33 -76 -53 -113q-38 -70 -78 -105q-52 -46 -115 -46q-114 0 -114 123q0 25 2 38l9 73l-35 -61q-42 -72 -104 -119q-72 -55 -151 -55q-33 0 -66 10q-79 24 -115.5 83.5t-36.5 144.5q0 127 76 275.5t190 244.5q124 105 244 105q19 0 37 -2t46 -14.5
t44 -36.5l33 -47l27 76h134l-177 -535q-10 -29 -19 -88t-9 -101q0 -50 14 -53q45 -8 108 89q27 42 66 122l22 45zM696 804q-12 3 -25 3q-61 0 -131 -74q-60 -64 -117 -164q-39 -70 -83 -171q-26 -62 -42 -124.5t-16 -117.5q0 -52 17 -85t56 -41q15 -3 30 -3q58 0 113 49
q44 39 92 118q35 58 75 144q44 94 71 174q35 105 35 173q0 49 -16 77q-19 32 -59 42zM1077 979h-49l-188 181l-278 -181h-75l314 314h103z" />
    <glyph glyph-name="adieresis" unicode="&#xe4;" horiz-adv-x="951" 
d="M1017 288l-17 -38q-33 -76 -53 -113q-38 -70 -78 -105q-52 -46 -115 -46q-114 0 -114 123q0 25 2 38l9 73l-35 -61q-42 -72 -104 -119q-72 -55 -151 -55q-33 0 -66 10q-79 24 -115.5 83.5t-36.5 144.5q0 127 76 275.5t190 244.5q124 105 244 105q19 0 37 -2t46 -14.5
t44 -36.5l33 -47l27 76h134l-177 -535q-10 -29 -19 -88t-9 -101q0 -50 14 -53q45 -8 108 89q27 42 66 122l22 45zM696 804q-12 3 -25 3q-61 0 -131 -74q-60 -64 -117 -164q-39 -70 -83 -171q-26 -62 -42 -124.5t-16 -117.5q0 -52 17 -85t56 -41q15 -3 30 -3q58 0 113 49
q44 39 92 118q35 58 75 144q44 94 71 174q35 105 35 173q0 49 -16 77q-19 32 -59 42zM1092 1071q0 -45 -33.5 -77.5t-80.5 -32.5q-43 0 -73 33t-30 78q0 41 31 71t73 30q45 0 79 -29t34 -73zM740 1071q0 -45 -33.5 -77.5t-80.5 -32.5q-43 0 -73 33t-30 78q0 41 31 71t73 30
q45 0 79 -29t34 -73z" />
    <glyph glyph-name="atilde" unicode="&#xe3;" horiz-adv-x="965" 
d="M1017 288l-17 -38q-33 -76 -53 -113q-38 -70 -78 -105q-52 -46 -115 -46q-114 0 -114 123q0 25 2 38l9 73l-35 -61q-42 -72 -104 -119q-72 -55 -151 -55q-33 0 -66 10q-79 24 -115.5 83.5t-36.5 144.5q0 127 76 275.5t190 244.5q124 105 244 105q19 0 37 -2t46 -14.5
t44 -36.5l33 -47l27 76h134l-177 -535q-10 -29 -19 -88t-9 -101q0 -50 14 -53q45 -8 108 89q27 42 66 122l22 45zM696 804q-12 3 -25 3q-61 0 -131 -74q-60 -64 -117 -164q-39 -70 -83 -171q-26 -62 -42 -124.5t-16 -117.5q0 -52 17 -85t56 -41q15 -3 30 -3q58 0 113 49
q44 39 92 118q35 58 75 144q44 94 71 174q35 105 35 173q0 49 -16 77q-19 32 -59 42zM1159 1151l-37 -51q-39 -54 -81 -79.5t-102 -25.5q-55 0 -120.5 26.5t-132 53.5t-118.5 27q-25 0 -58 -25t-53 -59l-24 -41l-67 50l24 38q32 52 83.5 88.5t88.5 36.5q78 0 155 -28
q204 -74 213.5 -75.5t19.5 -1.5q33 0 60 15.5t44 39.5l37 56z" />
    <glyph glyph-name="aring" unicode="&#xe5;" horiz-adv-x="944" 
d="M1008 1154q0 -81 -58.5 -139.5t-139.5 -58.5q-75 0 -127.5 57.5t-52.5 135.5q0 74 55.5 128.5t129.5 54.5q79 0 136 -51t57 -127zM957 1152q0 55 -44.5 92.5t-102.5 37.5q-55 0 -91.5 -41.5t-36.5 -98.5q0 -56 38.5 -96.5t94.5 -40.5q59 0 100.5 43.5t41.5 103.5z
M1017 288l-17 -38q-33 -76 -53 -113q-38 -70 -78 -105q-52 -46 -115 -46q-114 0 -114 123q0 25 2 38l9 73l-35 -61q-42 -72 -104 -119q-72 -55 -151 -55q-33 0 -66 10q-79 24 -115.5 83.5t-36.5 144.5q0 127 76 275.5t190 244.5q124 105 244 105q19 0 37 -2t46 -14.5
t44 -36.5l33 -47l27 76h134l-177 -535q-10 -29 -19 -88t-9 -101q0 -50 14 -53q45 -8 108 89q27 42 66 122l22 45zM696 804q-12 3 -25 3q-61 0 -131 -74q-60 -64 -117 -164q-39 -70 -83 -171q-26 -62 -42 -124.5t-16 -117.5q0 -52 17 -85t56 -41q15 -3 30 -3q58 0 113 49
q44 39 92 118q35 58 75 144q44 94 71 174q35 105 35 173q0 49 -16 77q-19 32 -59 42z" />
    <glyph glyph-name="ccedilla" unicode="&#xe7;" horiz-adv-x="696" 
d="M796 738q0 -33 -23.5 -57.5t-58.5 -24.5q-24 0 -40 22.5t-16 50.5q0 19 13 39q7 11 7 18q0 12 -10.5 16.5t-28.5 4.5q-12 -1 -17 -1q-66 -9 -125 -80q-45 -55 -91 -160q-34 -78 -62.5 -169t-38 -142t-9.5 -92q0 -55 18 -90t62 -47q18 -5 41 -5q81 0 161 87q39 42 81 114
l27 48l36 -23l-12 -23q-60 -118 -143.5 -182.5t-183.5 -64.5q-21 0 -36 2t-18 3q-6 2 -11 4l-23 -75l28 -4q40 -5 70 -34t30 -73q-6 -65 -58 -96q-45 -27 -115 -27q-43 0 -85 18q-57 24 -57 69q0 18 9.5 30.5t26.5 12.5q28 0 38 -19q8 -27 12.5 -41.5t21 -20.5t38.5 -6
q34 0 61.5 21.5t27.5 52.5q0 35 -24.5 54t-57.5 19l-25 -1l38 135q-14 9 -23 17q-13 12 -21 19q-40 35 -58.5 84.5t-18.5 114.5q0 202 151 402q158 210 339 210q18 0 27 -1q36 0 73 -21q53 -30 53 -88z" />
    <glyph glyph-name="eacute" unicode="&#xe9;" horiz-adv-x="706" 
d="M801 696q-14 -84 -80 -156q-51 -56 -139 -108q-57 -33 -137 -68l-126 -54l-25 -79q-4 -12 -7.5 -36.5t-3.5 -46.5q0 -52 18 -84q23 -42 75 -48q5 -1 15 -1q60 0 132 59q64 52 120 133l34 48l40 -22l-26 -36q-75 -106 -141 -158q-86 -67 -181 -67h-18q-12 2 -18 2
q-99 13 -148 80q-44 61 -44 162q0 131 72 279t184 247q120 106 241 106q84 0 128 -49q36 -40 36 -90q0 -9 -1 -13zM655 802q-14 5 -16 5h-11q-68 0 -150 -120q-67 -97 -114 -225l-32 -101l82 42q126 65 207 168q74 94 74 166q0 50 -40 65zM872 1258q13 -20 13 -41
q0 -27 -18 -50t-47 -37l-313 -157h-65l292 275q18 16 40.5 26t45.5 10q18 0 30.5 -5.5t21.5 -20.5z" />
    <glyph glyph-name="egrave" unicode="&#xe8;" horiz-adv-x="706" 
d="M801 688q-14 -84 -80 -156q-51 -56 -139 -108q-57 -33 -137 -68l-126 -54l-25 -79q-4 -12 -7.5 -36.5t-3.5 -46.5q0 -52 18 -84q23 -42 75 -48q5 -1 15 -1q60 0 132 59q64 52 120 133l34 48l40 -22l-26 -36q-75 -106 -141 -158q-86 -67 -181 -67h-18q-12 2 -18 2
q-99 13 -148 80q-44 61 -44 162q0 131 72 279t184 247q120 106 241 106q84 0 128 -49q36 -40 36 -90q0 -9 -1 -13zM655 794q-14 5 -16 5h-11q-68 0 -150 -120q-67 -97 -114 -225l-32 -101l82 42q126 65 207 168q74 94 74 166q0 50 -40 65zM914 979h-66l-312 157
q-28 13 -47 37t-19 50q0 21 13 41q8 13 22 19.5t31 6.5q46 0 85 -36z" />
    <glyph glyph-name="ecircumflex" unicode="&#xea;" horiz-adv-x="708" 
d="M801 696q-14 -84 -80 -156q-51 -56 -139 -108q-57 -33 -137 -68l-126 -54l-25 -79q-4 -12 -7.5 -36.5t-3.5 -46.5q0 -52 18 -84q23 -42 75 -48q5 -1 15 -1q60 0 132 59q64 52 120 133l34 48l40 -22l-26 -36q-75 -106 -141 -158q-86 -67 -181 -67h-18q-12 2 -18 2
q-99 13 -148 80q-44 61 -44 162q0 131 72 279t184 247q120 106 241 106q84 0 128 -49q36 -40 36 -90q0 -9 -1 -13zM655 802q-14 5 -16 5h-11q-68 0 -150 -120q-67 -97 -114 -225l-32 -101l82 42q126 65 207 168q74 94 74 166q0 50 -40 65zM963 972h-48l-183 176l-271 -176
h-73l306 306h100z" />
    <glyph glyph-name="edieresis" unicode="&#xeb;" horiz-adv-x="710" 
d="M801 696q-14 -84 -80 -156q-51 -56 -139 -108q-57 -33 -137 -68l-126 -54l-25 -79q-4 -12 -7.5 -36.5t-3.5 -46.5q0 -52 18 -84q23 -42 75 -48q5 -1 15 -1q60 0 132 59q64 52 120 133l34 48l40 -22l-26 -36q-75 -106 -141 -158q-86 -67 -181 -67h-18q-12 2 -18 2
q-99 13 -148 80q-44 61 -44 162q0 131 72 279t184 247q120 106 241 106q84 0 128 -49q36 -40 36 -90q0 -9 -1 -13zM655 802q-14 5 -16 5h-11q-68 0 -150 -120q-67 -97 -114 -225l-32 -101l82 42q126 65 207 168q74 94 74 166q0 50 -40 65zM982 1087q0 -45 -33.5 -77.5
t-80.5 -32.5q-43 0 -73 33t-30 78q0 41 31 71t73 30q45 0 79 -29t34 -73zM630 1087q0 -45 -33.5 -77.5t-80.5 -32.5q-43 0 -73 33t-30 78q0 41 31 71t73 30q45 0 79 -29t34 -73z" />
    <glyph glyph-name="iacute" unicode="&#xed;" horiz-adv-x="598" 
d="M645 255l-26 -47q-58 -104 -106 -154q-68 -71 -145 -71q-15 0 -30 3q-46 8 -71.5 44.5t-25.5 92.5q0 60 28 129l166 410q9 23 15 46.5t6 40.5q0 48 -39 48q-29 0 -83 -65q-47 -56 -74 -106l-23 -41l-35 23l20 37q56 103 117.5 157t122.5 54q58 0 91 -45q29 -40 29 -100
q0 -37 -12 -70l-156 -413q-18 -47 -30 -83q-17 -50 -17 -73q0 -18 10 -23.5t22 -5.5q54 0 133 110q31 43 55 88l21 39zM761 1259q13 -20 13 -41q0 -27 -18 -50t-47 -37l-313 -157h-65l292 275q18 16 40.5 26t45.5 10q18 0 30.5 -5.5t21.5 -20.5z" />
    <glyph glyph-name="igrave" unicode="&#xec;" horiz-adv-x="605" 
d="M651 250l-26 -47q-58 -104 -106 -154q-68 -71 -145 -71q-15 0 -30 3q-47 8 -72 44t-25 93q0 60 28 129l166 410q9 23 15 46.5t6 40.5q0 48 -39 48q-28 0 -83 -65q-46 -55 -74 -106l-23 -41l-35 23l20 37q56 103 117.5 157t122.5 54q58 0 91 -45q30 -41 30 -100
q0 -20 -2.5 -34.5t-10.5 -35.5l-156 -413q-15 -42 -31 -87.5t-16 -69.5q0 -17 10 -22.5t22 -5.5q54 0 133 110q31 43 55 88l21 39zM743 970h-66l-312 157q-28 13 -47 37t-19 50q0 21 13 41q8 13 22 19.5t31 6.5q46 0 85 -36z" />
    <glyph glyph-name="icircumflex" unicode="&#xee;" horiz-adv-x="611" 
d="M641 249l-26 -47q-58 -104 -106 -154q-68 -71 -145 -71q-15 0 -30 3q-47 8 -72 44t-25 93q0 60 28 129l166 410q9 23 15 46.5t6 40.5q0 48 -39 48q-28 0 -83 -65q-46 -55 -74 -106l-23 -41l-35 23l20 37q56 103 117.5 157t122.5 54q58 0 91 -45q30 -41 30 -100
q0 -20 -2.5 -34.5t-10.5 -35.5l-156 -413q-15 -42 -31 -87.5t-16 -69.5q0 -17 10 -22.5t22 -5.5q54 0 133 110q31 43 55 88l21 39zM786 982h-49l-188 181l-278 -181h-75l314 314h103z" />
    <glyph glyph-name="idieresis" unicode="&#xef;" horiz-adv-x="595" 
d="M645 249l-26 -47q-58 -104 -106 -154q-68 -71 -145 -71q-15 0 -30 3q-47 8 -72 44t-25 93q0 60 28 129l166 410q9 23 15 46.5t6 40.5q0 48 -39 48q-29 0 -83 -65q-47 -56 -74 -106l-23 -41l-35 23l20 37q56 103 117.5 157t122.5 54q58 0 91 -45q29 -40 29 -100
q0 -37 -12 -70l-156 -413q-18 -47 -30 -83q-17 -50 -17 -73q0 -18 10 -23.5t22 -5.5q54 0 133 110q31 43 55 88l21 39zM812 1084q0 -45 -33.5 -77.5t-80.5 -32.5q-43 0 -73 33t-30 78q0 41 31 71t73 30q45 0 79 -29t34 -73zM460 1084q0 -45 -33.5 -77.5t-80.5 -32.5
q-43 0 -73 33t-30 78q0 41 31 71t73 30q45 0 79 -29t34 -73z" />
    <glyph glyph-name="ntilde" unicode="&#xf1;" horiz-adv-x="1126" 
d="M1229 1154l-37 -51q-39 -54 -81 -79.5t-102 -25.5q-55 0 -120.5 26.5t-132 53.5t-118.5 27q-25 0 -58 -25t-53 -59l-24 -41l-67 50l24 38q32 52 83.5 88.5t88.5 36.5q78 0 155 -28q204 -74 213.5 -75.5t19.5 -1.5q33 0 60 15.5t44 39.5l37 56zM1175 256l-22 -49
q-50 -109 -110 -168q-67 -66 -140 -66q-21 0 -44 6q-48 14 -68 50t-20 87q0 60 25 138q29 75 33 87q20 58 51 139q39 101 46 124q19 61 19 98q0 31 -12.5 49.5t-41.5 24.5q-12 2 -17 2q-62 0 -140 -87q-62 -69 -128 -189q-56 -102 -81 -176l-111 -326h-139l107 344
q34 112 53 201q23 105 23 162q0 32 -6.5 49.5t-21.5 19.5q-56 10 -131 -122q-40 -78 -50 -97l-23 -41l-35 23l20 37q43 80 86 161q65 95 147 95q13 1 19 1q58 0 89.5 -35t31.5 -106q0 -26 -2 -39.5t-3 -21.5l-15 -111l37 65q33 57 69 104q51 66 100 101q64 45 129 45
q26 0 45 -5q64 -15 93 -60q26 -40 26 -106q0 -79 -43 -209q-11 -33 -79 -215q-44 -118 -44 -160q0 -29 16 -41q11 -8 26 -8q43 0 97 70q44 56 79 134l19 41z" />
    <glyph glyph-name="oacute" unicode="&#xf3;" horiz-adv-x="794" 
d="M863 515q0 -203 -134 -368q-140 -172 -326 -172q-116 0 -185.5 80.5t-69.5 218.5q0 206 138 385q142 184 312 184q135 0 205 -103q60 -88 60 -225zM725 633q0 75 -24 115q-29 49 -96 49q-98 0 -187 -150q-69 -116 -100 -252q-9 -41 -18 -81q-18 -87 -18 -143
q0 -68 36 -110t94 -42q100 0 181 138q64 110 107 288q11 44 18 94t7 94zM878 1255q13 -20 13 -41q0 -27 -18 -50t-47 -37l-313 -157h-65l292 275q18 16 40.5 26t45.5 10q18 0 30.5 -5.5t21.5 -20.5z" />
    <glyph glyph-name="ograve" unicode="&#xf2;" horiz-adv-x="795" 
d="M863 515q0 -203 -134 -368q-140 -172 -326 -172q-116 0 -185.5 80.5t-69.5 218.5q0 206 138 385q142 184 312 184q135 0 205 -103q60 -88 60 -225zM725 633q0 75 -24 115q-29 49 -96 49q-98 0 -187 -150q-69 -116 -100 -252q-9 -41 -18 -81q-18 -87 -18 -143
q0 -68 36 -110t94 -42q100 0 181 138q64 110 107 288q11 44 18 94t7 94zM962 979h-66l-312 157q-28 13 -47 37t-19 50q0 21 13 41q8 13 22 19.5t31 6.5q46 0 85 -36z" />
    <glyph glyph-name="ocircumflex" unicode="&#xf4;" horiz-adv-x="793" 
d="M863 515q0 -203 -134 -368q-140 -172 -326 -172q-116 0 -185.5 80.5t-69.5 218.5q0 206 138 385q142 184 312 184q135 0 205 -103q60 -88 60 -225zM725 633q0 75 -24 115q-29 49 -96 49q-98 0 -187 -150q-69 -116 -100 -252q-9 -41 -18 -81q-18 -87 -18 -143
q0 -68 36 -110t94 -42q100 0 181 138q64 110 107 288q11 44 18 94t7 94zM964 972h-49l-188 181l-278 -181h-75l314 314h103z" />
    <glyph glyph-name="odieresis" unicode="&#xf6;" horiz-adv-x="801" 
d="M863 515q0 -203 -134 -368q-140 -172 -326 -172q-116 0 -185.5 80.5t-69.5 218.5q0 206 138 385q142 184 312 184q135 0 205 -103q60 -88 60 -225zM725 633q0 75 -24 115q-29 49 -96 49q-98 0 -187 -150q-69 -116 -100 -252q-9 -41 -18 -81q-18 -87 -18 -143
q0 -68 36 -110t94 -42q100 0 181 138q64 110 107 288q11 44 18 94t7 94zM992 1083q0 -45 -33.5 -77.5t-80.5 -32.5q-43 0 -73 33t-30 78q0 41 31 71t73 30q45 0 79 -29t34 -73zM640 1083q0 -45 -33.5 -77.5t-80.5 -32.5q-43 0 -73 33t-30 78q0 41 31 71t73 30q45 0 79 -29
t34 -73z" />
    <glyph glyph-name="otilde" unicode="&#xf5;" horiz-adv-x="792" 
d="M863 515q0 -203 -134 -368q-140 -172 -326 -172q-116 0 -185.5 80.5t-69.5 218.5q0 206 138 385q142 184 312 184q135 0 205 -103q60 -88 60 -225zM725 633q0 75 -24 115q-29 49 -96 49q-98 0 -187 -150q-69 -116 -100 -252q-9 -41 -18 -81q-18 -87 -18 -143
q0 -68 36 -110t94 -42q100 0 181 138q64 110 107 288q11 44 18 94t7 94zM1075 1154l-37 -51q-39 -54 -81 -79.5t-102 -25.5q-55 0 -120.5 26.5t-132 53.5t-118.5 27q-25 0 -58 -25t-53 -59l-24 -41l-67 50l24 38q32 52 83.5 88.5t88.5 36.5q78 0 155 -28
q204 -74 213.5 -75.5t19.5 -1.5q33 0 60 15.5t44 39.5l37 56z" />
    <glyph glyph-name="uacute" unicode="&#xfa;" horiz-adv-x="1134" 
d="M1177 271l-29 -65q-48 -107 -105 -165t-123 -58q-75 0 -107 49q-26 39 -26 110q0 18 2 40t4 42l6 46l-55 -87q-49 -85 -120 -139q-77 -59 -156 -59q-44 0 -86 20t-59 57t-17 93q0 77 37 204q34 107 70.5 220.5t36.5 162.5q0 48 -28 59q-26 10 -94 -74q-57 -70 -101 -147
l-25 -44l-40 18l17 33q62 118 126 188q79 86 153 86q18 0 33 -4q52 -14 75 -59q19 -36 19 -95q0 -52 -17 -118q-6 -22 -19 -63.5t-50 -156.5q-32 -99 -44 -146q-19 -73 -19 -111q0 -43 23 -55q18 -9 39 -9q79 0 167 107q100 122 173 339l113 335h146l-102 -341
q-26 -83 -49.5 -197.5t-23.5 -173.5q0 -65 27 -71q38 -7 95 75q40 58 60 106l27 65zM1095 1257q13 -20 13 -41q0 -27 -18 -50t-47 -37l-313 -157h-65l292 275q18 16 40.5 26t45.5 10q18 0 30.5 -5.5t21.5 -20.5z" />
    <glyph glyph-name="ugrave" unicode="&#xf9;" horiz-adv-x="1143" 
d="M1189 271l-29 -65q-48 -107 -105 -165t-123 -58q-75 0 -107 49q-26 39 -26 110q0 18 2 40t4 42l6 46l-55 -87q-49 -85 -120 -139q-77 -59 -156 -59q-44 0 -86 20t-59 57t-17 93q0 77 37 204q34 107 70.5 220.5t36.5 162.5q0 48 -28 59q-26 10 -94 -74q-57 -70 -101 -147
l-25 -44l-40 18l17 33q62 118 126 188q79 86 153 86q18 0 33 -4q52 -14 75 -59q19 -36 19 -95q0 -52 -17 -118q-6 -22 -19 -63.5t-50 -156.5q-32 -99 -44 -146q-19 -73 -19 -111q0 -43 23 -55q18 -9 39 -9q79 0 167 107q100 122 173 339l113 335h146l-102 -341
q-26 -83 -49.5 -197.5t-23.5 -173.5q0 -65 27 -71q38 -7 95 75q40 58 60 106l27 65zM1104 980h-66l-312 157q-28 13 -47 37t-19 50q0 21 13 41q8 13 22 19.5t31 6.5q46 0 85 -36z" />
    <glyph glyph-name="ucircumflex" unicode="&#xfb;" horiz-adv-x="1144" 
d="M1189 271l-29 -65q-48 -107 -105 -165t-123 -58q-75 0 -107 49q-26 39 -26 110q0 18 2 40t4 42l6 46l-55 -87q-49 -85 -120 -139q-77 -59 -156 -59q-44 0 -86 20t-59 57t-17 93q0 77 37 204q34 107 70.5 220.5t36.5 162.5q0 48 -28 59q-26 10 -94 -74q-57 -70 -101 -147
l-25 -44l-40 18l17 33q62 118 126 188q79 86 153 86q18 0 33 -4q52 -14 75 -59q19 -36 19 -95q0 -52 -17 -118q-6 -22 -19 -63.5t-50 -156.5q-32 -99 -44 -146q-19 -73 -19 -111q0 -43 23 -55q18 -9 39 -9q79 0 167 107q100 122 173 339l113 335h146l-102 -341
q-26 -83 -49.5 -197.5t-23.5 -173.5q0 -65 27 -71q38 -7 95 75q40 58 60 106l27 65zM1140 970h-49l-188 181l-278 -181h-75l314 314h103z" />
    <glyph glyph-name="udieresis" unicode="&#xfc;" horiz-adv-x="1161" 
d="M1194 271l-29 -65q-48 -107 -105 -165t-123 -58q-75 0 -107 49q-26 39 -26 110q0 18 2 40t4 42l6 46l-55 -87q-49 -85 -120 -139q-77 -59 -156 -59q-44 0 -86 20t-59 57t-17 93q0 77 37 204q34 107 70.5 220.5t36.5 162.5q0 48 -28 59q-26 10 -94 -74q-57 -70 -101 -147
l-25 -44l-40 18l17 33q62 118 126 188q79 86 153 86q18 0 33 -4q52 -14 75 -59q19 -36 19 -95q0 -52 -17 -118q-6 -22 -19 -63.5t-50 -156.5q-32 -99 -44 -146q-19 -73 -19 -111q0 -43 23 -55q18 -9 39 -9q79 0 167 107q100 122 173 339l113 335h146l-102 -341
q-26 -83 -49.5 -197.5t-23.5 -173.5q0 -65 27 -71q38 -7 95 75q40 58 60 106l27 65zM1110 1080q0 -45 -33.5 -77.5t-80.5 -32.5q-43 0 -73 33t-30 78q0 41 31 71t73 30q45 0 79 -29t34 -73zM758 1080q0 -45 -33.5 -77.5t-80.5 -32.5q-43 0 -73 33t-30 78q0 41 31 71t73 30
q45 0 79 -29t34 -73z" />
    <glyph glyph-name="dagger" unicode="&#x2020;" horiz-adv-x="788" 
d="M979 941q4 -41 -19.5 -63.5t-55.5 -22.5q-28 0 -57 12q-93 38 -98 39q-45 9 -86 9q-7 -25 -13.5 -64.5t-6.5 -76.5q0 -42 6.5 -75t22.5 -78q-34 -64 -53 -104q-26 -56 -46 -112t-36 -109t-25 -92l-66 -294l-40 4l58 282q8 38 16 75.5t14 82.5t9 89t3 95v102
q26 37 40.5 64t30 66.5t24.5 72.5t14 72h-32t-27 -2t-95 -38q-35 -15 -60 -15q-31 0 -53 15q-29 20 -29 62q0 35 26 55q20 16 43 16q38 0 72 -16q51 -24 95 -34q21 -4 34.5 -5t36.5 -1q12 41 16 69t5 44t1 33q0 32 -4 55q-11 64 -11 67q0 6 2 22q6 37 21 57q19 25 53 25
q14 0 21 -2q32 -7 45 -28q10 -16 10 -46q0 -15 -2 -34.5t-28 -56.5q-36 -52 -42 -66q-15 -38 -24 -69.5t-15 -69.5q14 0 35.5 2t40 4.5t88.5 29.5q33 13 60 17q26 4 51.5 -13.5t29.5 -50.5z" />
    <glyph glyph-name="degree" unicode="&#xb0;" horiz-adv-x="664" 
d="M881 1075q0 -113 -81 -194t-194 -81q-105 0 -177.5 79.5t-72.5 188.5q0 103 78 179t180 76q107 0 187 -72t80 -176zM811 1073q0 77 -61.5 128.5t-143.5 51.5q-75 0 -126 -58t-51 -137q0 -78 54 -134t131 -56q82 0 139.5 60.5t57.5 144.5z" />
    <glyph glyph-name="cent" unicode="&#xa2;" horiz-adv-x="762" 
d="M946 991q1 -6 1 -8q0 -32 -21 -54t-55 -22q-26 0 -45 20t-19 45q0 17 9.5 36t7.5 29q-2 15 -23 20q-7 1 -21 2l-258 -768l28 -3q25 -2 58.5 11t67.5 37q39 28 75 72q26 32 49 69l30 50l40 -18l-16 -36q-27 -58 -79 -115q-47 -52 -94 -80q-39 -23 -72 -34.5t-77 -11.5h-26
l-87 -253h-67l83 264l-33 13q-75 30 -115 102.5t-40 162.5q0 63 19 120q60 185 192 315q117 116 241 144l26 6l74 218h73l-74 -220l15 -1q43 0 81 -23q52 -31 52 -89zM707 1042q-57 -11 -129.5 -104.5t-131.5 -234.5q-26 -62 -39.5 -125t-13.5 -120q0 -53 13 -85
q7 -19 16 -30q2 -3 38 -31z" />
    <glyph glyph-name="sterling" unicode="&#xa3;" horiz-adv-x="1044" 
d="M1137 1184q0 -38 -18.5 -66t-49.5 -28q-47 0 -73 39q-17 25 -25 67.5t-34.5 65t-63.5 22.5q-10 0 -15 -1q-93 -12 -155 -179q-50 -135 -67 -327l-4 -51h281l-19 -61h-275q-8 -66 -17.5 -113t-27.5 -113t-36.5 -116t-47.5 -113l31 -13q74 -30 107 -40q73 -22 139 -22
q117 0 181 48q48 52 96 105q16 0 16 -21q0 -18 -10 -46q-4 -12 -17 -39q-43 -94 -109 -145q-73 -56 -166 -56h-16q-7 1 -10 1q-60 6 -129 40q-59 29 -134 83l-24 18l-23 -37q-27 -45 -75.5 -74.5t-107.5 -29.5q-53 0 -95 37q-46 40 -46 100q0 63 50.5 105t115.5 42
q36 0 63.5 -3t51.5 -12l39 -14q0 42 7 111t7 112l8 205h-244l17 61h236l20 101q50 245 148 367q103 128 265 128q94 0 159 -24q96 -35 96 -114zM396 159l-33 20q-31 18 -61.5 23.5t-59.5 5.5q-29 -3 -52 -23q-28 -25 -28 -65q0 -42 27 -66t63 -24q40 0 75 29q26 21 45 56z
" />
    <glyph glyph-name="section" unicode="&#xa7;" horiz-adv-x="834" 
d="M962 1136q0 -69 -34 -102q-30 -29 -83 -29q-38 0 -64 27t-26 62q1 7 1 10q6 46 47 84q19 17 19 32q0 6 -1 10q-6 27 -52.5 42t-98.5 15q-70 0 -121 -58q-47 -54 -47 -115q0 -9 1 -14q8 -68 43 -120q3 -5 80 -98l185 -222q44 -52 68.5 -119t24.5 -135q0 -64 -20.5 -118
t-65.5 -98q-51 -51 -143 -51q-9 0 -18.5 0.5t-27.5 3.5l-51 9l59 -73q77 -95 77 -202q0 -10 -0.5 -20t-4.5 -39q-17 -105 -116 -171q-91 -61 -205 -61q-110 0 -190 55q-90 62 -90 161q0 57 23 92q27 41 85 41q46 0 75 -26t29 -69q0 -6 -2 -22q-6 -34 -40 -59
q-41 -30 -46 -38.5t-5 -16.5q0 -28 53.5 -50t107.5 -22q77 0 135.5 46.5t66.5 119.5q1 8 1 22q0 71 -57 150q-16 23 -70 87l-190 229q-41 49 -65 116t-24 134q0 94 46 161q52 75 151 97q22 4 30 4q21 0 56 -10l51 -16l-56 79q-46 65 -62 99q-25 53 -25 107q0 7 1 15.5
t1 13.5q13 109 97 178.5t197 69.5q110 0 194 -49q96 -56 96 -149zM714 219q36 19 52.5 47t16.5 66q0 58 -41 135q-36 68 -102 146q-49 58 -101 90t-100 32q-42 0 -76 -25q-29 -21 -42.5 -49t-13.5 -62q0 -60 38 -133q33 -64 87 -126.5t103 -96.5q59 -41 113 -41q35 0 66 17z
" />
    <glyph glyph-name="bullet" unicode="&#x2022;" horiz-adv-x="789" 
d="M861 651q0 -133 -97.5 -228.5t-232.5 -95.5q-129 0 -219 93.5t-90 224.5q0 133 96 227t231 94q128 0 220 -93t92 -222z" />
    <glyph glyph-name="paragraph" unicode="&#xb6;" horiz-adv-x="1174" 
d="M1468 1299l-12 -48l-79 -4q-25 0 -53.5 -11.5t-45.5 -27.5q-26 -22 -42.5 -54t-30.5 -83l-362 -1303q-7 -28 -9 -41t-2 -28q0 -24 8.5 -43t38 -32t63.5 -13l53 -1l-2 -45h-342l451 1654h-125l-452 -1654h-370l13 47l74 1q46 0 77 9.5t61 35.5q20 17 31 36t19 49l225 782
l-83 -1q-159 0 -230 93q-54 71 -54 187q0 40 4.5 69t13.5 55q22 68 62 131q55 85 128 138q93 67 215 87q42 7 88.5 10t87.5 3q48 0 130.5 -3.5t106.5 -3.5q291 9 344 9z" />
    <glyph glyph-name="germandbls" unicode="&#xdf;" horiz-adv-x="762" 
d="M889 998q-14 -92 -70.5 -158.5t-150.5 -97.5l-74 -25l59 -19q80 -26 122 -100q39 -68 39 -159q0 -40 -10 -87q-37 -163 -132 -267q-105 -115 -248 -115q-43 0 -71.5 29.5t-28.5 74.5q0 32 17 54t46 22q24 0 39 -12.5t15 -35.5q0 -17 -8.5 -35t-10.5 -28t6 -19t21 -9
q3 0 9 2q63 23 117.5 130.5t82.5 271.5q8 46 8 90q0 68 -21 111q-25 51 -80 67l-44 12q-29 10 -29 25q0 22 31.5 25.5t49.5 10.5q67 26 103 79q47 69 73 219q5 28 5 57q0 69 -22 116q-27 57 -79 57q-54 0 -94 -61q-30 -46 -47 -112l-321 -1263q-18 -71 -56 -147
q-51 -101 -120 -163q-87 -78 -187 -78q-51 0 -101 20q-71 28 -71 80q0 26 12 46.5t34 20.5q51 0 64 -61t57 -61q13 -1 17 -1q49 0 89 50q33 41 63 120q21 55 44 142l318 1219q25 97 103 185q95 108 204 108q110 0 174 -79q59 -73 59 -189q0 -27 -5 -62z" />
    <glyph glyph-name="registered" unicode="&#xae;" horiz-adv-x="1403" 
d="M1069 1286q243 0 371 -132q116 -120 116 -317q0 -190 -107 -381q-112 -200 -297 -321q-207 -135 -452 -135q-244 0 -372 132q-116 119 -116 317q0 190 107 381q112 200 298 321q207 135 452 135zM1049 1218q-219 0 -403 -120q-165 -108 -265 -286q-96 -172 -96 -342
q0 -176 103 -283q114 -118 332 -118q219 0 403 120q165 108 265 286q96 172 96 342q0 176 -103 283q-114 118 -332 118zM1205 894q1 -7 1 -12q0 -56 -39.5 -108t-106.5 -90q-18 -10 -46.5 -20t-58.5 -17l-9 -2l142 -299q4 -5 6 -7q8 -9 13 -13q1 0 12 -3.5t13 -3.5h6l-9 -30
l-8 1l-57 3q-25 0 -36.5 -1.5t-22.5 -2.5l-13 -1l-177 365l9 17l35 -2q74 0 144 42q76 46 90 113q4 19 4 39q0 38 -19 61.5t-63 30.5q-9 2 -20.5 2h-18.5q-29 0 -53 -2.5t-42 -6.5l-17 -4l-162 -565q-3 -14 -3 -22q0 -9 5.5 -19t18.5 -12t33 -2l23 -3l-8 -29h-16q-2 0 -48 3
t-75 3q-38 0 -65.5 -2t-63.5 -4h-17l9 30l29 3q18 0 30 2t25 11q20 18 26 41l152 529q5 15 5 25q0 9 -6 19.5t-30 12.5t-35 2h-12l9 30h18q4 0 50 -1.5t76 -2.5q43 0 98 1.5t91 2.5l17 1q67 0 110 -20q57 -27 57 -83z" />
    <glyph glyph-name="copyright" unicode="&#xa9;" horiz-adv-x="1411" 
d="M1075 1286q244 0 372 -132q116 -119 116 -317q0 -190 -107 -381q-112 -200 -297 -321q-207 -135 -452 -135q-244 0 -372 132q-116 119 -116 317q0 190 107 381q112 200 297 321q207 135 452 135zM1056 1218q-219 0 -403 -120q-167 -109 -264.5 -283t-97.5 -345
q0 -177 103 -283q114 -118 332 -118q219 0 403 120q167 109 266 286q96 171 96 342q0 177 -103 283q-114 118 -332 118zM1250 961l-65 -151h-31l18 62l3 11q6 21 -29 43.5t-72 30.5q-15 2 -39 5t-46 3q-13 0 -28 -1t-29 -4q-136 -28 -221 -133q-75 -93 -97 -225
q-4 -24 -4 -52q0 -99 60.5 -162.5t156.5 -63.5q73 0 126 12.5t102 35.5l27 12l4 -10l-30 -44l-27 -11q-41 -17 -105 -32.5t-117 -15.5q-146 0 -228 68t-82 187q0 30 6 65q31 176 164 291q111 95 248 119q41 7 87 7q40 0 65.5 -3t56 -9.5t68.5 -17t45 -12.5z" />
    <glyph glyph-name="trademark" unicode="&#x2122;" horiz-adv-x="1490" 
d="M1786 1292l-9 -28h-12q-21 0 -38.5 -2t-27.5 -11t-14 -15.5t-9 -23.5l-136 -475q-3 -11 -3 -18q0 -8 5.5 -17.5t23 -11.5t22.5 -2l22 -2l-8 -26h-14q-12 0 -28 1q-62 4 -82 4q-31 0 -61.5 -2t-54.5 -3h-15l8 27l25 2q17 0 28 1.5t22 10.5q17 14 23 36l127 443l-401 -530
h-18l-97 527l-127 -440q-3 -9 -3 -17q0 -10 5.5 -19t23 -11t22.5 -2l22 -2l-7 -26h-15q-7 0 -51.5 2.5t-58.5 2.5l-78 -5h-15l8 27l26 2q16 0 27 1.5t22 10.5q17 14 23 36l136 475q5 14 5 23q0 6 -5 15t-25.5 11.5t-33.5 2.5h-10l9 28h15q3 0 24 -2t35 -2q19 0 42 1t48 3h10
l93 -505l149 193q72 91 97 123q36 46 81 108l44 65l11 16h13q4 0 30.5 -1.5t44.5 -2.5q15 0 34 1t40 3h11zM930 1295l-49 -150h-26l10 58q1 5 1 16t-3 15q-6 10 -21 10l-142 2l-146 -509q-4 -16 -4 -21q0 -8 4.5 -16.5t22.5 -10t23 -1.5l21 -2l-7 -26h-15q-7 0 -51.5 2.5
t-58.5 2.5q-32 0 -57.5 -1.5t-57.5 -3.5h-16l8 27l26 2q16 0 27 1.5t22 10.5q18 15 24 36l146 509l-143 -5q-14 0 -20 -5q-3 -2 -6 -6q-8 -10 -12 -19l-29 -67h-27l37 150l15 -1q5 -1 105 -2.5t139 -1.5l244 4z" />
    <glyph glyph-name="acute" unicode="&#xb4;" horiz-adv-x="516" 
d="M796 1491q13 -20 13 -41q0 -27 -18 -50t-47 -37l-313 -157h-65l292 275q18 16 40.5 26t45.5 10q18 0 30.5 -5.5t21.5 -20.5z" />
    <glyph glyph-name="dieresis" unicode="&#xa8;" horiz-adv-x="698" 
d="M960 1229q0 -45 -33.5 -77.5t-80.5 -32.5q-43 0 -73 33t-30 78q0 41 31 71t73 30q45 0 79 -29t34 -73zM608 1229q0 -45 -33.5 -77.5t-80.5 -32.5q-43 0 -73 33t-30 78q0 41 31 71t73 30q45 0 79 -29t34 -73z" />
    <glyph glyph-name="notequal" unicode="&#x2260;" horiz-adv-x="1054" 
d="M1064 230h-530l-158 -284l-82 54l131 230h-279v93h332l136 243h-468v96h520l160 284l85 -45l-135 -239h285v-96h-336l-139 -243h478v-93z" />
    <glyph glyph-name="AE" unicode="&#xc6;" horiz-adv-x="1959" 
d="M2172 1294l-79 -304h-49q7 19 7 61q0 39 -10 76t-33 59q-25 27 -64.5 37.5t-81.5 10.5l-196 1q-21 0 -44.5 -2.5t-37.5 -10.5q-8 -5 -18.5 -34t-10.5 -37l-119 -450h80q52 0 91 11q50 14 93.5 48t78.5 100q26 50 30 77h46l-73 -269l-61 -241h-42q7 25 7 51q0 35 -11 67.5
t-33 54.5q-26 26 -67.5 36.5t-73.5 10.5h-80l-111 -429q-5 -17 -8 -34t-3 -33q0 -21 4 -34t17 -26q19 -18 43.5 -22.5t61.5 -4.5h210q62 0 102 11q49 14 95.5 48.5t80 83.5t55.5 111h42l-80 -318h-1067l12 50q33 1 52 3q59 8 98 31.5t68 91.5q9 22 21 62l62 237h-470
l-248 -234q-69 -66 -90.5 -96.5t-21.5 -52.5q0 -27 58 -40q47 -10 63 -7l-30 -45q-46 0 -78 2q-111 7 -127 7q-46 0 -78 -2q-110 -7 -122 -7l29 48q19 0 54 8t73 25q66 33 125 89l420 391l557 535q14 15 21 25q22 32 22 57q0 17 -9 29q-12 16 -35.5 23.5t-49.5 7.5h-46
l15 56h964zM1336 1085l-568 -545h423z" />
    <glyph glyph-name="Oslash" unicode="&#xd8;" horiz-adv-x="1317" 
d="M1486 1424l-156 -213q71 -68 111 -167t40 -213q0 -208 -103 -407t-276 -319q-189 -131 -410 -131q-124 0 -228 53l-139 -190h-99l171 232q-86 66 -134 170t-48 232q0 344 232 602q237 263 563 263q72 0 138 -20t123 -58l123 166h92zM1214 1180q-36 54 -87 82
q-55 31 -128 31q-131 0 -268.5 -138.5t-223.5 -343.5q-91 -216 -91 -427q0 -69 10.5 -125t34.5 -103zM1284 906q0 111 -32 198l-743 -1016q34 -34 83 -52.5t112 -18.5q167 0 310 163q123 140 200 361q70 200 70 365z" />
    <glyph glyph-name="infinity" unicode="&#x221e;" horiz-adv-x="1442" 
d="M1501 465q-33 -127 -142 -210q-101 -77 -211 -77q-73 0 -140 31q-75 35 -124 98l-62 80l-108 -80q-86 -63 -176 -96t-162 -33q-87 0 -144 52q-60 55 -60 144q0 41 15 91q35 112 136 187.5t216 75.5q70 0 129 -31t110 -92l78 -96l134 96q83 58 163 90.5t147 32.5
q93 0 151.5 -55.5t58.5 -141.5q0 -31 -9 -66zM1403 457q4 19 4 41q0 59 -38.5 94.5t-104.5 35.5q-54 0 -106 -22q-33 -14 -104 -58l-155 -95l72 -95q31 -41 77 -68.5t96 -27.5q12 0 18 1q92 9 158.5 63t82.5 131zM782 453l-100 95q-46 44 -72 58q-39 22 -93 22
q-75 0 -142 -48t-94 -123q-12 -32 -12 -62q0 -56 39.5 -91.5t107.5 -35.5q57 0 107 20.5t114 64.5z" />
    <glyph glyph-name="plusminus" unicode="&#xb1;" horiz-adv-x="1022" 
d="M1169 648l-27 -94h-332l-94 -329h-85l94 329h-330l29 95h327l96 331h88l-94 -332h328zM996 69l-20 -69h-753l19 69h754z" />
    <glyph glyph-name="lessequal" unicode="&#x2264;" horiz-adv-x="1008" 
d="M1243 974l-27 -93l-745 -301l572 -311l-28 -94l-654 354l28 99zM985 80l-23 -80h-757l24 80h756z" />
    <glyph glyph-name="greaterequal" unicode="&#x2265;" horiz-adv-x="1113" 
d="M1245 628l-28 -99l-857 -354l26 94l751 311l-573 301l27 93zM1092 80l-23 -80h-756l23 80h756z" />
    <glyph glyph-name="yen" unicode="&#xa5;" horiz-adv-x="1224" 
d="M1495 1303l-9 -47l-19 -5q-37 -11 -60 -26q-8 -5 -41 -32q-23 -19 -51 -51q-16 -18 -31 -36l-301 -337h222l-13 -64h-271l-57 -58l-41 -138h300l-16 -60h-302l-70 -284q-7 -28 -7 -49q0 -16 5.5 -31t31 -29t48.5 -14l76 -5l-8 -42q-73 0 -149 2.5t-134 4.5
q-78 0 -172.5 -3.5t-101.5 -3.5l10 39l78 9q36 5 50.5 9.5t30.5 14.5q28 19 42 37t24 51l80 294h-282l16 61h282l30 112l-26 83h-239l14 64h211l-117 375q-7 25 -17.5 44t-21.5 31q-19 20 -49 30l-21 6l11 45q44 0 71 -2q95 -7 140 -7q57 0 103 2q138 6 166 6l-9 -44l-55 -3
q-31 0 -53.5 -9.5t-40.5 -33.5t-18 -69q0 -29 8 -59l105 -379l269 302q38 52 77 105q33 55 33 87q0 20 -19.5 33t-46.5 18l-53 9l19 47q55 -7 93 -9t99 -2q83 0 177 11z" />
    <glyph glyph-name="mu" unicode="&#xb5;" horiz-adv-x="922" 
d="M958 164l-25 -51q-30 -61 -105 -104q-67 -39 -122 -39q-10 0 -15 1q-44 5 -73.5 39.5t-29.5 84.5q0 15 5 37l-55 -42q-65 -50 -133 -82t-112 -32t-87 21q-54 26 -74 73l-17 -59q-12 -43 -12 -82q0 -20 2.5 -52t2.5 -40q0 -26 -2.5 -44t-10.5 -50q-11 -42 -43.5 -75.5
t-69.5 -33.5q-27 0 -41 19t-14 48q0 18 4 31q15 59 53 118q46 71 59 104l16 46l237 828h141l-164 -571q-4 -12 -6 -27t-2 -30q0 -53 28 -87t80 -34q67 0 149 52q89 57 110 123l164 574h136l-185 -646q-7 -24 -7 -54q0 -37 13.5 -59.5t41.5 -22.5q9 0 14 1q29 5 53 24.5
t41 48.5l25 44h30z" />
    <glyph glyph-name="partialdiff" unicode="&#x2202;" horiz-adv-x="912" 
d="M1046 700q-35 -165 -134 -332q-103 -173 -232 -280q-143 -118 -276 -118h-18q-7 1 -10 1q-123 12 -184.5 78t-61.5 171q0 52 13 104q37 155 176.5 273.5t292.5 118.5q68 0 114 -21q38 -17 89 -63l43 -38l39 90q33 76 51 151.5t18 148.5q0 118 -48 186q-54 76 -161 76
q-42 0 -90.5 -15t-95.5 -29l-36 -10l-43 84l82 22q58 15 92.5 20.5t83.5 5.5q163 0 246 -122q73 -108 73 -291q0 -102 -23 -211zM824 528l-35 46q-22 29 -42.5 43t-56.5 22q-17 4 -40 4q-88 0 -180 -76q-81 -67 -141 -173q-29 -52 -47 -109.5t-18 -106.5q0 -57 24 -97.5
t75 -57.5q21 -7 46 -7q65 0 136 61q62 54 121 143q47 72 93 169z" />
    <glyph glyph-name="summation" unicode="&#x3a3;" horiz-adv-x="1306" 
d="M1501 1297l-80 -286h-38q12 38 12 67q0 49 -34 89q-26 32 -61.5 40.5t-99.5 8.5h-525l331 -609l-715 -607h721q36 0 64 9.5t68 33.5q50 32 80.5 69t49.5 88h39q-32 -52 -59.5 -102.5t-52.5 -105.5q-28 -61 -42 -97t-32 -92l-121 25h-1027l838 699l-402 781l113 -11h973z
" />
    <glyph glyph-name="product" unicode="&#x220f;" horiz-adv-x="1526" 
d="M1819 1297l-11 -40l-40 -2q-26 0 -46 -8t-48 -27q-43 -27 -68 -69q-18 -31 -35 -87l-302 -1055q-7 -23 -10.5 -39.5t-3.5 -31.5q0 -29 16 -49t37.5 -27t55.5 -7l41 -2l-8 -29h-560l9 33l47 2q39 0 61 5t49.5 26t41.5 55q3 7 20 67l339 1182h-655l-336 -1172
q-5 -17 -10 -41.5t-5 -37.5q0 -35 23 -57q17 -17 37 -21t59 -4h36l-11 -37h-560l11 40h44q37 0 58.5 4t47.5 20q34 22 53 60q10 20 26 76l305 1067q9 29 9 52q0 40 -30 75t-74 39l-29 3l10 37h1406z" />
    <glyph glyph-name="pi" unicode="&#x3c0;" horiz-adv-x="1006" 
d="M1176 830l-40 -144h-230l-144 -418q-9 -29 -9 -56q0 -41 20 -67t60 -26q42 0 78.5 27.5t60.5 73.5l15 28h34l-16 -37q-40 -98 -122 -166.5t-172 -68.5q-51 0 -74.5 34t-23.5 91q0 46 13.5 101.5t34.5 108.5l148 375h-204l-230 -556q-27 -64 -68 -110q-49 -54 -95 -54
q-5 0 -12 1.5t-11 2.5q-26 7 -41 20t-15 35q0 53 59 100q83 66 99 90q12 15 24 31q21 28 31 54l149 379h-56h-32q-16 0 -26 -1t-27 -7q-34 -13 -73 -48q-30 -27 -43 -46l-25 11l17 25q72 96 84 110q47 52 108 79q33 14 61.5 21t59.5 7h633z" />
    <glyph glyph-name="integral" unicode="&#x222b;" horiz-adv-x="585" 
d="M902 1383q-12 -29 -39 -47t-57 -18q-18 0 -31 13q-21 20 -26 23q-6 3 -13 3q-37 0 -71 -161l-60 -282l-159 -555q-38 -130 -71 -216q-55 -142 -116 -228q-76 -107 -154 -107q-22 0 -40 5.5t-32 21.5t-14 39q0 11 4 22q12 28 36 46.5t51 18.5q23 0 38 -29q8 -16 21 -20
q31 -10 60 53q21 44 48 149q40 155 43 164l221 771q30 106 64 185q45 106 93 162q59 69 127 69q34 0 58 -16t24 -43q0 -10 -5 -23z" />
    <glyph glyph-name="ordfeminine" unicode="&#xaa;" horiz-adv-x="649" 
d="M875 960l-17 -23q-50 -71 -82 -102q-58 -57 -113 -57q-53 0 -53 42q0 21 14 55l18 44l-32 -37q-39 -45 -83 -72q-53 -33 -101 -33q-20 0 -38 6q-32 10 -46.5 32t-14.5 56q0 116 148 270q152 158 277 158q11 0 22 -1.5t25.5 -9t19.5 -21.5l12 -29l30 46h81l-200 -323
q-15 -24 -34.5 -72t-19.5 -66q0 -9 4 -9q20 -3 58.5 32.5t82.5 95.5l21 27zM770 1272q-10 2 -15 2q-38 0 -92 -44q-42 -34 -98 -100q-41 -49 -80 -103q-35 -50 -57 -95q-26 -54 -26 -88q0 -33 28 -40q12 -2 17 -2q38 0 86 37q55 43 138 151q53 72 85 126q44 75 44 115
q0 32 -30 41zM764 631l-5 -63l-543 -1l4 64h544z" />
    <glyph glyph-name="ordmasculine" unicode="&#xba;" horiz-adv-x="657" 
d="M913 1086q-36 -128 -152 -234q-120 -110 -238 -110q-57 0 -88 31t-31 88q0 30 11 71q37 131 159 246.5t231 115.5q63 0 94 -36q27 -31 27 -88q0 -38 -13 -84zM847 1161q3 9 6 23.5t3 27.5q0 25 -13 39t-42 14q-62 0 -146 -95q-66 -75 -110 -161q-25 -49 -35 -70
q-20 -42 -29 -72q-5 -21 -5 -22v-13q0 -29 15.5 -45.5t44.5 -16.5q64 0 141 88q59 68 120 183q17 33 29.5 62t20.5 58zM764 631l-5 -63l-543 -1l4 64h544z" />
    <glyph glyph-name="Omega" unicode="&#x3a9;" horiz-adv-x="1395" 
d="M1482 682q-57 -178 -198 -306.5t-320 -158.5l-15 -53h289q33 0 58 10t49.5 35.5t33.5 62.5h34l-79 -275h-526l100 260q142 58 238 169q92 107 132 253q12 43 20 88.5t8 82.5q0 105 -61 159q-70 62 -228 62q-201 0 -331 -116q-112 -100 -164 -276q-26 -87 -26 -160
q0 -88 38 -154.5t116 -107.5l-49 -260h-526l78 275h34q-6 -20 -6 -35q0 -11 6.5 -31.5t27.5 -31t52 -10.5h288l15 53q-129 24 -198.5 112.5t-69.5 219.5q0 32 4 65.5t13 67.5q52 207 256 328q194 115 454 115q224 0 350 -80.5t126 -229.5q0 -33 -5 -64t-18 -69z" />
    <glyph glyph-name="ae" unicode="&#xe6;" horiz-adv-x="1322" 
d="M1324 699q-14 -83 -77 -154q-51 -57 -135 -106q-57 -33 -135 -66l-136 -57l-23 -87q-5 -16 -8.5 -37t-3.5 -46q0 -47 17 -76q22 -38 72 -48q14 -2 23 -2q59 0 131 57q64 51 119 130l34 48l40 -22l-26 -36q-79 -112 -140 -158q-78 -59 -183 -59q-21 -1 -30 -1
q-94 0 -145 60q-55 65 -55 182v14q0 2 1 5l-48 -81q-42 -72 -104 -119q-72 -55 -151 -55q-33 0 -66 10q-79 24 -115.5 83.5t-36.5 144.5q0 127 76 275.5t190 244.5q124 105 244 105q19 0 37 -2t46 -14.5t44 -36.5l33 -47l27 76h134l-21 -61l80 54q61 34 129 34q83 0 127 -48
q36 -39 36 -89q0 -10 -1 -15zM1179 806q-15 5 -26 5q-66 0 -149 -109q-63 -82 -77 -127l-75 -211l171 96q72 41 133.5 129.5t61.5 153.5q0 22 -9.5 38.5t-29.5 24.5zM696 804q-12 3 -25 3q-61 0 -131 -74q-60 -64 -117 -164q-39 -70 -83 -171q-26 -62 -42 -124.5t-16 -117.5
q0 -52 17 -85t56 -41q15 -3 30 -3q58 0 113 49q44 39 92 118q35 58 75 144q44 94 71 174q35 105 35 173q0 49 -16 77q-19 32 -59 42z" />
    <glyph glyph-name="oslash" unicode="&#xf8;" horiz-adv-x="1029" 
d="M913 923l-120 -169q35 -45 52.5 -108.5t17.5 -130.5q0 -203 -134 -368q-140 -172 -326 -172q-79 0 -138 39l-107 -149h-78l137 191q-33 39 -51 94.5t-18 123.5q0 206 138 385q142 184 312 184q91 0 153 -48l92 128h70zM707 735q-13 30 -37.5 46t-64.5 16q-98 0 -187 -150
q-69 -116 -100 -252q-9 -41 -18 -81q-18 -87 -18 -143l1 -24zM725 633l-1 25l-416 -583q36 -56 104 -56q100 0 181 138q64 110 107 288q11 44 18 94t7 94z" />
    <glyph glyph-name="questiondown" unicode="&#xbf;" horiz-adv-x="708" 
d="M603 742q0 -43 -31 -74t-75 -31q-43 0 -72 32t-29 75q0 44 30.5 75.5t74.5 31.5q42 0 72 -32t30 -77zM605 -259q0 -97 -66.5 -160.5t-171.5 -63.5q-125 0 -211 64q-93 69 -104 188q-1 8 -1 16v13q0 76 32 147q29 65 77 107l206 185q52 46 62 58q29 34 29 75
q0 23 -17.5 36.5t-44.5 13.5q-35 0 -61 -17l-59 -38l-32 29l33 28q69 57 149 57q55 0 98 -46t43 -102t-35 -115q-24 -40 -53 -67l-225 -213q-35 -33 -56 -78.5t-21 -99.5q0 -83 52.5 -133.5t151.5 -50.5q67 0 115 43q53 47 53 121q0 54 -37 88q-32 30 -70 30q-21 0 -32 -11
q-7 -7 -7 -14q0 -4 18.5 -27.5t18.5 -53.5q0 -23 -16.5 -39.5t-41.5 -20.5q-3 -1 -6 -1h-5q-28 0 -49.5 22.5t-24.5 54.5q-5 57 41.5 97.5t107.5 40.5q66 0 113 -48t47 -115z" />
    <glyph glyph-name="exclamdown" unicode="&#xa1;" horiz-adv-x="325" 
d="M487 744q0 -45 -27 -76t-74 -31q-43 0 -75.5 30.5t-32.5 73.5q0 44 31.5 76.5t74.5 32.5t73 -31t30 -75zM317 418l-128 -773q-8 -52 -34 -87q-30 -42 -72 -42q-5 0 -17 2q-74 15 -74 88q0 44 24 110l257 717z" />
    <glyph glyph-name="logicalnot" unicode="&#xac;" horiz-adv-x="1408" 
d="M1504 548l-157 -548h-106l129 449h-1182l28 99h1288z" />
    <glyph glyph-name="radical" unicode="&#x221a;" horiz-adv-x="938" 
d="M1281 1437l-682 -1521l-176 802l-177 -79l-9 55l269 111l143 -640l579 1279z" />
    <glyph glyph-name="florin" unicode="&#x192;" horiz-adv-x="918" 
d="M1235 1373q-20 -31 -49.5 -48.5t-62.5 -17.5q-15 0 -27 14q-17 20 -23 24t-13 4q-28 0 -63 -68q-14 -28 -63 -152q-41 -103 -70 -158l-19 -37h177l-31 -73h-186l-262 -537q-55 -113 -116 -214q-87 -145 -167 -230q-102 -108 -184 -108q-19 0 -36.5 5t-27 19t-9.5 32
q0 17 10 33q19 30 45.5 48t56.5 18q23 0 29.5 -23.5t17.5 -27.5q30 -10 75 52q36 50 83 148l78 166l302 621h-195l26 73h218l24 48q58 119 118 214q74 119 140 182q79 76 146 76q27 0 47 -16t20 -39q0 -14 -9 -28z" />
    <glyph glyph-name="approxequal" unicode="&#x2248;" horiz-adv-x="1154" 
d="M1285 633l-51 -44q-68 -60 -133 -87.5t-142 -27.5q-48 0 -93.5 15.5t-89.5 31.5l-147 44q-38 11 -76 23q-21 5 -46 5h-18q-4 0 -21 -4q-50 -10 -84 -27t-80 -54l-43 -35l-68 54l35 29q69 56 127 83t134 38q38 5 61 5q35 0 71 -8q24 -5 74 -22l128 -43q38 -13 77.5 -25.5
t83.5 -12.5q54 0 99 17t93 56l46 37zM1196 322l-51 -44q-68 -59 -133 -86.5t-142 -27.5q-49 0 -94 15t-89 31l-147 45q-30 9 -61.5 18t-57.5 9h-25q-12 -3 -17 -4q-48 -9 -84.5 -27.5t-80.5 -54.5l-42 -34l-68 54l35 28q68 55 127 83t134 39q38 5 61 5q35 0 71 -8
q24 -5 73 -22l129 -42q38 -14 76.5 -26.5t84.5 -12.5q55 0 99.5 17t92.5 57l46 37z" />
    <glyph glyph-name="Delta" unicode="&#x2206;" horiz-adv-x="1274" 
d="M1227 0h-1171l1001 1312zM1019 85l-125 915l-692 -915h817z" />
    <glyph glyph-name="guillemotleft" unicode="&#xab;" horiz-adv-x="975" 
d="M1133 790l-53 -182l-321 -192l207 -184l-55 -193l-287 288l53 185zM661 790l-52 -182l-321 -192l208 -184l-56 -193l-287 288l53 185z" />
    <glyph glyph-name="guillemotright" unicode="&#xbb;" horiz-adv-x="963" 
d="M1049 512l-53 -185l-452 -288l55 193l314 184l-212 192l52 182zM578 512l-53 -185l-452 -288l55 193l314 184l-213 192l53 182z" />
    <glyph glyph-name="ellipsis" unicode="&#x2026;" horiz-adv-x="1056" 
d="M1021 95q0 -40 -28 -71t-66 -31q-36 0 -66 30t-30 69q0 38 29 66t66 28q41 0 68 -26t27 -65zM641 95q0 -40 -28 -71t-66 -31q-36 0 -66 30t-30 69q0 38 29 66t66 28q41 0 68 -26t27 -65zM285 95q0 -40 -28 -71t-66 -31q-36 0 -66 30t-30 69q0 38 29 66t66 28q41 0 68 -26
t27 -65z" />
    <glyph glyph-name="nonbreakingspace" unicode="&#xa0;" horiz-adv-x="528" 
 />
    <glyph glyph-name="Agrave" unicode="&#xc0;" horiz-adv-x="1383" 
d="M1260 47l-1 -47q-54 0 -150 2t-108 2q-44 0 -128.5 -2t-129.5 -2l1 47l91 4q36 0 67 36q9 10 13 24.5t4 32.5q0 10 -1 16l-51 384h-381l-165 -320q-18 -35 -28.5 -63t-10.5 -47q0 -12 3 -22t34 -27.5t54 -17.5h63l-5 -47q-61 6 -115 8t-110 2q-35 0 -98 -5t-103 -5l10 47
l52 10q34 6 74 37q39 27 58 60l686 1169h53l165 -1184q4 -32 20 -56q20 -31 54 -31zM862 601l-63 484l-280 -484h343zM1164 1441h-66l-312 157q-28 13 -47 37t-19 50q0 21 13 41q8 13 22 19.5t31 6.5q46 0 85 -36z" />
    <glyph glyph-name="Atilde" unicode="&#xc3;" horiz-adv-x="1380" 
d="M1261 47l-1 -47q-54 0 -150 2t-108 2q-44 0 -128.5 -2t-129.5 -2l1 47l91 4q36 0 67 36q9 10 13 24.5t4 32.5q0 10 -1 16l-51 384h-381l-165 -320q-18 -35 -28.5 -63t-10.5 -47q0 -12 3 -22t34 -27.5t54 -17.5h63l-5 -47q-61 6 -115 8t-110 2q-35 0 -98 -5t-103 -5l10 47
l52 10q34 6 74 37q39 27 58 60l686 1169h53l165 -1184q4 -32 20 -56q20 -31 54 -31zM863 601l-63 484l-280 -484h343zM1364 1611l-37 -51q-39 -54 -81 -79.5t-102 -25.5q-55 0 -120.5 26.5t-132 53.5t-118.5 27q-25 0 -58 -25t-53 -59l-24 -41l-67 50l24 38q32 52 83.5 88.5
t88.5 36.5q78 0 155 -28q204 -74 213.5 -75.5t19.5 -1.5q33 0 60 15.5t44 39.5l37 56z" />
    <glyph glyph-name="Otilde" unicode="&#xd5;" 
d="M1492 831q0 -208 -103 -407t-276 -319q-189 -131 -410 -131q-209 0 -343 138t-134 359q0 344 232 602q237 263 563 263q203 0 337 -142t134 -363zM1295 906q0 164 -66 268q-75 119 -219 119q-131 0 -268.5 -138.5t-223.5 -343.5q-91 -216 -91 -427q0 -168 64 -261
q73 -106 224 -106q167 0 310 163q123 140 200 361q70 200 70 365zM1469 1610l-37 -51q-39 -54 -81 -79.5t-102 -25.5q-55 0 -120.5 26.5t-132 53.5t-118.5 27q-25 0 -58 -25t-53 -59l-24 -41l-67 50l24 38q32 52 83.5 88.5t88.5 36.5q78 0 155 -28q204 -74 213.5 -75.5
t19.5 -1.5q33 0 60 15.5t44 39.5l37 56z" />
    <glyph glyph-name="OE" unicode="&#x152;" horiz-adv-x="2175" 
d="M2251 1299l-79 -304h-48q6 22 6 59q0 42 -8 73q-11 41 -34 64q-26 27 -66.5 37.5t-82.5 10.5h-196q-30 0 -48.5 -2t-31.5 -10q-8 -5 -18.5 -34t-10.5 -37l-119 -450h80q52 0 91 11q51 14 95 49q33 25 62 72q38 61 46 104h45l-76 -269l-58 -241h-43q6 20 6 50q0 35 -10 68
t-32 55q-26 26 -66.5 36.5t-73.5 10.5h-81l-111 -429q-11 -36 -11 -65q0 -21 4 -34.5t17 -27.5q18 -18 42.5 -22.5t62.5 -4.5h210q62 0 102 11q49 14 95 48.5t80.5 83.5t56.5 110h41l-81 -317h-1126q-21 -10 -46 -13q-46 -7 -108 -7q-120 0 -239 45q-139 53 -221 151
q-98 117 -98 281q0 327 281 591t631 264q43 0 112 -9q23 -3 61 -9h996zM1367 916q10 39 10 77q0 119 -91 194.5t-219 75.5q-169 0 -328 -131q-145 -120 -236.5 -307.5t-91.5 -359.5q0 -191 70 -297q84 -127 263 -127q121 0 226 60q80 46 156 132q37 42 95 124z" />
    <glyph glyph-name="oe" unicode="&#x153;" horiz-adv-x="1213" 
d="M1329 697q-14 -84 -80 -156q-51 -56 -139 -108q-57 -33 -137 -68l-126 -54l-25 -79q-4 -12 -7.5 -36.5t-3.5 -46.5q0 -52 18 -84q23 -42 75 -48q5 -1 15 -1q60 0 132 59q64 52 120 133l34 48l40 -22l-26 -36q-75 -106 -141 -158q-86 -67 -181 -67h-18q-12 2 -18 2
q-65 8 -107 38t-63 79q-57 -57 -125 -88t-147 -31h-17q-12 2 -17 2q-102 9 -165.5 88.5t-63.5 194.5v22t4 33q31 215 153 368q130 162 297 162q89 0 154 -54q59 -49 89 -131q73 88 147 136q84 55 166 55q84 0 128 -49q36 -40 36 -90q0 -9 -1 -13zM1183 803q-14 5 -16 5h-11
q-68 0 -150 -120q-67 -97 -114 -225l-32 -101l82 42q126 65 207 168q74 94 74 166q0 50 -40 65zM712 445q12 49 18.5 93.5t6.5 88.5q0 78 -25 120q-30 50 -95 50q-98 0 -187 -150q-69 -116 -100 -252q-16 -71 -23 -107q-13 -68 -13 -112q0 -61 21 -99q25 -45 79 -58
q22 -5 38 -5q70 0 129 70q50 59 92 167q33 84 59 194z" />
    <glyph glyph-name="endash" unicode="&#x2013;" horiz-adv-x="849" 
d="M915 476l-9 -82h-721l12 82h718z" />
    <glyph glyph-name="emdash" unicode="&#x2014;" horiz-adv-x="1451" 
d="M1531 476l-12 -82l-1337 -1l9 83h1340z" />
    <glyph glyph-name="quotedblleft" unicode="&#x201c;" horiz-adv-x="710" 
d="M951 1291q-52 -23 -111.5 -80.5t-72.5 -97.5q-8 -25 -8.5 -41t-0.5 -23q30 15 57 15q39 0 64.5 -26.5t25.5 -72.5q0 -42 -29.5 -72.5t-71.5 -30.5q-56 0 -92 35.5t-41 89.5q0 7 -0.5 15.5t-0.5 11.5q0 95 64 172q51 62 156 123l42 25zM627 1290q-52 -24 -111.5 -82
t-72.5 -97q-8 -24 -8.5 -40.5t-0.5 -23.5q29 16 58 16q39 0 64 -27t25 -73q0 -42 -29 -72t-72 -30q-56 0 -92 35.5t-41 89.5q0 7 -0.5 15.5t-0.5 11.5q0 95 64 172q51 62 156 123l42 24z" />
    <glyph glyph-name="quotedblright" unicode="&#x201d;" horiz-adv-x="692" 
d="M949 1205q1 -7 1 -13v-14q0 -95 -64 -172q-51 -62 -156 -123l-42 -25l-19 43q53 24 111.5 80.5t72.5 97.5q4 11 6 28.5t2 24.5v10v1q-29 -15 -57 -15q-39 0 -64 27t-25 72q0 42 29.5 72.5t70.5 30.5q57 0 93 -35.5t41 -89.5zM625 1203q1 -7 1 -13v-14q0 -95 -64 -172
q-51 -62 -156 -123l-42 -24l-19 42q53 25 111.5 82t72.5 97q4 11 6 28.5t2 24.5v10v1q-29 -16 -58 -16q-38 0 -63 27t-25 73q0 42 29 72t71 30q57 0 93 -35.5t41 -89.5z" />
    <glyph glyph-name="quoteleft" unicode="&#x2018;" horiz-adv-x="381" 
d="M624 1290q-53 -25 -111.5 -82t-72.5 -97q-4 -11 -6 -28.5t-2 -24.5v-10q0 -1 14.5 7t43.5 8q38 0 63 -27t25 -73q0 -42 -29 -72t-71 -30q-57 0 -93 35.5t-41 89.5q0 7 -0.5 15.5t-0.5 11.5q0 95 64 172q51 62 156 123l42 24z" />
    <glyph glyph-name="quoteright" unicode="&#x2019;" horiz-adv-x="392" 
d="M625 1203q1 -7 1 -13v-14q0 -95 -64 -172q-51 -62 -156 -123l-42 -24l-19 42q53 25 111.5 82t72.5 97q4 11 6 28.5t2 24.5v10v1q-29 -16 -58 -16q-38 0 -63 27t-25 73q0 42 29 72t71 30q57 0 93 -35.5t41 -89.5z" />
    <glyph glyph-name="divide" unicode="&#xf7;" horiz-adv-x="1034" 
d="M789 650q-11 -40 -48 -69t-78 -29q-32 0 -51 20t-19 50q0 12 3 24q10 40 45 70t75 30q33 0 55 -20t22 -51q0 -7 -4 -25zM1105 454l-27 -92h-919l26 92h920zM653 170q-11 -40 -48 -69t-78 -29q-32 0 -51 20t-19 50q0 12 3 24q11 40 46 70t75 30q34 0 55 -19t21 -51
q0 -14 -4 -26z" />
    <glyph glyph-name="lozenge" unicode="&#x25ca;" horiz-adv-x="903" 
d="M1029 652l-525 -654h-111l-153 664l524 632h112zM928 652l-136 546l-448 -540l130 -579z" />
    <glyph glyph-name="ydieresis" unicode="&#xff;" horiz-adv-x="797" 
d="M937 1084q0 -45 -33.5 -77.5t-80.5 -32.5q-43 0 -73 33t-30 78q0 41 31 71t73 30q45 0 79 -29t34 -73zM585 1084q0 -45 -33.5 -77.5t-80.5 -32.5q-43 0 -73 33t-30 78q0 41 31 71t73 30q45 0 79 -29t34 -73zM864 749q6 -51 6 -102q0 -67 -6.5 -121t-16.5 -109
q-25 -137 -92 -289q-57 -130 -138 -258q-68 -107 -131 -178q-54 -61 -67 -74q-61 -62 -120 -100q-80 -51 -147 -51q-17 0 -36 3.5t-35 18.5q-19 18 -15 39q9 40 37.5 53.5t69.5 13.5q9 0 26.5 -1t24.5 -1q78 0 123 25q14 8 49 41q68 65 106 145q32 67 32 116l6 42
q2 21 -3.5 101.5t-20.5 184.5t-39 189.5t-39 129.5q-26 77 -47 116q-28 51 -52 51q-32 0 -46 -94q-8 -55 -8 -106v-49l-41 4v32v28q0 143 35.5 217t102.5 82q4 1 12 1q63 0 120 -96.5t98 -273.5q26 -106 44 -262q15 -132 13 -160l50 106q9 20 31 76q28 73 34 99
q11 50 22 103.5t11 96.5q0 36 -6 67t-23 68q-4 8 -43 58q-16 21 -23 43q-3 11 -3 20q0 25 15.5 41t46.5 16q37 0 56.5 -26t26.5 -76z" />
    <glyph glyph-name="Ydieresis" unicode="&#x178;" horiz-adv-x="1360" 
d="M1485 1297l-9 -47l-26 -3q-10 0 -42 -18.5t-51 -36.5q-26 -24 -42 -41q-25 -28 -40 -44l-418 -458l-130 -482q-5 -22 -5 -36q0 -9 1 -18t3 -18q6 -22 31.5 -35t49.5 -13h76l-9 -47q-84 0 -144 1.5t-138 4.5q-68 0 -157 -3t-115 -3l11 47h77q24 0 41.5 5.5t38.5 19.5
q28 19 42 37t23 50l127 461l-162 550q-4 14 -11 29t-17 25q-13 14 -25.5 20.5t-32.5 6.5l-18 -1l11 47q27 0 96.5 -4t115.5 -4q57 0 102 2q136 6 164 6l-9 -47l-55 -1q-30 0 -54.5 -9.5t-44 -27t-19.5 -61.5q0 -31 10 -66l109 -382l268 302q30 33 58 73q52 74 52 113
q0 27 -21 43t-48 16h-50l20 47q36 -5 67.5 -6t72.5 -1h51h47h16q52 0 112 7zM1320 1541q0 -45 -33.5 -77.5t-80.5 -32.5q-43 0 -73 33t-30 78q0 41 31 71t73 30q45 0 79 -29t34 -73zM968 1541q0 -45 -33.5 -77.5t-80.5 -32.5q-43 0 -73 33t-30 78q0 41 31 71t73 30
q45 0 79 -29t34 -73z" />
    <glyph glyph-name="periodcentered" unicode="&#xb7;" horiz-adv-x="321" 
d="M415 593q0 -40 -28 -71t-66 -31q-36 0 -66 30t-30 69q0 38 29 66t66 28q41 0 68 -26t27 -65z" />
    <glyph glyph-name="periodcentered" unicode="&#x2219;" horiz-adv-x="321" 
d="M415 593q0 -40 -28 -71t-66 -31q-36 0 -66 30t-30 69q0 38 29 66t66 28q41 0 68 -26t27 -65z" />
    <glyph glyph-name="quotesinglbase" unicode="&#x201a;" horiz-adv-x="392" 
d="M313 61q1 -7 1 -13v-14q0 -95 -64 -172q-51 -62 -156 -123l-42 -24l-19 42q53 25 111.5 82t72.5 97q4 11 6 28.5t2 24.5v10q0 1 -14.5 -7t-43.5 -8q-38 0 -63 27t-25 73q0 42 29 72t71 30q57 0 93 -35.5t41 -89.5z" />
    <glyph glyph-name="quotedblbase" unicode="&#x201e;" horiz-adv-x="696" 
d="M625 61q1 -7 1 -13v-14q0 -95 -64 -172q-51 -62 -156 -123l-42 -24l-19 42q53 25 111.5 82t72.5 97q4 11 6 28.5t2 24.5v10q0 1 -14.5 -7t-43.5 -8q-38 0 -63 27t-25 73q0 42 29 72t71 30q57 0 93 -35.5t41 -89.5zM313 61q1 -7 1 -13v-14q0 -95 -64 -172
q-51 -62 -156 -123l-42 -24l-19 42q53 25 111.5 82t72.5 97q4 11 6 28.5t2 24.5v10q0 1 -14.5 -7t-43.5 -8q-38 0 -63 27t-25 73q0 42 29 72t71 30q57 0 93 -35.5t41 -89.5z" />
    <glyph glyph-name="Acircumflex" unicode="&#xc2;" horiz-adv-x="1360" 
d="M1323 47l-1 -47q-54 0 -150 2t-108 2q-44 0 -128.5 -2t-129.5 -2l1 47l91 4q36 0 67 36q9 10 13 24.5t4 32.5q0 10 -1 16l-51 384h-381l-165 -320q-18 -35 -28.5 -63t-10.5 -47q0 -12 3 -22t34 -27.5t54 -17.5h63l-5 -47q-61 6 -115 8t-110 2q-35 0 -98 -5t-103 -5l10 47
l52 10q34 6 74 37q39 27 58 60l686 1169h53l165 -1184q4 -32 20 -56q20 -31 54 -31zM925 601l-63 484l-280 -484h343zM1283 1437h-49l-188 181l-278 -181h-75l314 314h103z" />
    <glyph glyph-name="Ecircumflex" unicode="&#xca;" horiz-adv-x="1221" 
d="M1345 989h-36l-23 69q-19 60 -51 103.5t-69.5 60t-82 23.5t-67.5 7h-244l-148 -522h174q50 0 101 31q23 14 47 46q17 22 26 42l41 85h39l-105 -502l-36 1v76q0 58 -9.5 91t-31.5 52q-13 13 -46.5 22t-64.5 9h-144l-112 -405q-11 -40 -15 -66t-4 -49q0 -36 12 -53
q3 -4 19 -16q29 -24 82 -36q38 -9 71 -9h141q77 0 144 25q55 21 93 54q24 20 44.5 43.5t31.5 42.5l74 127h41l-92 -341q-189 0 -283.5 1.5t-224.5 3.5t-230 2q-36 0 -185 -5q-59 -2 -140 -2l15 47h57q36 0 56.5 9t38.5 27q22 23 37 64q6 16 20 69l252 930q4 15 4 30
q0 19 -7 32t-18.5 24t-31.5 14.5t-46 3.5h-42l9 47q72 0 134 -2q186 -6 188 -6q98 0 173.5 1t181.5 3t128 2q24 0 54 -0.5t36 -3.5zM1243 1437h-49l-188 181l-278 -181h-75l314 314h103z" />
    <glyph glyph-name="Aacute" unicode="&#xc1;" horiz-adv-x="1368" 
d="M1323 47l-1 -47q-54 0 -150 2t-108 2q-44 0 -128.5 -2t-129.5 -2l1 47l91 4q36 0 67 36q9 10 13 24.5t4 32.5q0 10 -1 16l-51 384h-381l-165 -320q-18 -35 -28.5 -63t-10.5 -47q0 -12 3 -22t34 -27.5t54 -17.5h63l-5 -47q-61 6 -115 8t-110 2q-35 0 -98 -5t-103 -5l10 47
l52 10q34 6 74 37q39 27 58 60l686 1169h53l165 -1184q4 -32 20 -56q20 -31 54 -31zM925 601l-63 484l-280 -484h343zM1196 1731q13 -20 13 -41q0 -27 -18 -50t-47 -37l-313 -157h-65l292 275q18 16 40.5 26t45.5 10q18 0 30.5 -5.5t21.5 -20.5z" />
    <glyph glyph-name="Edieresis" unicode="&#xcb;" horiz-adv-x="1211" 
d="M1345 989h-36l-23 69q-19 60 -51 103.5t-69.5 60t-82 23.5t-67.5 7h-244l-148 -522h174q50 0 101 31q23 14 47 46q17 22 26 42l41 85h39l-105 -502l-36 1v76q0 58 -9.5 91t-31.5 52q-13 13 -46.5 22t-64.5 9h-144l-112 -405q-11 -40 -15 -66t-4 -49q0 -36 12 -53
q3 -4 19 -16q29 -24 82 -36q38 -9 71 -9h141q77 0 144 25q55 21 93 54q24 20 44.5 43.5t31.5 42.5l74 127h41l-92 -341q-189 0 -283.5 1.5t-224.5 3.5t-230 2q-36 0 -185 -5q-59 -2 -140 -2l15 47h57q36 0 56.5 9t38.5 27q22 23 37 64q6 16 20 69l252 930q4 15 4 30
q0 19 -7 32t-18.5 24t-31.5 14.5t-46 3.5h-42l9 47q72 0 134 -2q186 -6 188 -6q98 0 173.5 1t181.5 3t128 2q24 0 54 -0.5t36 -3.5zM1248 1549q0 -45 -33.5 -77.5t-80.5 -32.5q-43 0 -73 33t-30 78q0 41 31 71t73 30q45 0 79 -29t34 -73zM896 1549q0 -45 -33.5 -77.5
t-80.5 -32.5q-43 0 -73 33t-30 78q0 41 31 71t73 30q45 0 79 -29t34 -73z" />
    <glyph glyph-name="Egrave" unicode="&#xc8;" horiz-adv-x="1212" 
d="M1345 989h-36l-23 69q-19 60 -51 103.5t-69.5 60t-82 23.5t-67.5 7h-244l-148 -522h174q50 0 101 31q23 14 47 46q17 22 26 42l41 85h39l-105 -502l-36 1v76q0 58 -9.5 91t-31.5 52q-13 13 -46.5 22t-64.5 9h-144l-112 -405q-11 -40 -15 -66t-4 -49q0 -36 12 -53
q3 -4 19 -16q29 -24 82 -36q38 -9 71 -9h141q77 0 144 25q55 21 93 54q24 20 44.5 43.5t31.5 42.5l74 127h41l-92 -341q-189 0 -283.5 1.5t-224.5 3.5t-230 2q-36 0 -185 -5q-59 -2 -140 -2l15 47h57q36 0 56.5 9t38.5 27q22 23 37 64q6 16 20 69l252 930q4 15 4 30
q0 19 -7 32t-18.5 24t-31.5 14.5t-46 3.5h-42l9 47q72 0 134 -2q186 -6 188 -6q98 0 173.5 1t181.5 3t128 2q24 0 54 -0.5t36 -3.5zM1206 1437h-66l-312 157q-28 13 -47 37t-19 50q0 21 13 41q8 13 22 19.5t31 6.5q46 0 85 -36z" />
    <glyph glyph-name="Iacute" unicode="&#xcd;" horiz-adv-x="671" 
d="M972 1297l-13 -47h-45q-32 0 -60 -9t-45.5 -26.5t-28.5 -37t-22 -57.5l-289 -952q-10 -33 -10 -56q0 -14 1 -19q2 -8 8 -17q10 -16 40.5 -22.5t65.5 -6.5h55l-12 -47q-50 0 -143 3t-151 3q-64 0 -153 -3t-99 -3l8 47h45q35 0 59.5 5.5t44.5 22.5q27 22 45 59q11 22 21 56
l273 931q2 9 5 25.5t3 30.5q0 17 -3.5 28.5t-12.5 19.5q-18 16 -46 20.5t-78 4.5h-33l11 47q44 0 120 -4t124 -4q49 0 150 4t165 4zM988 1731q13 -20 13 -41q0 -27 -18 -50t-47 -37l-313 -157h-65l292 275q18 16 40.5 26t45.5 10q18 0 30.5 -5.5t21.5 -20.5z" />
    <glyph glyph-name="Icircumflex" unicode="&#xce;" horiz-adv-x="672" 
d="M972 1297l-13 -47h-45q-32 0 -60 -9t-45.5 -26.5t-28.5 -37t-22 -57.5l-289 -952q-10 -33 -10 -56q0 -14 1 -19q2 -8 8 -17q10 -16 40.5 -22.5t65.5 -6.5h55l-12 -47q-50 0 -143 3t-151 3q-64 0 -153 -3t-99 -3l8 47h45q35 0 59.5 5.5t44.5 22.5q27 22 45 59q11 22 21 56
l273 931q2 9 5 25.5t3 30.5q0 17 -3.5 28.5t-12.5 19.5q-18 16 -46 20.5t-78 4.5h-33l11 47q44 0 120 -4t124 -4q49 0 150 4t165 4zM1035 1437h-49l-188 181l-278 -181h-75l314 314h103z" />
    <glyph glyph-name="Idieresis" unicode="&#xcf;" horiz-adv-x="672" 
d="M972 1297l-13 -47h-45q-32 0 -60 -9t-45.5 -26.5t-28.5 -37t-22 -57.5l-289 -952q-10 -33 -10 -56q0 -14 1 -19q2 -8 8 -17q10 -16 40.5 -22.5t65.5 -6.5h55l-12 -47q-50 0 -143 3t-151 3q-64 0 -153 -3t-99 -3l8 47h45q35 0 59.5 5.5t44.5 22.5q27 22 45 59q11 22 21 56
l273 931q2 9 5 25.5t3 30.5q0 17 -3.5 28.5t-12.5 19.5q-18 16 -46 20.5t-78 4.5h-33l11 47q44 0 120 -4t124 -4q49 0 150 4t165 4zM1040 1549q0 -45 -33.5 -77.5t-80.5 -32.5q-43 0 -73 33t-30 78q0 41 31 71t73 30q45 0 79 -29t34 -73zM688 1549q0 -45 -33.5 -77.5
t-80.5 -32.5q-43 0 -73 33t-30 78q0 41 31 71t73 30q45 0 79 -29t34 -73z" />
    <glyph glyph-name="Igrave" unicode="&#xcc;" horiz-adv-x="672" 
d="M972 1297l-13 -47h-45q-32 0 -60 -9t-45.5 -26.5t-28.5 -37t-22 -57.5l-289 -952q-10 -33 -10 -56q0 -14 1 -19q2 -8 8 -17q10 -16 40.5 -22.5t65.5 -6.5h55l-12 -47q-50 0 -143 3t-151 3q-64 0 -153 -3t-99 -3l8 47h45q35 0 59.5 5.5t44.5 22.5q27 22 45 59q11 22 21 56
l273 931q2 9 5 25.5t3 30.5q0 17 -3.5 28.5t-12.5 19.5q-18 16 -46 20.5t-78 4.5h-33l11 47q44 0 120 -4t124 -4q49 0 150 4t165 4zM982 1437h-66l-312 157q-28 13 -47 37t-19 50q0 21 13 41q8 13 22 19.5t31 6.5q46 0 85 -36z" />
    <glyph glyph-name="Oacute" unicode="&#xd3;" 
d="M1481 831q0 -208 -103 -407t-276 -319q-189 -131 -410 -131q-209 0 -343 138t-134 359q0 344 232 602q237 263 563 263q203 0 337 -142t134 -363zM1284 906q0 164 -66 268q-75 119 -219 119q-131 0 -268.5 -138.5t-223.5 -343.5q-91 -216 -91 -427q0 -168 64 -261
q73 -106 224 -106q167 0 310 163q123 140 200 361q70 200 70 365zM1308 1731q13 -20 13 -41q0 -27 -18 -50t-47 -37l-313 -157h-65l292 275q18 16 40.5 26t45.5 10q18 0 30.5 -5.5t21.5 -20.5z" />
    <glyph glyph-name="Ocircumflex" unicode="&#xd4;" 
d="M1481 831q0 -208 -103 -407t-276 -319q-189 -131 -410 -131q-209 0 -343 138t-134 359q0 344 232 602q237 263 563 263q203 0 337 -142t134 -363zM1284 906q0 164 -66 268q-75 119 -219 119q-131 0 -268.5 -138.5t-223.5 -343.5q-91 -216 -91 -427q0 -168 64 -261
q73 -106 224 -106q167 0 310 163q123 140 200 361q70 200 70 365zM1355 1437h-49l-188 181l-278 -181h-75l314 314h103z" />
    <glyph glyph-name="Ograve" unicode="&#xd2;" 
d="M1481 831q0 -208 -103 -407t-276 -319q-189 -131 -410 -131q-209 0 -343 138t-134 359q0 344 232 602q237 263 563 263q203 0 337 -142t134 -363zM1284 906q0 164 -66 268q-75 119 -219 119q-131 0 -268.5 -138.5t-223.5 -343.5q-91 -216 -91 -427q0 -168 64 -261
q73 -106 224 -106q167 0 310 163q123 140 200 361q70 200 70 365zM1302 1437h-66l-312 157q-28 13 -47 37t-19 50q0 21 13 41q8 13 22 19.5t31 6.5q46 0 85 -36z" />
    <glyph glyph-name="Uacute" unicode="&#xda;" horiz-adv-x="1413" 
d="M1701 1297l-3 -47h-28q-25 0 -50.5 -12t-57.5 -48q-23 -26 -35 -57q-3 -8 -19 -65l-187 -653q-69 -240 -211 -348q-128 -97 -330 -97q-178 0 -296 87q-126 93 -126 247q0 50 15 106l198 722q7 24 7 46q0 38 -28 59q-11 8 -36 10.5t-61 2.5h-13h-33l8 47q58 0 143 -3.5
t120 -3.5q65 0 158.5 3.5t132.5 3.5l-12 -47h-31q-42 0 -58.5 -2t-39 -14t-46.5 -51.5t-36 -86.5l-189 -694q-16 -60 -16 -111q0 -139 111 -210q82 -53 183 -53q149 0 250 83q81 67 136 192q29 66 70 212q6 7 47 152t54 206t28 129q20 95 18 103q2 8 2 30q0 26 -5 43
q-8 25 -25.5 40.5t-47.5 23.5t-49 8h-35l12 47q109 -11 207 -11q97 0 204 11zM1388 1731q13 -20 13 -41q0 -27 -18 -50t-47 -37l-313 -157h-65l292 275q18 16 40.5 26t45.5 10q18 0 30.5 -5.5t21.5 -20.5z" />
    <glyph glyph-name="Ucircumflex" unicode="&#xdb;" horiz-adv-x="1404" 
d="M1701 1297l-3 -47h-28q-25 0 -50.5 -12t-57.5 -48q-23 -26 -35 -57q-3 -8 -19 -65l-187 -653q-69 -240 -211 -348q-128 -97 -330 -97q-178 0 -296 87q-126 93 -126 247q0 50 15 106l198 722q7 24 7 46q0 38 -28 59q-11 8 -36 10.5t-61 2.5h-13h-33l8 47q58 0 143 -3.5
t120 -3.5q65 0 158.5 3.5t132.5 3.5l-12 -47h-31q-42 0 -58.5 -2t-39 -14t-46.5 -51.5t-36 -86.5l-189 -694q-16 -60 -16 -111q0 -139 111 -210q82 -53 183 -53q149 0 250 83q81 67 136 192q29 66 70 212q6 7 47 152t54 206t28 129q20 95 18 103q2 8 2 30q0 26 -5 43
q-8 25 -25.5 40.5t-47.5 23.5t-49 8h-35l12 47q109 -11 207 -11q97 0 204 11zM1435 1437h-49l-188 181l-278 -181h-75l314 314h103z" />
    <glyph glyph-name="Ugrave" unicode="&#xd9;" horiz-adv-x="1421" 
d="M1701 1297l-3 -47h-28q-25 0 -50.5 -12t-57.5 -48q-23 -26 -35 -57q-3 -8 -19 -65l-187 -653q-69 -240 -211 -348q-128 -97 -330 -97q-178 0 -296 87q-126 93 -126 247q0 50 15 106l198 722q7 24 7 46q0 38 -28 59q-11 8 -36 10.5t-61 2.5h-13h-33l8 47q58 0 143 -3.5
t120 -3.5q65 0 158.5 3.5t132.5 3.5l-12 -47h-31q-42 0 -58.5 -2t-39 -14t-46.5 -51.5t-36 -86.5l-189 -694q-16 -60 -16 -111q0 -139 111 -210q82 -53 183 -53q149 0 250 83q81 67 136 192q29 66 70 212q6 7 47 152t54 206t28 129q20 95 18 103q2 8 2 30q0 26 -5 43
q-8 25 -25.5 40.5t-47.5 23.5t-49 8h-35l12 47q109 -11 207 -11q97 0 204 11zM1350 1437h-66l-312 157q-28 13 -47 37t-19 50q0 21 13 41q8 13 22 19.5t31 6.5q46 0 85 -36z" />
  </font>
</defs>
</svg>
