<?xml version="1.0" encoding="UTF-8"?>
<!-- Generator: Adobe Illustrator 16.0.0, SVG Export Plug-In . SVG Version: 6.00 Build 0)  -->
<!DOCTYPE svg PUBLIC "-//W3C//DTD SVG 1.1//EN" "http://www.w3.org/Graphics/SVG/1.1/DTD/svg11.dtd">
<svg version="1.1" id="mouse" xmlns="http://www.w3.org/2000/svg" xmlns:xlink="http://www.w3.org/1999/xlink" x="0px" y="0px" width="45px" height="45px" viewBox="22.5 22.5 45 45" enable-background="new 22.5 22.5 45 45" xml:space="preserve">
<g id="MouseGroup">
	<path id="line" fill="#EDEDED" d="M46.269,22.507c-1.545-0.031-2.475,0.054-2.475,0.054c-2.999,0.268-5.904,1.454-8.197,3.41   c-3.235,2.759-5.09,6.779-5.086,11.026l0.014,16.034c0.003,3.868,1.512,7.503,4.25,10.236C37.511,66,41.148,67.505,45.018,67.5   c3.437-0.003,6.768-1.23,9.38-3.457c3.237-2.762,5.093-6.785,5.09-11.036l-0.014-16.034C59.468,29.491,53.705,23.139,46.269,22.507   z M56.98,36.974l0.013,16.033c0.004,3.521-1.533,6.851-4.215,9.137c-2.16,1.844-4.918,2.86-7.765,2.862   c-3.203,0.003-6.214-1.241-8.48-3.505c-2.267-2.264-3.516-5.272-3.518-8.475l-0.014-16.034c-0.002-3.517,1.532-6.844,4.211-9.129   c1.885-1.607,4.183-2.58,6.644-2.811l2.05-0.012C52.116,25.513,56.977,30.744,56.98,36.974z"/>
	<path id="fill" fill="#EDEDED" d="M42.548,30.302l0.006,7.057c0.001,1.21,0.983,2.189,2.191,2.189   c1.209-0.002,2.19-0.984,2.189-2.193l-0.007-7.057c-0.001-1.21-0.982-2.19-2.191-2.189C43.526,28.111,42.547,29.093,42.548,30.302z   "/>
</g>
</svg>